<svg width="398" height="597" viewBox="0 0 398 597" fill="none" xmlns="http://www.w3.org/2000/svg">
<path d="M198.76 198.73L0.470001 0.450013C0.43171 0.41425 0.405116 0.367752 0.393707 0.316615C0.382299 0.265478 0.386608 0.212087 0.406067 0.16344C0.425526 0.114793 0.459233 0.0731582 0.502762 0.0439958C0.546291 0.0148334 0.597617 -0.000497677 0.650009 1.23229e-05H397.39C397.461 1.23229e-05 397.531 0.0139801 397.597 0.0411176C397.662 0.0682551 397.722 0.108032 397.772 0.158175C397.822 0.208319 397.862 0.267848 397.889 0.333363C397.916 0.398879 397.93 0.469099 397.93 0.540013V198.64C397.93 198.725 397.896 198.806 397.836 198.866C397.776 198.926 397.695 198.96 397.61 198.96H199.44C199.401 198.958 199.363 198.969 199.331 198.99C199.299 199.011 199.275 199.043 199.261 199.079C199.246 199.116 199.244 199.157 199.252 199.196C199.261 199.236 199.281 199.272 199.31 199.3L397.41 397.4C397.454 397.441 397.483 397.494 397.495 397.553C397.507 397.611 397.501 397.672 397.477 397.728C397.454 397.784 397.414 397.832 397.363 397.866C397.311 397.9 397.251 397.919 397.19 397.92H199.37C199.259 397.92 199.152 397.964 199.073 398.043C198.994 398.122 198.95 398.229 198.95 398.34V596.35C198.95 596.378 198.943 596.405 198.931 596.429C198.919 596.453 198.901 596.474 198.88 596.49C198.7 596.63 198.52 596.57 198.34 596.31C198.32 596.283 132.437 530.397 0.690002 398.65C0.471316 398.432 0.297821 398.172 0.179428 397.885C0.061035 397.599 6.18644e-05 397.291 0 396.98V199.33C0 199.229 0.0389947 199.133 0.108383 199.061C0.177772 198.99 0.27188 198.95 0.37001 198.95H198.66C198.686 198.951 198.712 198.945 198.734 198.931C198.756 198.918 198.774 198.898 198.785 198.874C198.795 198.85 198.799 198.824 198.794 198.798C198.79 198.773 198.778 198.749 198.76 198.73Z" fill="white"/>
</svg>
