<svg width="1989" height="1550" viewBox="0 0 1989 1550" fill="none" xmlns="http://www.w3.org/2000/svg">
<path d="M811.653 -38.854C811.574 -39.1074 811.572 -39.3786 811.647 -39.6331C811.723 -39.8876 811.873 -40.1137 812.078 -40.2825C812.283 -40.4513 812.533 -40.5551 812.798 -40.5807C813.062 -40.6062 813.328 -40.5524 813.561 -40.4261C819.175 -37.4495 824.76 -33.4665 830.318 -28.477C850.726 -10.2358 867.14 10.5932 879.561 34.0098C879.895 34.6466 880.029 35.3707 879.944 36.0856C879.86 36.8004 879.56 37.4721 879.087 38.0112C878.613 38.5503 877.987 38.9311 877.292 39.103C876.598 39.2748 875.868 39.2295 875.199 38.9732C869.022 36.6432 861.602 27.0982 857.637 21.7234C839.385 -3.04244 824.385 -22.6485 812.639 -37.0949C812.157 -37.696 811.829 -38.2824 811.653 -38.854Z" fill="#494949"/>
<path d="M787.054 -23.6276C790.36 -21.8137 794.595 -17.8841 799.758 -11.8389C815.315 6.30344 833.695 30.1495 852.246 51.7472C858.161 58.62 864.226 66.8863 870.442 76.546C871.499 78.2042 872.262 79.7955 872.731 81.3198C872.923 81.9702 872.901 82.6654 872.667 83.3021C872.433 83.9388 872 84.483 871.432 84.8538C870.864 85.2247 870.192 85.4024 869.515 85.3605C868.838 85.3186 868.192 85.0594 867.674 84.6214C849.824 69.4006 833.666 46.7168 821.205 31.693C807.441 15.0873 796.267 -3.20937 785.569 -22.1303C785.458 -22.3384 785.417 -22.5764 785.451 -22.8095C785.486 -23.0426 785.594 -23.2585 785.76 -23.4258C785.926 -23.5931 786.141 -23.703 786.374 -23.7393C786.606 -23.7756 786.845 -23.7364 787.054 -23.6276Z" fill="#494949"/>
<path d="M1110.88 232.993C1107.4 230.13 1102.61 225.107 1096.53 217.925C1065.83 181.773 1043.59 155.937 1029.81 140.415C1014.21 122.893 1000.69 104.994 982.647 84.3694C960.945 59.5786 939.913 30.8081 919.551 -1.942C919.413 -2.16411 919.332 -2.41612 919.314 -2.67687C919.295 -2.93761 919.34 -3.19951 919.445 -3.44063C919.55 -3.68174 919.711 -3.89506 919.916 -4.06267C920.12 -4.23027 920.362 -4.34727 920.62 -4.4039L920.691 -4.42019C921.38 -4.5637 922.093 -4.52195 922.758 -4.29929C923.423 -4.07663 924.016 -3.68107 924.475 -3.15337C949.839 26.4594 971.42 51.5466 989.216 72.1085C995.313 79.1684 1002.15 87.4557 1009.74 96.9704C1017.42 106.633 1024.1 115.074 1029.78 122.294C1033.29 126.778 1039.25 134.849 1047.66 146.508C1062.39 166.997 1078.81 187.002 1091.43 204.236L1111.9 232.259C1111.95 232.394 1111.96 232.543 1111.92 232.683C1111.88 232.823 1111.8 232.946 1111.68 233.031C1111.56 233.116 1111.42 233.159 1111.27 233.152C1111.13 233.145 1110.99 233.089 1110.88 232.993Z" fill="#494949"/>
<path d="M864.081 128.516C864.098 128.651 864.075 128.789 864.016 128.912C863.956 129.035 863.863 129.139 863.746 129.21C863.63 129.282 863.495 129.319 863.359 129.316C863.222 129.313 863.089 129.271 862.976 129.195C846.861 118.024 832.378 104.623 819.529 88.9916C812.362 80.2568 805.256 71.5972 798.212 63.013C783.448 45.0397 772.207 27.4299 758.432 7.58775C755.454 3.3251 753.441 0.080059 752.393 -2.14735C752.333 -2.28032 752.306 -2.42596 752.315 -2.57167C752.324 -2.71737 752.368 -2.85873 752.444 -2.98348C752.519 -3.10822 752.625 -3.21257 752.75 -3.28749C752.875 -3.36241 753.017 -3.40566 753.163 -3.41343C754.044 -3.45149 754.882 -3.19335 755.676 -2.63905C764.673 3.74579 772.304 10.7998 778.568 18.5229C794.729 38.4646 813.733 61.6775 835.579 88.1617C844.825 99.3852 853.044 110.949 861.864 122.039C863.058 123.556 863.797 125.715 864.081 128.516Z" fill="#494949"/>
<path d="M1982.67 120.996L1983.23 120.681C1983.32 120.624 1983.44 120.601 1983.54 120.616C1983.65 120.63 1983.75 120.682 1983.82 120.761C2001.54 140.807 2012.98 154.277 2018.14 161.169C2021.92 166.233 2027.97 173.304 2036.29 182.381C2054.77 202.585 2063.14 215.711 2087.14 247.657C2087.28 247.845 2087.36 248.069 2087.38 248.304C2087.4 248.539 2087.35 248.773 2087.24 248.98C2087.12 249.187 2086.95 249.356 2086.75 249.468C2086.54 249.58 2086.3 249.63 2086.07 249.611L2085.93 249.598C2084.26 249.467 2082.71 248.723 2081.56 247.511C2069.24 234.519 2061.06 225.579 2057.02 220.69C2030.49 188.577 2005.61 155.806 1982.37 122.377C1982.29 122.269 1982.24 122.146 1982.22 122.016C1982.19 121.886 1982.19 121.752 1982.22 121.623C1982.25 121.493 1982.3 121.371 1982.38 121.263C1982.45 121.155 1982.55 121.064 1982.67 120.996Z" fill="#494949"/>
<path d="M1940.1 125.344C1943.24 126.665 1946.47 129.349 1949.79 133.399C1962.46 148.859 1977.43 163.27 1989.99 178.95C2005.09 197.811 2016.79 214.68 2030.93 231.968C2041.26 244.614 2049.57 256.487 2057.02 268.554C2057.17 268.784 2057.25 269.05 2057.25 269.324C2057.25 269.597 2057.18 269.865 2057.04 270.097C2056.89 270.33 2056.69 270.517 2056.44 270.638C2056.2 270.758 2055.92 270.807 2055.65 270.779C2055.36 270.751 2054.91 270.438 2054.31 269.84C2042.02 257.822 2030.3 244.996 2019.15 231.363C1998.26 205.818 1977.77 179.488 1957.68 152.372C1954.78 148.456 1948.72 139.697 1939.49 126.095C1939.43 126.006 1939.41 125.9 1939.41 125.793C1939.42 125.686 1939.45 125.583 1939.52 125.5C1939.59 125.416 1939.68 125.356 1939.78 125.328C1939.89 125.301 1940 125.306 1940.1 125.344Z" fill="#494949"/>
<path d="M848.647 167.72C848.528 167.678 848.043 167.199 847.191 166.285C824.758 141.886 805.222 120.039 788.582 100.744C766.998 75.7027 749.689 54.3175 736.658 36.5886C731.292 29.2912 726.894 21.471 723.463 13.128C723.411 12.9942 723.401 12.8467 723.434 12.7062C723.467 12.5657 723.542 12.4394 723.648 12.345C723.754 12.2506 723.886 12.1928 724.025 12.18C724.165 12.1671 724.304 12.1997 724.424 12.2733C729.738 15.3981 733.767 19.6236 738.305 24.0832C758.842 44.3398 773.165 59.7899 781.273 70.4336C790.037 81.9419 798.479 92.8721 806.6 103.224C814.972 113.924 825.433 129.078 830.232 136.822C835.527 145.399 845.727 156.322 850.385 165.762C850.502 166.014 850.544 166.295 850.504 166.57C850.464 166.846 850.344 167.103 850.159 167.311C849.974 167.52 849.733 167.669 849.464 167.742C849.195 167.814 848.911 167.807 848.647 167.72Z" fill="#494949"/>
<path d="M2029.99 295.429C2028.84 296.334 2026.36 294.677 2022.54 290.457C1978.33 241.459 1937.63 189.697 1900.46 135.17C1896.85 129.892 1895.28 127.067 1895.75 126.697C1896.22 126.326 1898.62 128.484 1902.96 133.171C1947.73 181.667 1989.02 232.955 2026.83 287.034C2030.09 291.71 2031.14 294.508 2029.99 295.429Z" fill="#494949"/>
<path d="M1144.92 330.145L1144.33 330.505C1144.22 330.565 1144.1 330.587 1143.98 330.567C1143.86 330.547 1143.75 330.486 1143.67 330.395C1132.23 317.519 1124.81 308.821 1121.39 304.3C1114.13 294.662 1105.82 284.284 1096.46 273.165C1070.81 242.724 1024.84 186.539 988.656 143.918C973.619 126.211 961.376 111.408 951.925 99.5101C936.759 80.4349 927.032 65.0974 914.622 45.7108C914.489 45.5175 914.425 45.2844 914.441 45.05C914.458 44.8155 914.553 44.5936 914.712 44.4208C914.872 44.2479 915.085 44.1344 915.317 44.0988C915.55 44.0633 915.787 44.1079 915.991 44.2252C917.645 45.1245 919.2 46.2455 920.658 47.588C941.405 66.7864 961.627 96.4492 980.92 118.257C992.631 131.475 1011.05 156.111 1027.27 174.571C1038.83 187.682 1045.36 194.53 1053.9 205.639C1062.75 217.156 1073.19 230.313 1085.21 245.109C1093.31 255.043 1101.45 266.76 1111.01 279.471C1111.99 280.783 1115.26 285.666 1120.8 294.121C1128.47 305.831 1136.61 317.303 1145.23 328.535C1145.33 328.659 1145.39 328.801 1145.43 328.952C1145.46 329.103 1145.46 329.259 1145.43 329.411C1145.4 329.563 1145.34 329.707 1145.25 329.833C1145.17 329.96 1145.05 330.066 1144.92 330.145Z" fill="#494949"/>
<path d="M1932.91 224.394C1933.15 224.726 1933.4 225.05 1933.64 225.367C1956.69 253.985 1979.75 284.793 2002.85 317.792C2003.12 318.172 2003.24 318.635 2003.19 319.096C2003.15 319.557 2002.94 319.988 2002.61 320.31L2002.18 320.708C2002.05 320.823 2001.89 320.886 2001.72 320.882C2001.55 320.879 2001.39 320.81 2001.28 320.69C1973.77 292.496 1947.43 261.872 1924.49 230.93C1924.25 230.615 1924.01 230.298 1923.75 229.98C1900.72 201.363 1877.66 170.556 1854.56 137.557C1854.3 137.176 1854.18 136.714 1854.22 136.253C1854.26 135.792 1854.47 135.361 1854.8 135.038L1855.24 134.641C1855.36 134.522 1855.52 134.455 1855.69 134.454C1855.85 134.453 1856.02 134.518 1856.14 134.636C1883.64 162.853 1909.96 193.452 1932.91 224.394Z" fill="#494949"/>
<path d="M1810.36 137.522C1817.75 145.076 1823.58 153.566 1830.49 160.797C1857.62 189.302 1882.68 217.499 1905.67 245.388C1930.59 275.605 1955.23 309.052 1979.57 345.73C1979.87 346.197 1980.02 346.736 1980 347.274L1979.95 348.055C1979.94 348.306 1979.85 348.549 1979.71 348.754C1979.56 348.959 1979.36 349.116 1979.12 349.206C1978.89 349.297 1978.63 349.316 1978.38 349.263C1978.14 349.209 1977.91 349.084 1977.74 348.905C1967.89 338.909 1962.25 333.119 1960.84 331.533C1932.16 299.66 1898.7 258.38 1860.46 207.695C1835.57 174.723 1818.42 151.689 1808.99 138.591C1808.97 138.569 1808.96 138.543 1808.96 138.517C1808.96 138.491 1808.96 138.468 1808.98 138.451L1809.67 137.57C1809.7 137.519 1809.75 137.476 1809.81 137.445C1809.87 137.414 1809.93 137.396 1810 137.392C1810.06 137.387 1810.13 137.396 1810.19 137.419C1810.26 137.441 1810.31 137.476 1810.36 137.522Z" fill="#494949"/>
<path d="M805.032 165.812C803.944 166.708 801.644 165.392 798.133 161.864C786.665 150.279 776.053 139.24 766.298 128.745C740.677 101.141 717.455 71.4352 696.632 39.6266C693.33 34.5776 692.039 31.7491 692.76 31.1408C693.497 30.5341 696.045 32.3055 700.405 36.4552C727.946 62.673 752.985 90.8753 775.521 121.062C784.088 132.536 793.033 144.963 802.356 158.343C805.213 162.425 806.105 164.914 805.032 165.812Z" fill="#494949"/>
<path d="M1768.01 143.598C1772.77 147.416 1777.92 152.528 1783.44 158.932C1790.94 167.606 1801.54 179.223 1815.25 193.781C1841.7 221.874 1873.47 266.657 1893.55 289.696C1898.63 295.502 1903.76 302.015 1908.95 309.233C1918.18 322.027 1928.4 334.2 1937.67 348.476C1943.29 357.13 1951.02 367.237 1951.05 371.053C1951.05 371.375 1950.97 371.691 1950.8 371.964C1950.62 372.236 1950.38 372.454 1950.09 372.591C1949.79 372.728 1949.46 372.779 1949.14 372.737C1948.82 372.696 1948.51 372.563 1948.26 372.356C1943.39 368.249 1938.8 363.654 1934.5 358.57C1890.96 307.11 1863.41 273.573 1851.85 257.959C1831.65 230.702 1810.54 205.436 1792.77 179.869C1788.12 173.165 1779.53 161.381 1767.02 144.519C1766.91 144.389 1766.85 144.224 1766.86 144.057C1766.87 143.89 1766.95 143.733 1767.07 143.617C1767.2 143.5 1767.36 143.434 1767.54 143.431C1767.71 143.427 1767.88 143.487 1768.01 143.598Z" fill="#494949"/>
<path d="M1722.25 147.381C1724.37 148.726 1726.14 150.215 1727.57 151.848C1732.55 157.552 1739.75 165.75 1749.16 176.443C1757.67 186.14 1770.39 196.381 1777.66 205.519C1797.78 230.735 1818.26 251.548 1837.1 275.901C1867.45 315.115 1896.54 352.199 1923.51 393.075C1923.67 393.311 1923.77 393.58 1923.81 393.862C1923.84 394.143 1923.81 394.429 1923.71 394.696C1923.62 394.963 1923.46 395.204 1923.26 395.4C1923.05 395.595 1922.8 395.74 1922.53 395.823C1920.94 396.332 1919.48 395.913 1918.15 394.567C1913.02 389.389 1908.95 385.136 1905.93 381.809C1876.99 349.986 1857.06 327.277 1846.14 313.681C1820.56 281.768 1808.23 267.38 1788.83 240.385C1777.86 225.12 1760.67 202.044 1737.26 171.156C1736.26 169.843 1730.95 162.242 1721.32 148.355C1721.24 148.225 1721.2 148.07 1721.21 147.915C1721.22 147.76 1721.29 147.614 1721.4 147.501C1721.51 147.389 1721.65 147.315 1721.8 147.294C1721.96 147.272 1722.11 147.303 1722.25 147.381Z" fill="#494949"/>
<path d="M662.356 49.7261C662.27 49.5362 662.254 49.3224 662.308 49.1214C662.363 48.9204 662.486 48.7447 662.656 48.6245C662.826 48.5043 663.033 48.447 663.241 48.4625C663.448 48.4781 663.644 48.5654 663.795 48.7096C693.561 77.5766 719.71 107.997 742.243 139.971C744.588 143.294 746.131 146.856 746.873 150.656C746.899 150.793 746.889 150.934 746.844 151.066C746.799 151.198 746.72 151.316 746.615 151.409C746.511 151.501 746.384 151.565 746.248 151.594C746.111 151.622 745.97 151.615 745.837 151.573C743.507 150.808 741.776 149.832 740.643 148.644C734.235 141.77 722.231 128.316 704.63 108.281C693.7 95.8318 687.399 87.1345 675.589 71.5958C669.832 64.0449 665.421 56.755 662.356 49.7261Z" fill="#494949"/>
<path d="M1679.45 153.833C1682.03 155.161 1684.2 156.734 1685.95 158.551C1689.33 162.114 1703.91 177.927 1729.69 205.993C1737.13 214.107 1743.47 221.445 1748.71 228.006C1756.69 237.998 1764.75 245.918 1773.92 256.764C1786.87 272.082 1799.71 287.358 1812.43 302.591C1840.18 335.855 1857.99 358.251 1865.84 369.779C1866.92 371.363 1877.67 387.083 1898.08 416.942C1898.58 417.668 1898.84 418.071 1898.88 418.152C1899.07 418.565 1899.13 419.028 1899.03 419.473C1898.94 419.918 1898.71 420.322 1898.37 420.623C1898.03 420.925 1897.6 421.109 1897.14 421.148C1896.69 421.187 1896.24 421.079 1895.85 420.84C1893.62 419.5 1891.75 418.087 1890.23 416.6C1883.19 409.756 1874.23 400.787 1863.36 389.692C1852.76 378.846 1843.61 365.436 1834.91 354.843C1814.06 329.488 1789.54 300.011 1770.48 274.666C1757.49 257.419 1743.79 243.292 1730.42 225.453C1703.82 189.974 1686.5 166.477 1678.46 154.962C1678.37 154.82 1678.33 154.652 1678.34 154.483C1678.35 154.315 1678.42 154.155 1678.53 154.028C1678.64 153.901 1678.79 153.814 1678.96 153.778C1679.12 153.743 1679.29 153.762 1679.45 153.833Z" fill="#494949"/>
<path d="M1634.33 157.806C1634.64 158.021 1634.89 158.23 1635.07 158.432C1658.92 183.215 1683.5 209.725 1708.83 237.963C1752.25 286.367 1782.33 325.001 1827.41 380.523C1843.07 399.807 1855.84 419.461 1867.26 438.15C1868.71 440.509 1869.62 442.569 1869.99 444.33C1870.04 444.544 1870.02 444.769 1869.94 444.972C1869.85 445.174 1869.7 445.345 1869.51 445.458C1869.32 445.571 1869.11 445.621 1868.89 445.601C1868.67 445.581 1868.46 445.491 1868.3 445.345C1853.54 432.334 1839.03 417.366 1824.75 400.441C1804.44 376.386 1787.9 357.063 1775.14 342.472C1759.55 324.65 1749.87 308.855 1734.55 289.858C1712.82 262.906 1687.21 230.412 1657.75 192.377C1655.68 189.696 1647.72 178.327 1633.86 158.269C1633.8 158.208 1633.77 158.125 1633.77 158.039C1633.77 157.952 1633.8 157.869 1633.86 157.807C1633.92 157.746 1634.01 157.711 1634.09 157.711C1634.18 157.71 1634.26 157.744 1634.33 157.806Z" fill="#494949"/>
<path d="M668.687 100.82C650.581 78.684 634.277 62.0698 632.271 63.7107C630.265 65.3516 643.317 84.6262 661.423 106.762C679.529 128.897 695.833 145.512 697.839 143.871C699.845 142.23 686.794 122.955 668.687 100.82Z" fill="#494949"/>
<path d="M1117.97 350.847C1117.16 350.6 1116.49 350.149 1115.95 349.497C1100.58 331.118 1081.73 311.11 1066.66 292.737C1031.18 249.467 1008.95 220.974 975.479 180.879C963.658 166.734 947.766 147.273 927.804 122.496C923.595 117.267 917.921 108.614 910.783 96.5392C910.602 96.2348 910.515 95.8805 910.535 95.5215L910.582 94.5554C910.597 94.2974 910.684 94.0487 910.833 93.8378C910.983 93.6268 911.189 93.4621 911.427 93.3623C911.665 93.2625 911.927 93.2316 912.182 93.2733C912.437 93.3149 912.676 93.4274 912.87 93.5978C925.938 105.445 939.513 123.534 949.136 134.448C967.67 155.497 984.732 176.327 1000.32 196.937C1005.92 204.334 1019.36 220.592 1040.63 245.711C1049.8 256.535 1060.87 270.693 1073.85 288.185C1092.74 313.675 1103.54 328.084 1106.26 331.412C1108.79 334.508 1112.99 340.598 1118.84 349.684C1118.92 349.817 1118.96 349.973 1118.96 350.13C1118.95 350.287 1118.89 350.438 1118.8 350.563C1118.71 350.689 1118.58 350.783 1118.43 350.834C1118.28 350.884 1118.12 350.889 1117.97 350.847Z" fill="#494949"/>
<path d="M1592.48 160.099C1593.84 162.403 1594.78 163.865 1595.29 164.485C1604.12 175.336 1628.61 202.855 1668.78 247.039C1673.71 252.461 1682.63 262.86 1695.55 278.237C1698.37 281.59 1707.42 292.187 1722.71 310.025C1750.14 342.01 1780.03 378.9 1812.36 420.696C1825.72 437.955 1836.55 454.74 1846.51 472.294C1846.56 472.4 1846.6 472.517 1846.6 472.637C1846.61 472.757 1846.59 472.876 1846.54 472.987C1846.49 473.098 1846.42 473.197 1846.33 473.277C1846.25 473.357 1846.14 473.416 1846.02 473.45C1845.49 473.598 1844.98 473.472 1844.51 473.072C1826.31 457.325 1809.72 440.131 1794.75 421.49C1767.92 388.084 1743.86 358.929 1722.59 334.025C1701.03 308.832 1677.36 278.975 1663.47 260.624C1644.22 235.192 1632.96 222.11 1617.69 199.766C1608.54 186.387 1601.47 176.259 1596.48 169.383C1593.32 165.057 1591.64 162.09 1591.42 160.483C1591.41 160.353 1591.43 160.222 1591.5 160.111C1591.57 160 1591.67 159.915 1591.8 159.871C1591.92 159.826 1592.05 159.824 1592.18 159.866C1592.3 159.907 1592.41 159.99 1592.48 160.099Z" fill="#494949"/>
<path d="M1815.34 493.205C1813.73 494.529 1802.89 484.422 1782.82 462.885C1762.74 441.364 1747.88 424.475 1738.23 412.219C1723.84 393.958 1706.89 374.687 1690.55 354.204C1666.71 324.384 1630.84 278.604 1582.92 216.862C1555.57 181.634 1542.3 163.689 1543.11 163.027C1543.91 162.365 1558.99 178.813 1588.35 212.371C1639.84 271.177 1677.95 315.117 1702.68 344.19C1719.67 364.159 1735.37 384.464 1750.54 402.06C1760.74 413.877 1774.49 431.691 1791.81 455.503C1809.1 479.298 1816.95 491.866 1815.34 493.205Z" fill="#494949"/>
<path d="M602.222 80.705C602.719 80.3523 603.216 80.3926 603.713 80.8259C607.938 84.4541 615.556 92.2001 626.566 104.064C634.715 112.847 641.439 121.709 646.738 130.648C647.282 131.564 647.556 132.545 647.563 133.594C647.57 133.968 647.465 134.336 647.26 134.649C647.055 134.962 646.761 135.207 646.415 135.35C646.07 135.494 645.689 135.53 645.323 135.455C644.956 135.379 644.621 135.194 644.361 134.925L617.154 106.76C616.846 106.454 616.577 106.102 616.354 105.712L602.015 81.6556C601.928 81.499 601.901 81.3161 601.939 81.1411C601.977 80.9661 602.078 80.8111 602.222 80.705Z" fill="#494949"/>
<path d="M1501.88 167.756L1502.4 167.459C1502.44 167.431 1502.5 167.421 1502.55 167.43C1502.61 167.44 1502.66 167.469 1502.69 167.511C1522.88 191.401 1546.14 218.029 1572.49 247.398C1596.83 274.524 1612.2 291.962 1618.6 299.714C1637.35 322.348 1656.18 342.725 1678.47 370.115C1703.28 400.591 1731.4 433.235 1750.56 459.699C1763.52 477.59 1775.85 495.274 1787.55 512.751C1788.52 514.2 1789.03 515.628 1789.07 517.035C1789.09 517.367 1789 517.694 1788.82 517.974C1788.64 518.255 1788.38 518.476 1788.08 518.608C1787.78 518.741 1787.44 518.779 1787.11 518.717C1786.79 518.656 1786.49 518.498 1786.25 518.265C1747.46 480.437 1711.05 440.552 1677.04 398.61C1658.41 375.664 1642.06 351.598 1623.87 330.036C1608.69 312.069 1588.67 284.621 1577.02 269.837C1544.82 228.871 1519.69 195.191 1501.64 168.796C1501.59 168.716 1501.55 168.624 1501.53 168.527C1501.51 168.43 1501.51 168.329 1501.53 168.231C1501.56 168.133 1501.6 168.041 1501.66 167.959C1501.72 167.877 1501.8 167.808 1501.88 167.756Z" fill="#494949"/>
<path d="M1763.54 544.613C1763.59 544.73 1763.6 544.862 1763.57 544.985C1763.53 545.108 1763.45 545.214 1763.34 545.283C1763.23 545.351 1763.1 545.378 1762.98 545.358C1762.85 545.339 1762.73 545.273 1762.65 545.175C1757.77 540.004 1751.4 533.711 1743.51 526.294C1735.61 518.843 1730.35 513.551 1727.74 510.418C1704.65 482.651 1679.92 455.418 1658.74 428.736C1636.14 400.231 1623.05 384.314 1602.56 358.923C1594.26 348.646 1587.57 339.873 1582.5 332.604C1574.01 320.437 1564.82 311.253 1554.75 298.286C1528.24 264.132 1508.05 239.395 1486.3 209.955C1480.1 201.575 1470.38 188.727 1457.14 171.409C1457.13 171.395 1457.13 171.378 1457.13 171.362C1457.13 171.345 1457.14 171.329 1457.15 171.317L1457.94 170.562C1457.98 170.524 1458.03 170.494 1458.08 170.475C1458.13 170.456 1458.19 170.448 1458.25 170.451C1458.3 170.455 1458.36 170.469 1458.41 170.494C1458.46 170.519 1458.5 170.554 1458.54 170.596C1479.81 196.147 1492.44 211.079 1496.41 215.391C1519.73 240.647 1544.99 269.179 1572.19 300.987C1585.32 316.322 1596.1 328.68 1604.55 338.062C1614.05 348.625 1624.33 360.834 1635.38 374.689C1637.63 377.51 1650.46 392.732 1673.88 420.354C1686.49 435.231 1697.69 450.41 1709.88 465.43C1713.15 469.46 1717.54 475.6 1723.05 483.85C1737.5 505.522 1749.45 522.862 1758.91 535.869C1760.62 538.222 1762.16 541.137 1763.54 544.613Z" fill="#494949"/>
<path d="M571.752 99.1621C571.75 99.1584 571.749 99.1544 571.75 99.1504C571.75 99.1463 571.752 99.1425 571.754 99.1392C572.158 98.8061 572.809 98.7867 573.67 99.0822C574.532 99.3777 575.587 99.9821 576.775 100.861C577.963 101.74 579.26 102.876 580.594 104.204C581.927 105.533 583.269 107.027 584.544 108.602L589.436 114.667C592.007 117.845 594.146 121.156 595.383 123.871C596.621 126.587 596.854 128.485 596.033 129.148C596.032 129.154 596.029 129.159 596.025 129.163C596.02 129.167 596.014 129.169 596.008 129.168C596.002 129.168 595.996 129.165 595.992 129.16C595.988 129.155 595.986 129.149 595.987 129.143L571.752 99.1621Z" fill="#494949"/>
<path d="M1733.63 565.692C1733.64 565.847 1733.61 566.002 1733.53 566.138C1733.46 566.274 1733.34 566.385 1733.21 566.456C1733.07 566.527 1732.91 566.555 1732.76 566.537C1732.6 566.518 1732.46 566.455 1732.34 566.353C1710.68 546.882 1690.6 525.93 1672.11 503.498C1654.44 482.101 1642.25 467.866 1622.8 444.772C1615.39 435.999 1607.55 425.574 1599.29 413.498C1586.91 395.431 1572.91 376.43 1557.31 356.496C1519.23 307.798 1473.92 250.283 1421.38 183.949C1421.26 183.811 1421.2 183.633 1421.22 183.453C1421.23 183.273 1421.31 183.105 1421.45 182.985L1421.47 182.965C1421.62 182.834 1421.82 182.764 1422.02 182.77C1422.21 182.776 1422.4 182.858 1422.53 182.998C1432.88 193.865 1443.03 207.233 1452.02 217.23C1459.69 225.736 1472.81 240.7 1491.38 262.123C1497.82 269.539 1502.7 275.434 1506.04 279.809C1512.38 288.117 1519.49 295.367 1526.51 303.764C1559.73 343.349 1578.99 366.171 1584.31 372.231C1613.7 405.746 1635.13 430.911 1648.61 447.728C1658.66 460.254 1666.59 469.802 1672.39 476.371C1695.28 502.34 1718.16 534.386 1732.05 561.01C1732.92 562.681 1733.44 564.242 1733.63 565.692Z" fill="#494949"/>
<path d="M1090.29 369.262C1090.35 369.456 1090.34 369.663 1090.26 369.851C1090.19 370.039 1090.05 370.197 1089.88 370.301C1089.71 370.406 1089.51 370.45 1089.31 370.428C1089.1 370.405 1088.92 370.318 1088.77 370.178C1072.32 352.92 1055.33 333.945 1037.79 313.254C1021.11 293.594 995.332 260.644 974.661 235.398C956.522 213.278 945.011 198.785 940.128 191.92C933.43 182.475 924.937 170.862 914.652 157.081C909.454 150.123 905.337 143.139 902.301 136.128C902.18 135.87 902.157 135.575 902.238 135.301C902.318 135.026 902.496 134.791 902.737 134.638C902.979 134.485 903.268 134.426 903.551 134.472C903.833 134.518 904.089 134.665 904.27 134.886C912.051 143.818 919.449 150.727 926.737 160.213C939.778 177.203 954.078 194.885 969.635 213.258C983.935 230.139 994.937 243.682 1002.64 253.886C1015.42 270.859 1031.26 288.011 1046.68 308.036C1064.49 331.172 1078.22 350.008 1087.88 364.546C1089.01 366.242 1089.82 367.814 1090.29 369.262Z" fill="#494949"/>
<path d="M1367.92 215.595C1365.91 213.419 1364.01 211.907 1363.67 212.217C1363.34 212.527 1364.69 214.542 1366.7 216.718C1368.71 218.894 1370.6 220.407 1370.94 220.097C1371.28 219.787 1369.92 217.771 1367.92 215.595Z" fill="#494949"/>
<path d="M1067.85 395.016C1067.92 395.145 1067.94 395.293 1067.91 395.434C1067.88 395.576 1067.81 395.704 1067.7 395.798C1067.58 395.891 1067.45 395.944 1067.3 395.949C1067.16 395.954 1067.01 395.911 1066.9 395.825C1057.31 388.105 1051.94 380.144 1040.65 367.821C1017.9 342.953 995.147 314.663 959.689 271.904C948.028 257.851 936.679 243.196 925.643 227.94C909.073 205.047 898.382 189.879 893.571 182.435C892.471 180.741 891.947 179.227 891.999 177.892C892.006 177.698 892.071 177.51 892.185 177.353C892.298 177.195 892.456 177.075 892.637 177.006C892.819 176.937 893.016 176.924 893.206 176.967C893.395 177.009 893.568 177.107 893.702 177.248C907.288 191.872 921.17 205.577 933.436 220.951C950.218 241.962 968.631 262.599 984.923 285.088C991.266 293.835 1003.27 306.135 1012.09 318.449C1018.4 327.256 1026.62 337.74 1036.74 349.903C1040.34 354.257 1047.24 364.198 1057.43 379.727C1060.83 384.909 1064.68 389.325 1067.85 395.016Z" fill="#494949"/>
<path d="M1709.91 588.637C1709.97 588.918 1709.95 589.211 1709.83 589.476C1709.72 589.74 1709.52 589.961 1709.27 590.106C1709.03 590.252 1708.74 590.315 1708.45 590.287C1708.16 590.258 1707.89 590.139 1707.68 589.947C1694.86 578.655 1684.28 569.29 1672.2 555.552C1645.54 525.197 1624.92 500.943 1610.36 482.789C1583.22 448.944 1565.87 428.063 1544.36 398.785C1527.85 376.267 1508.79 351.947 1487.19 325.825C1478.44 315.259 1470.36 304.842 1462.96 294.574C1449.79 276.324 1441.82 265.501 1439.06 262.106C1432.59 254.132 1428.62 246.677 1422.28 238.646C1421.17 237.244 1419.78 233.875 1418.29 231.65C1418.26 231.609 1418.25 231.56 1418.26 231.513C1418.27 231.465 1418.29 231.421 1418.33 231.389C1418.36 231.357 1418.41 231.338 1418.46 231.336C1418.5 231.335 1418.55 231.35 1418.59 231.379L1419.66 232.291C1419.77 232.394 1419.87 232.497 1419.95 232.597C1432.21 247.001 1439.25 255.345 1441.06 257.631C1447.8 266.17 1454.6 273.954 1461.47 280.98C1470.79 290.501 1479.29 302.784 1488.58 312.625C1505.5 330.552 1520.96 350.35 1538.21 370.643C1557.75 393.631 1574 413.25 1592.07 433.576C1602.77 445.61 1612.54 459.473 1622.46 471.431C1653.82 509.242 1684.31 548.147 1707.83 584.368C1708.99 586.176 1709.69 587.599 1709.91 588.637Z" fill="#494949"/>
<path d="M1358.58 257.808C1347.26 243.765 1337.48 232.865 1336.74 233.463C1336 234.062 1344.57 245.931 1355.9 259.974C1367.22 274.017 1377 284.917 1377.75 284.318C1378.49 283.72 1369.91 271.851 1358.58 257.808Z" fill="#494949"/>
<path d="M1383.13 344.385C1383.2 344.463 1383.23 344.566 1383.22 344.672C1383.22 344.779 1383.17 344.881 1383.09 344.959C1383.02 345.022 1382.93 345.059 1382.84 345.063C1382.75 345.067 1382.67 345.038 1382.61 344.982C1375.74 339.049 1370.4 333.634 1366.59 328.736C1353.84 312.367 1330.07 285.713 1313.58 261.679C1313.4 261.407 1313.32 261.073 1313.37 260.746C1313.43 260.42 1313.6 260.127 1313.87 259.927L1313.92 259.886C1314.09 259.758 1314.3 259.698 1314.51 259.719C1314.72 259.739 1314.92 259.838 1315.06 259.997C1318.42 263.68 1323.56 269.384 1330.49 277.109C1337.47 284.902 1342.24 290.517 1344.81 293.953C1354.03 306.307 1363.26 318.654 1372.5 330.994C1375.66 335.228 1379.21 339.692 1383.13 344.385Z" fill="#494949"/>
<path d="M1041.12 416.404L1041.09 416.448C1040.87 416.636 1040.58 416.731 1040.28 416.716C1039.99 416.7 1039.71 416.575 1039.51 416.364C1011.95 387.742 996.446 371.199 992.995 366.736C974.188 342.441 954.796 318.305 934.819 294.327C928.172 286.336 921.711 276.907 914.708 268.304C904.317 255.537 896.158 242.87 888.055 229.376C887.539 228.494 885.424 225.748 881.71 221.137C881.44 220.805 881.3 220.388 881.315 219.964C881.331 219.539 881.501 219.137 881.794 218.834L881.869 218.772C882.016 218.619 882.192 218.498 882.387 218.416C882.582 218.334 882.792 218.292 883.003 218.293C883.215 218.294 883.424 218.338 883.618 218.422C883.813 218.506 883.988 218.629 884.133 218.783C894.669 229.969 900.791 236.692 902.498 238.953C908.124 246.429 914.549 254.322 921.773 262.631C941.679 285.515 963.096 311.411 979.945 332.451C998.902 356.145 1019.35 383.696 1041.29 415.104C1041.43 415.3 1041.49 415.541 1041.46 415.781C1041.43 416.022 1041.3 416.244 1041.12 416.404Z" fill="#494949"/>
<path d="M1415.94 284.617C1415.89 284.524 1415.88 284.418 1415.91 284.316C1415.93 284.215 1415.99 284.126 1416.07 284.064C1416.16 284.002 1416.26 283.973 1416.36 283.981C1416.47 283.988 1416.56 284.033 1416.64 284.106C1441.06 310.917 1460.61 335.107 1486.74 366.519C1507.52 391.498 1520.65 407.026 1526.15 413.104C1536.48 424.547 1549.86 439.821 1566.28 458.926C1573.39 467.192 1580.33 476.622 1587.53 484.689C1601.06 499.816 1610.85 511.246 1616.89 518.979C1620.44 523.544 1635.54 543.983 1662.18 580.298C1665.02 584.147 1668.23 588.293 1671.82 592.738C1677.5 599.735 1682.28 604.519 1683.7 609.44C1683.82 609.815 1683.81 610.216 1683.67 610.584C1683.54 610.952 1683.29 611.269 1682.96 611.487C1682.64 611.705 1682.25 611.814 1681.85 611.798C1681.46 611.782 1681.07 611.642 1680.76 611.397C1661.33 595.838 1643.74 578.841 1628.01 560.404C1605.97 534.61 1588.83 514.319 1576.57 499.531C1559.07 478.381 1543.38 453.454 1526.07 432.832C1514.46 418.953 1504.98 406.983 1497.65 396.923C1487.99 383.695 1473.52 365.257 1454.23 341.608C1450.9 337.527 1442.43 324.599 1428.84 302.825C1424.77 296.332 1419.33 290.444 1415.94 284.617Z" fill="#494949"/>
<path d="M1336.03 340.968C1349.91 358.856 1364 377.088 1378.31 395.664C1380.86 398.961 1383.07 402.171 1384.94 405.294C1385.05 405.434 1385.1 405.611 1385.07 405.786C1385.05 405.962 1384.96 406.122 1384.82 406.231C1384.68 406.34 1384.51 406.389 1384.33 406.368C1384.16 406.347 1384 406.257 1383.89 406.117C1364.7 386.307 1347.34 365.98 1331.15 345.096C1317.29 327.209 1303.19 308.977 1288.87 290.4C1286.33 287.103 1284.12 283.893 1282.25 280.77C1282.14 280.627 1282.09 280.448 1282.11 280.27C1282.14 280.093 1282.23 279.932 1282.37 279.823C1282.52 279.714 1282.69 279.666 1282.87 279.69C1283.05 279.713 1283.21 279.807 1283.32 279.949C1302.48 299.757 1319.84 320.084 1336.03 340.968Z" fill="#494949"/>
<path d="M1386.97 466.172C1385.8 467.122 1373.71 454.136 1350.69 427.215C1340.03 414.753 1328.78 400.894 1316.94 385.638C1273.34 329.459 1252.09 300.929 1253.2 300.05C1254.28 299.169 1277.63 326.013 1323.23 380.584C1335.6 395.399 1346.74 409.34 1356.65 422.407C1378.05 450.635 1388.16 465.223 1386.97 466.172Z" fill="#494949"/>
<path d="M1010.8 435.917C1004.85 431.583 999.67 426.961 995.245 422.05C959.582 382.614 925.699 340.146 893.596 294.645C886.763 284.995 881.17 274.956 873.462 264.551C873.363 264.425 873.314 264.268 873.324 264.109C873.334 263.951 873.402 263.801 873.517 263.686C873.631 263.572 873.783 263.501 873.947 263.486C874.11 263.47 874.274 263.512 874.409 263.603C877.667 265.921 880.693 268.647 883.487 271.783C886.919 275.643 900.141 291.248 923.151 318.6C932.494 329.702 941.337 340.632 949.68 351.391C964.827 370.903 979.863 388.464 993.736 408.246C1002.88 421.27 1008.45 429.258 1010.46 432.21C1011.06 433.084 1011.45 434.154 1011.63 435.42C1011.65 435.522 1011.63 435.626 1011.58 435.719C1011.54 435.811 1011.47 435.889 1011.38 435.942C1011.29 435.995 1011.19 436.02 1011.09 436.016C1010.98 436.012 1010.88 435.977 1010.8 435.917Z" fill="#494949"/>
<path d="M1417.82 342.298C1418.92 342.836 1419.88 343.56 1420.7 344.472C1447.98 375.024 1478.86 411.163 1513.35 452.889C1521.33 462.565 1528.51 470.932 1534.89 477.988C1544.1 488.183 1551.23 496.483 1556.26 502.886C1575.86 527.735 1593.12 549.239 1608.04 567.396C1620.54 582.625 1628.91 593.701 1633.14 600.627C1640.74 613.04 1647.58 625.095 1653.68 636.792C1653.99 637.392 1654.05 637.991 1653.85 638.588C1653.81 638.719 1653.73 638.836 1653.63 638.929C1653.53 639.022 1653.4 639.088 1653.27 639.121C1653.13 639.154 1652.99 639.152 1652.86 639.117C1652.73 639.082 1652.6 639.015 1652.5 638.92C1630.85 617.57 1610.74 595.629 1592.17 573.097C1582.26 561.047 1571.36 549.524 1560.67 535.481C1543.9 513.431 1522.24 485.686 1495.68 452.245C1485.62 439.563 1475.38 425.949 1464.99 411.402C1452.15 393.445 1442.21 379.273 1435.17 368.887C1434.7 368.194 1428.73 359.545 1417.27 342.938C1417.22 342.859 1417.19 342.764 1417.19 342.669C1417.2 342.574 1417.24 342.483 1417.3 342.41C1417.36 342.337 1417.45 342.287 1417.54 342.267C1417.63 342.246 1417.73 342.257 1417.82 342.298Z" fill="#494949"/>
<path d="M1227.52 325.969C1229.2 326.794 1230.97 328.259 1232.85 330.366C1235.94 333.823 1243.63 342.555 1255.93 356.561C1269.69 372.242 1286.27 393.35 1299.86 408.736C1309.84 420.069 1316.58 428.077 1320.07 432.759C1327.72 443.042 1335.05 449.482 1342.26 459.746C1345.13 463.829 1349.99 470.053 1356.84 478.418C1368.95 493.224 1379.89 509.44 1390.82 523.993C1390.87 524.05 1390.9 524.116 1390.92 524.186C1390.93 524.256 1390.94 524.329 1390.92 524.4C1390.91 524.471 1390.88 524.538 1390.84 524.597C1390.8 524.656 1390.74 524.706 1390.68 524.742L1389.55 525.419C1389.52 525.43 1389.49 525.434 1389.47 525.431C1389.44 525.429 1389.41 525.419 1389.39 525.403C1363.07 498.672 1338.73 470.529 1316.36 440.975C1295.3 413.125 1271.07 385.687 1250.08 357.036C1239.12 342.081 1231.45 331.911 1227.07 326.527C1227.02 326.461 1227 326.381 1227 326.299C1227 326.217 1227.03 326.137 1227.08 326.073C1227.13 326.009 1227.2 325.964 1227.28 325.945C1227.36 325.926 1227.45 325.935 1227.52 325.969Z" fill="#494949"/>
<path d="M987.345 459.071C985.744 460.334 977.237 451.985 961.824 434.026C930.461 397.456 901.063 359.349 873.632 319.707C867.103 310.264 864.131 305.301 864.717 304.818C865.317 304.352 869.482 308.368 877.212 316.864C909.65 352.522 940.148 389.756 968.707 428.567C982.719 447.639 988.931 457.807 987.345 459.071Z" fill="#494949"/>
<path d="M1391.11 586.584C1388.2 584.485 1384.16 580.351 1379 574.182C1368.78 562.041 1359.22 551.049 1350.31 541.206C1341.1 531.04 1329.78 517.052 1316.37 499.24C1305.89 485.301 1294.76 471.161 1282.99 456.82C1264.83 434.706 1239.84 402.756 1220.77 377.942C1212.61 367.34 1204.9 355.641 1197.65 342.846C1197.6 342.777 1197.58 342.693 1197.59 342.61C1197.6 342.527 1197.64 342.451 1197.7 342.395C1197.77 342.338 1197.85 342.307 1197.93 342.305C1198.01 342.304 1198.09 342.332 1198.16 342.386C1205.73 348.017 1215.3 362.808 1224.09 372.762C1234.31 384.304 1244.55 395.847 1254.81 407.391C1255.73 408.404 1259.1 412.528 1264.94 419.763C1292.8 454.331 1313.72 480.133 1327.71 497.169C1335.81 507.026 1343.92 517.647 1352.04 529.032C1369.1 552.912 1377.65 564.892 1377.67 564.971C1378 565.959 1380.13 569.068 1384.05 574.3C1389.37 581.423 1392.07 585.312 1392.14 585.967C1392.16 586.095 1392.15 586.226 1392.09 586.344C1392.04 586.462 1391.95 586.561 1391.84 586.628C1391.73 586.695 1391.6 586.726 1391.47 586.718C1391.34 586.71 1391.21 586.663 1391.11 586.584Z" fill="#494949"/>
<path d="M1393.51 645.353C1393.5 645.499 1393.44 645.639 1393.35 645.757C1393.26 645.874 1393.14 645.964 1393.01 646.016C1392.87 646.067 1392.72 646.079 1392.57 646.05C1392.43 646.021 1392.3 645.951 1392.19 645.849C1372.44 626.562 1353.59 605.452 1335.63 582.517C1307.7 546.817 1287.45 522.884 1254.33 481.389C1244.72 469.337 1235.24 456.898 1225.9 444.07C1208.98 420.835 1199.62 408.283 1197.83 406.415C1193.77 402.156 1188.86 395.681 1183.09 386.989C1179.62 381.769 1174.58 375.282 1167.98 367.526C1167.9 367.431 1167.86 367.309 1167.87 367.185C1167.88 367.061 1167.93 366.944 1168.03 366.86L1168.61 366.293C1168.67 366.235 1168.73 366.189 1168.81 366.159C1168.88 366.128 1168.96 366.113 1169.05 366.114C1169.13 366.116 1169.21 366.134 1169.29 366.167C1169.36 366.2 1169.43 366.248 1169.49 366.308C1177.34 374.23 1183.83 381.444 1188.96 387.948C1199.44 401.232 1212.87 413.854 1222.79 426.46C1233.53 440.085 1249.85 459.733 1271.76 485.407C1284.52 500.368 1296.33 517.34 1309.38 532.79C1326.91 553.541 1342.42 573.189 1355.91 591.733C1357.23 593.555 1358.53 595.306 1359.82 596.987C1372.27 613.381 1383.41 629.309 1393.24 644.772C1393.43 645.068 1393.52 645.261 1393.51 645.353Z" fill="#494949"/>
<path d="M1422.9 402.598L1423.46 402.282C1423.56 402.221 1423.67 402.193 1423.78 402.204C1423.9 402.215 1424 402.264 1424.08 402.342C1431.99 410.348 1439.78 419.197 1447.44 428.888C1452.94 435.821 1461.65 444.543 1468.22 452.781C1486.49 475.623 1500.28 492.385 1509.59 503.067C1532.74 529.616 1542.63 542.358 1566.15 570.906C1582.81 591.189 1597.94 612.064 1615.58 634.521C1621.76 642.374 1627.88 649.737 1629.65 658.459C1629.78 659.103 1629.53 659.58 1628.91 659.89C1628.36 660.16 1627.83 660.07 1627.3 659.618C1611.9 645.99 1596.29 631 1580.45 614.65C1570.24 604.111 1554.23 584.368 1532.42 555.423C1521.4 540.815 1513.38 531.259 1505.43 519.559C1497.33 507.638 1483.82 492.952 1475.98 481.772C1459.18 457.839 1448.43 442.735 1443.75 436.459C1437.13 427.545 1430.31 414.915 1422.58 404.185C1422.49 404.06 1422.43 403.919 1422.4 403.769C1422.36 403.619 1422.36 403.464 1422.39 403.314C1422.42 403.165 1422.48 403.024 1422.57 402.901C1422.66 402.777 1422.77 402.674 1422.9 402.598Z" fill="#494949"/>
<path d="M912.922 411.949C883.591 375.183 858.196 346.67 856.2 348.263C854.204 349.855 876.363 380.95 905.693 417.716C935.024 454.481 960.419 482.994 962.415 481.402C964.411 479.809 942.252 448.714 912.922 411.949Z" fill="#494949"/>
<path d="M1138.66 387.07L1139.09 386.65C1139.15 386.595 1139.22 386.566 1139.31 386.57C1139.39 386.574 1139.47 386.609 1139.53 386.669C1157.86 406.436 1184.37 436.86 1219.06 477.943C1253.21 518.404 1292.96 568.187 1321.58 603.514C1327.86 611.269 1333.01 618.022 1337.05 623.774C1343.59 633.095 1349.97 640.229 1357.69 650.796C1371.78 670.138 1384.17 686.656 1394.84 700.352C1396.46 702.419 1397.84 704.394 1398.99 706.276C1399.09 706.468 1399.13 706.692 1399.09 706.909C1399.06 707.127 1398.95 707.325 1398.78 707.471C1398.62 707.617 1398.41 707.702 1398.19 707.712C1397.97 707.722 1397.75 707.656 1397.57 707.526C1390.14 701.655 1380.38 692.461 1373.9 684.902C1361.7 670.69 1351.54 660.14 1339.79 645.578C1284.27 576.769 1249.61 533.509 1235.81 515.798C1214.77 488.83 1199.46 470.572 1180.96 445.79C1167.63 427.925 1153.49 408.864 1138.53 388.607C1138.36 388.379 1138.28 388.098 1138.31 387.815C1138.33 387.533 1138.45 387.268 1138.66 387.07Z" fill="#494949"/>
<path d="M1402.69 772.604C1402.76 772.755 1402.78 772.926 1402.73 773.087C1402.69 773.248 1402.59 773.389 1402.46 773.486C1402.32 773.583 1402.16 773.629 1401.99 773.616C1401.83 773.604 1401.67 773.534 1401.55 773.418C1388.96 760.569 1379.37 750.576 1372.78 743.439C1363.98 733.899 1354.31 722.442 1343.77 709.067C1323.53 683.424 1298.5 655.26 1281.67 634.037C1255.93 601.63 1232.52 572.453 1211.46 546.506C1197.25 529.003 1184.8 511.253 1170.61 493.012C1151.2 468.073 1134.76 443.328 1110.99 409.74C1110.93 409.654 1110.89 409.557 1110.87 409.454C1110.85 409.351 1110.85 409.246 1110.87 409.144C1110.9 409.042 1110.94 408.946 1111 408.862C1111.06 408.777 1111.14 408.707 1111.23 408.654L1111.72 408.355C1111.78 408.317 1111.86 408.302 1111.93 408.313C1112 408.324 1112.06 408.361 1112.11 408.416C1123.08 421.609 1134.82 433.835 1148.26 450.225C1184.93 494.873 1223.81 541.36 1264.9 589.686C1273.82 600.177 1280.52 608.474 1285 614.577C1294.01 626.863 1303.68 636.833 1312.6 648.811C1325.89 666.643 1337.32 681.366 1346.88 692.982C1354.58 702.339 1362.52 713.359 1370.68 726.041C1378.91 738.854 1388.55 752.518 1399.58 767.034C1400.39 768.083 1401.42 769.94 1402.69 772.604Z" fill="#494949"/>
<path d="M896.288 445.899C872.679 415.77 852.024 392.532 850.154 393.998C848.284 395.463 865.907 421.076 889.517 451.206C913.126 481.336 933.782 504.573 935.652 503.108C937.522 501.642 919.898 476.029 896.288 445.899Z" fill="#494949"/>
<path d="M1424.26 460.926C1424.22 460.855 1424.22 460.774 1424.24 460.698C1424.26 460.622 1424.31 460.557 1424.38 460.515C1424.44 460.474 1424.52 460.457 1424.6 460.47C1424.68 460.483 1424.75 460.524 1424.8 460.585C1436.62 471.865 1447.91 483.849 1458.67 496.536C1478.39 519.795 1501.82 547.834 1528.96 580.653C1555.36 612.6 1584.43 652.801 1604.82 681.209C1604.97 681.404 1605.07 681.627 1605.11 681.865C1605.16 682.102 1605.16 682.347 1605.11 682.585C1605.05 682.822 1604.95 683.047 1604.8 683.242C1604.66 683.438 1604.47 683.601 1604.26 683.72C1602.94 684.455 1601.56 684.199 1600.12 682.951C1586.09 670.826 1570.76 657.466 1558.69 642.526C1528.47 605.126 1495.33 565.872 1473.14 533.616C1471.42 531.124 1456.91 510.239 1429.6 470.963C1427.28 467.643 1425.5 464.297 1424.26 460.926Z" fill="#494949"/>
<path d="M1407.06 835.937C1407.09 836.009 1407.09 836.088 1407.07 836.161C1407.05 836.234 1407 836.298 1406.94 836.343C1406.88 836.387 1406.8 836.409 1406.72 836.406C1406.65 836.402 1406.57 836.374 1406.52 836.324C1399.25 829.074 1384.76 814.524 1363.03 792.674C1341.34 770.842 1317.59 738.666 1302.74 720.407C1292.04 707.263 1276.91 692.12 1266.62 678.531C1249.65 656.07 1233.22 637.658 1217.41 616.857C1202.85 597.725 1183.27 574.595 1166.51 551.691C1159.34 541.908 1152 532.248 1144.51 522.711C1142.78 520.511 1127.83 499.784 1099.65 460.532C1093.75 452.289 1088.76 443.141 1082.28 436.575C1081.62 435.926 1081.44 435.2 1081.75 434.398C1081.79 434.278 1081.87 434.172 1081.97 434.09C1082.06 434.008 1082.18 433.952 1082.31 433.93C1082.43 433.907 1082.56 433.917 1082.68 433.96C1082.8 434.002 1082.91 434.075 1083 434.172C1093.3 445.637 1113.76 467.858 1127.01 484.737C1135.2 495.189 1150.71 510.969 1160.79 523.336C1165.81 529.49 1182.52 549.216 1210.93 582.513C1227.14 601.473 1243.78 621.376 1260.84 642.221C1298.88 688.743 1325.41 721.765 1340.43 741.288C1352.84 757.432 1369.99 780.75 1391.86 811.243C1398.24 820.133 1403.31 828.365 1407.06 835.937Z" fill="#494949"/>
<path d="M878.749 478.639C889.693 493.1 899.371 508.225 909.296 523.419C910.45 525.195 910.744 526.294 910.18 526.717C909.598 527.154 908.614 526.574 907.228 524.976C895.305 511.321 883.357 497.919 872.416 483.435C861.449 468.971 851.794 453.849 841.866 438.677C840.712 436.901 840.419 435.794 840.985 435.356C841.55 434.933 842.533 435.521 843.934 437.12C855.858 450.775 867.782 464.175 878.749 478.639Z" fill="#494949"/>
<path d="M1054.84 459.341L1055.38 459.024C1055.47 458.967 1055.59 458.944 1055.7 458.959C1055.81 458.974 1055.91 459.026 1055.99 459.106C1077.55 482.104 1096.58 505.019 1121.17 530.851C1131.36 541.558 1140.14 551.434 1147.49 560.48C1166.95 584.391 1186.13 607.975 1205.02 631.231C1210.95 638.529 1218.78 647.143 1225.16 655.316C1247.31 683.641 1271.86 710.879 1296.81 741.508C1321.48 771.808 1348.41 805.284 1366.24 831.389C1381.78 854.136 1389.68 865.676 1389.94 866.009C1398.7 876.955 1404.98 887.846 1412.54 898.537C1412.62 898.653 1412.65 898.792 1412.64 898.931C1412.62 899.069 1412.56 899.198 1412.46 899.295C1412.36 899.393 1412.23 899.452 1412.09 899.463C1411.95 899.474 1411.81 899.437 1411.7 899.357C1408.26 896.883 1404.71 893.605 1401.07 889.525C1359.01 842.407 1325.46 800.665 1282.77 748.355C1265.91 727.668 1249 707.762 1232.04 688.636C1207.34 660.751 1184.66 633.563 1164 607.07C1138.28 574.095 1124.09 555.946 1121.42 552.622C1109.62 537.924 1098.92 523.549 1089.33 509.495C1078.27 493.313 1066.68 477.102 1054.55 460.862C1054.46 460.747 1054.4 460.613 1054.36 460.471C1054.33 460.329 1054.33 460.181 1054.35 460.038C1054.38 459.894 1054.44 459.758 1054.52 459.638C1054.6 459.518 1054.71 459.417 1054.84 459.341Z" fill="#494949"/>
<path d="M1427.81 521.049C1433.44 525.999 1437.9 530.289 1441.2 533.92C1454.6 548.68 1465.26 560.911 1473.2 570.614C1485.37 585.518 1504.75 604.769 1516.93 621.776C1544.18 659.891 1561.63 684.317 1569.26 695.053C1572.07 698.992 1574.21 702.711 1575.67 706.211C1575.73 706.359 1575.74 706.525 1575.7 706.681C1575.66 706.837 1575.57 706.973 1575.44 707.068C1575.31 707.163 1575.16 707.212 1575 707.204C1574.84 707.197 1574.7 707.136 1574.58 707.03C1567.6 701.132 1560.49 694.322 1553.26 686.597C1543.1 675.756 1527.5 657.955 1506.44 633.196C1489.3 613.036 1475.19 594.841 1464.11 578.61C1442.85 547.453 1431.31 530.431 1429.5 527.544C1427.96 525.115 1427.01 523.197 1426.63 521.79C1426.6 521.64 1426.61 521.483 1426.67 521.341C1426.73 521.199 1426.83 521.078 1426.96 520.996C1427.09 520.915 1427.24 520.876 1427.39 520.885C1427.55 520.895 1427.69 520.952 1427.81 521.049Z" fill="#494949"/>
<path d="M1023.65 481.726L1024.29 481.349C1024.31 481.332 1024.34 481.325 1024.36 481.328C1024.39 481.33 1024.42 481.343 1024.45 481.364C1037.89 496.159 1053.89 513.867 1072.47 534.489C1093.55 557.879 1116.34 586.774 1140.14 614.055C1140.58 614.544 1175.86 655.376 1245.99 736.551C1248.98 740.006 1252.48 746.168 1255.96 750.294C1290.88 791.892 1324.21 834.43 1355.95 877.909C1360.16 883.654 1363.77 889.572 1368.03 894.744C1376.54 905.057 1384.53 915.836 1391.99 927.08C1400.39 939.7 1409.32 950.293 1417.54 963.797C1417.63 963.911 1417.68 964.056 1417.66 964.202C1417.65 964.348 1417.58 964.483 1417.46 964.576C1417.35 964.669 1417.21 964.714 1417.06 964.699C1416.91 964.685 1416.78 964.614 1416.69 964.501C1407.58 955.879 1398.9 947.922 1390.36 937.969C1357.58 899.752 1338.92 878.097 1334.35 873.003C1313.2 849.436 1295.89 829.26 1282.43 812.475C1261.12 785.951 1243.84 764.954 1230.57 749.482C1192.65 705.206 1153.57 657.182 1113.32 605.409C1084.54 568.402 1057.14 529.818 1023.44 482.654C1023.39 482.582 1023.36 482.501 1023.34 482.415C1023.33 482.329 1023.33 482.24 1023.35 482.153C1023.37 482.066 1023.4 481.984 1023.45 481.91C1023.51 481.837 1023.57 481.774 1023.65 481.726Z" fill="#494949"/>
<path d="M886.111 546.926C886.12 546.936 886.127 546.947 886.131 546.959C886.136 546.972 886.137 546.985 886.136 546.998C886.135 547.011 886.131 547.023 886.124 547.035C886.118 547.046 886.109 547.056 886.098 547.064L885.975 547.144C884.895 547.938 881.07 545.022 875.339 539.035C869.609 533.048 862.442 524.48 855.411 515.211L854.694 514.264C847.659 504.989 841.336 495.772 837.115 488.639C832.894 481.505 831.121 477.039 832.185 476.222L832.285 476.139C832.295 476.13 832.306 476.123 832.318 476.119C832.331 476.115 832.344 476.113 832.357 476.115C832.37 476.116 832.382 476.12 832.394 476.126C832.405 476.133 832.415 476.142 832.423 476.152L886.111 546.926Z" fill="#494949"/>
<path d="M1420.51 1027.32C1418.76 1026.73 1417.17 1025.62 1415.74 1023.99C1409.03 1016.26 1399.11 1005.19 1385.97 990.794C1375.72 979.558 1365.77 967.967 1356.14 956.021C1326.95 919.783 1293.46 879.817 1255.66 836.124C1246.03 824.978 1237.5 814.771 1230.06 805.502C1216.16 788.12 1200.71 768.117 1185.12 750.641C1175.97 740.39 1168.8 731.955 1163.6 725.336C1145.84 702.705 1131.04 685.538 1115.33 665.208C1102.33 648.406 1077.83 617.352 1041.82 572.044C1025.38 551.351 1010.43 530.255 996.977 508.757C996.877 508.592 996.838 508.397 996.867 508.206C996.896 508.015 996.99 507.84 997.134 507.711C997.278 507.582 997.463 507.508 997.656 507.501C997.849 507.494 998.038 507.555 998.191 507.673C999.838 508.972 1001.34 510.55 1002.7 512.407C1006.88 518.195 1013.25 522.647 1017.43 527.373C1036.91 549.453 1056.97 570.063 1075.52 593.048C1089.81 610.729 1104.6 627.981 1119.91 644.805C1141.13 668.163 1153.07 682.859 1173.58 706.865C1180.87 715.38 1187.76 723.703 1194.26 731.834C1236.01 784.044 1261.21 815.289 1269.86 825.57C1287.84 846.95 1301.38 864.097 1310.48 877.009C1316.83 885.988 1324.91 896.075 1334.74 907.27C1347.73 922.068 1361.44 940.255 1375.87 961.832C1391.91 985.798 1407.5 1005.49 1421.08 1026.59C1421.15 1026.67 1421.18 1026.78 1421.18 1026.88C1421.18 1026.99 1421.14 1027.09 1421.07 1027.17C1421.01 1027.26 1420.92 1027.31 1420.81 1027.34C1420.71 1027.37 1420.6 1027.36 1420.51 1027.32Z" fill="#494949"/>
<path d="M1422.08 1087.86C1412.49 1078.29 1401.32 1065.69 1388.57 1050.05C1350.25 1003.04 1329.59 977.68 1326.61 973.971C1312.04 955.893 1299.77 941.627 1289.79 931.173C1285.43 926.607 1279.51 919.626 1272.03 910.23C1268.25 905.489 1258.43 893.67 1242.55 874.772C1199.93 824.05 1164.79 781.413 1137.11 746.863C1132.3 740.867 1127.3 735.03 1122.12 729.352C1115.41 722.002 1109.81 714.227 1103.05 706.179C1084.49 684.188 1072.41 670.957 1057.97 651.259C1049.26 639.371 1039.09 626.463 1027.44 612.535C1007.41 588.553 987.748 560.77 967.464 531.517C967.396 531.422 967.348 531.316 967.322 531.203C967.296 531.09 967.292 530.973 967.312 530.859C967.332 530.744 967.374 530.635 967.436 530.537C967.498 530.44 967.579 530.355 967.675 530.289L967.7 530.268C967.906 530.122 968.157 530.054 968.406 530.078C968.654 530.102 968.884 530.216 969.051 530.399C989.384 552.608 1004.64 569.111 1014.81 579.908C1028.29 594.244 1039 606.65 1046.94 617.123C1050.33 621.586 1056.31 626.648 1060.08 631.334C1076.5 651.639 1094.57 670.256 1112.29 691.82C1128.74 711.82 1145.56 731.864 1162.76 751.952C1177.56 769.25 1192.33 787.533 1207.08 806.799C1228.92 835.363 1250.09 861.758 1270.59 885.986C1281.85 899.276 1292.25 914.101 1304.15 928.47C1328.17 957.49 1353.09 989.672 1378.92 1025.01C1392 1042.92 1406.65 1063.41 1422.88 1086.48C1422.98 1086.62 1423.03 1086.8 1423.01 1086.97C1423 1087.14 1422.92 1087.3 1422.79 1087.42L1422.33 1087.86C1422.32 1087.88 1422.3 1087.9 1422.27 1087.91C1422.25 1087.92 1422.23 1087.92 1422.2 1087.92C1422.18 1087.92 1422.15 1087.92 1422.13 1087.91C1422.11 1087.9 1422.09 1087.88 1422.08 1087.86Z" fill="#494949"/>
<path d="M1549.2 730.7C1548.27 731.427 1547.11 731.084 1545.72 729.671C1517.7 701.358 1490.09 668.408 1462.87 630.821C1451.74 615.447 1442.3 601.678 1434.56 589.514C1429.98 582.339 1428.07 578.449 1428.82 577.843C1429.59 577.24 1432.92 580.012 1438.83 586.16C1448.83 596.539 1460 608.942 1472.33 623.368C1502.49 658.637 1528.06 693.206 1549.02 727.078C1550.06 728.765 1550.12 729.972 1549.2 730.7Z" fill="#494949"/>
<path d="M843.377 544.885C833.48 531.79 824.792 521.678 823.971 522.298C823.15 522.919 830.507 534.037 840.404 547.132C850.301 560.226 858.99 570.339 859.811 569.718C860.632 569.098 853.274 557.98 843.377 544.885Z" fill="#494949"/>
<path d="M940.641 557.146C940.581 556.982 940.577 556.802 940.631 556.635C940.685 556.468 940.793 556.324 940.938 556.226C941.084 556.129 941.258 556.082 941.432 556.095C941.607 556.108 941.773 556.179 941.902 556.297C950.272 564.871 958.553 572.211 967.595 581.959C972.42 587.186 986.802 603.297 1010.74 630.291C1046.09 670.128 1078.83 711.816 1112.98 751.837C1131.18 773.193 1146.48 792.65 1164.28 813.829C1192.82 847.809 1222.84 885.859 1241.15 908.312C1256.55 927.209 1270.81 945.319 1283.94 962.642C1302.92 987.701 1322.24 1008.33 1341.29 1034.53C1348.61 1044.61 1362.82 1063.26 1383.93 1090.49C1400.09 1111.32 1413.01 1130.67 1428.55 1153.75C1428.64 1153.89 1428.67 1154.05 1428.65 1154.22C1428.62 1154.38 1428.54 1154.52 1428.42 1154.63C1428.3 1154.73 1428.15 1154.79 1427.99 1154.79C1427.83 1154.78 1427.68 1154.72 1427.57 1154.6C1424.68 1151.94 1423.02 1150.34 1422.58 1149.8C1405.5 1129.41 1378.77 1097.06 1355.13 1067.09C1335.67 1042.41 1314.83 1016.73 1292.62 990.057C1283.26 978.815 1274.51 968.833 1266.37 960.112C1247.73 940.124 1232.45 921.569 1216.65 903.496C1205.6 890.842 1197.82 881.74 1193.31 876.19C1173.55 851.786 1146.11 818.822 1111 777.299C1084.04 745.39 1058.45 712.504 1032.7 681.684C1011.32 656.092 986.841 624.585 973.25 606.91C967.351 599.237 961.221 590.04 954.862 579.319C954.225 578.257 953.521 577.239 952.752 576.273C947.21 569.374 943.173 562.999 940.641 557.146Z" fill="#494949"/>
<path d="M817.624 568.945L817.55 569.001C817.044 569.384 816.943 570.105 817.326 570.612L834.803 593.735C835.186 594.241 835.907 594.342 836.414 593.959L836.487 593.903C836.994 593.52 837.094 592.799 836.711 592.292L819.235 569.169C818.852 568.663 818.131 568.562 817.624 568.945Z" fill="#494949"/>
<path d="M1428.92 1216.69C1418.7 1202.85 1403.16 1186.93 1392.42 1171.57C1386.16 1162.64 1378.16 1154.61 1371.65 1146.38C1354.59 1124.87 1341.73 1108.99 1333.08 1098.74C1310.89 1072.43 1294.32 1051.18 1275.23 1028.65C1263.48 1014.78 1252.81 1001.83 1243.23 989.811C1228.81 971.686 1214.7 956.919 1201.55 940.696C1184.24 919.303 1169.57 901.77 1157.55 888.098C1144 872.707 1131.47 857.762 1119.98 843.263C1111.82 832.969 1102.82 822.186 1092.99 810.913C1069.62 784.159 1049.12 758.074 1024.15 728.299C1015.76 718.268 1010.26 710.664 1003.43 701.662C1000.14 697.322 997.757 694.358 996.293 692.768C982.343 677.693 970.613 663.549 961.105 650.335C944.198 626.793 927.592 605.869 911.669 580.273C911.526 580.085 911.461 579.849 911.487 579.614C911.514 579.379 911.629 579.163 911.81 579.011C911.991 578.859 912.224 578.783 912.46 578.798C912.696 578.813 912.917 578.918 913.077 579.091C926.805 591.372 939.662 605.086 951.649 620.233C956.57 626.463 964.726 633.907 970.93 641.208C1000.6 676.213 1018.33 696.9 1024.14 703.27C1041.87 722.684 1059.23 742.958 1076.23 764.09C1084.68 774.566 1102.26 795.632 1128.99 827.286C1147.37 849.076 1166.11 872.455 1185.19 897.424C1204.84 923.157 1230.11 954.81 1260.99 992.382C1268.85 1001.97 1278.47 1015.93 1287.02 1026.49C1319.11 1066.09 1339.77 1091.66 1349.01 1103.22C1356.82 1112.98 1363.14 1121.22 1367.98 1127.93C1376.44 1139.66 1382.54 1147.98 1386.27 1152.9C1399.94 1170.91 1414.64 1192.04 1430.36 1216.3C1430.37 1216.31 1430.37 1216.33 1430.36 1216.34C1430.36 1216.36 1430.35 1216.38 1430.33 1216.39L1429.6 1216.83C1429.48 1216.89 1429.35 1216.91 1429.23 1216.89C1429.1 1216.86 1428.99 1216.79 1428.92 1216.69Z" fill="#494949"/>
<path d="M1525.05 753.187C1525.1 753.299 1525.12 753.424 1525.09 753.543C1525.06 753.662 1524.98 753.766 1524.88 753.838C1524.78 753.91 1524.65 753.945 1524.53 753.938C1524.4 753.93 1524.28 753.88 1524.18 753.797C1487.44 721.051 1456.99 682.851 1432.83 639.195C1432.82 639.181 1432.82 639.164 1432.82 639.148C1432.82 639.132 1432.83 639.117 1432.84 639.104L1434.34 637.377C1434.4 637.314 1434.47 637.266 1434.55 637.238C1434.63 637.211 1434.71 637.204 1434.8 637.219C1434.88 637.234 1434.95 637.27 1435.02 637.324C1435.08 637.377 1435.13 637.447 1435.16 637.526C1435.73 639.268 1441.39 643.419 1443.57 645.987C1455.49 660.104 1464.72 670.009 1476.8 686.128C1494.18 709.238 1509.03 729.469 1521.34 746.821C1522.84 748.906 1524.07 751.028 1525.05 753.187Z" fill="#494949"/>
<path d="M1435.77 1277.21C1435.83 1277.31 1435.85 1277.44 1435.82 1277.55C1435.79 1277.67 1435.72 1277.78 1435.62 1277.84L1434.51 1278.49C1434.49 1278.51 1434.46 1278.52 1434.44 1278.52C1434.41 1278.53 1434.38 1278.53 1434.36 1278.53C1434.33 1278.52 1434.31 1278.51 1434.29 1278.5C1434.27 1278.48 1434.25 1278.47 1434.24 1278.45C1432.13 1275.04 1429.89 1272.1 1427.51 1269.64C1423.56 1265.56 1420.79 1262.53 1419.21 1260.54C1406.29 1244.29 1399.88 1235.58 1387.39 1221.07C1369.14 1199.91 1350.54 1175.79 1331.14 1154.37C1322.93 1145.28 1315.78 1135.13 1307.25 1125.04C1260.55 1069.64 1232.58 1036.31 1223.36 1025.05C1204.39 1001.84 1189.62 985.787 1170.05 963.073C1152.54 942.739 1142.44 930.925 1139.76 927.63C1105.12 884.997 1066.98 841.308 1036.22 803.717C1023.09 787.643 1015.59 778.552 1013.71 776.445C998.397 759.135 986.805 742.046 972.457 724.552C946.783 693.199 919.754 656.97 891.37 615.865C888.803 612.135 886.879 608.768 885.598 605.763C885.512 605.556 885.5 605.325 885.566 605.11C885.631 604.896 885.769 604.711 885.956 604.587C886.142 604.462 886.367 604.407 886.59 604.431C886.813 604.454 887.021 604.554 887.178 604.714C901.989 619.333 918.554 637.257 936.871 658.485C940.929 663.206 947.469 670.702 956.492 680.972C974.774 701.758 996.045 729.419 1007.83 743.083C1027.48 765.842 1053.09 796.373 1084.67 834.675C1144.16 906.794 1178.04 947.845 1186.32 957.827C1201.18 975.741 1215.71 996.372 1228.62 1012.53C1254.37 1044.71 1287.45 1083.36 1316.12 1119.82C1347.39 1159.61 1373.26 1194.67 1409.5 1240.33C1414.71 1246.91 1420.01 1256.13 1424.43 1261.34C1428.93 1266.62 1432.71 1271.9 1435.77 1277.21Z" fill="#494949"/>
<path d="M808.158 611.731L805.951 608.028C805.912 607.968 805.892 607.898 805.895 607.826C805.898 607.755 805.923 607.686 805.966 607.629C806.01 607.573 806.07 607.531 806.138 607.51C806.206 607.489 806.28 607.489 806.347 607.512C808.449 608.084 809.728 609.202 810.183 610.863C810.276 611.128 810.264 611.417 810.151 611.672C810.038 611.928 809.833 612.132 809.576 612.242C809.319 612.352 809.029 612.361 808.766 612.266C808.503 612.171 808.286 611.98 808.158 611.731Z" fill="#494949"/>
<path d="M852.592 621.873C852.508 621.679 852.496 621.462 852.557 621.26C852.618 621.058 852.749 620.884 852.926 620.768C853.102 620.653 853.314 620.603 853.524 620.629C853.734 620.654 853.928 620.753 854.072 620.907C877.201 645.589 899.233 669.827 920.169 693.619C936.41 712.089 953.441 732.839 971.261 755.868C992.526 783.344 1019.26 812.365 1040.28 839.239C1043.65 843.556 1058.01 860.919 1083.34 891.33C1089.51 898.721 1103.72 916.202 1125.97 943.772C1158.64 984.259 1184.15 1015.63 1202.5 1037.9C1214.94 1052.97 1224.63 1067.98 1236.6 1081.34C1241.92 1087.26 1248.71 1095.69 1256.99 1106.62C1263.3 1114.97 1271.27 1124.94 1280.89 1136.55C1300.07 1159.71 1313.73 1176.95 1330.92 1196.64C1337.21 1203.86 1343.76 1211.72 1350.57 1220.22C1350.63 1220.29 1350.66 1220.38 1350.66 1220.48C1350.66 1220.57 1350.63 1220.66 1350.58 1220.74C1350.53 1220.82 1350.45 1220.88 1350.36 1220.91C1350.27 1220.95 1350.18 1220.95 1350.08 1220.93C1348.69 1220.52 1347.49 1219.75 1346.47 1218.62C1278.07 1141.4 1233.97 1090.96 1214.18 1067.29C1186.73 1034.49 1160.71 1003.76 1136.12 975.12C1126.56 963.982 1116.93 952.821 1107.23 941.638C1097.2 930.101 1088.83 920.147 1082.1 911.779C1073.13 900.628 1059.37 885.594 1051.79 876.519C1004.16 819.473 972.688 781.127 957.361 761.482C927.529 723.241 900.609 688.525 876.598 657.333C873.654 653.52 868.326 645.433 860.615 633.071C860.043 632.155 859.383 631.294 858.645 630.5C855.705 627.289 853.687 624.413 852.592 621.873Z" fill="#494949"/>
<path d="M1471.03 736.112C1480.55 748.402 1490.8 763.205 1501.77 780.519C1501.89 780.695 1501.93 780.906 1501.9 781.113C1501.87 781.32 1501.76 781.508 1501.6 781.641C1501.44 781.774 1501.24 781.843 1501.03 781.834C1500.82 781.826 1500.62 781.741 1500.47 781.595C1487.65 769.186 1475.63 755.738 1464.41 741.25C1453.17 726.776 1443.14 711.787 1434.32 696.282C1434.21 696.1 1434.17 695.885 1434.22 695.677C1434.26 695.47 1434.38 695.286 1434.55 695.161C1434.72 695.036 1434.93 694.979 1435.14 695.002C1435.35 695.024 1435.55 695.124 1435.69 695.282C1449.73 710.227 1461.51 723.837 1471.03 736.112Z" fill="#494949"/>
<path d="M995.301 851.096L994.61 851.792C994.57 851.831 994.539 851.878 994.519 851.929C994.499 851.981 994.491 852.035 994.494 852.089C994.498 852.143 994.514 852.194 994.541 852.24C994.567 852.285 994.604 852.323 994.648 852.35C996.767 853.864 988.488 844.514 969.811 824.298C963.927 817.906 956.241 809.029 946.754 797.666C924.923 771.507 898.842 740.939 868.51 705.963C853.205 688.33 839.34 668.456 825.998 650.112C825.882 649.947 825.828 649.746 825.847 649.548C825.866 649.35 825.957 649.168 826.102 649.036L826.152 648.994C826.379 648.781 826.682 648.667 826.997 648.676C827.311 648.685 827.611 648.816 827.835 649.041C832.93 654.186 836.122 657.507 837.411 659.003C849.279 672.744 865.511 687.97 877.979 702.44C889.977 716.356 902.016 730.885 914.096 746.026C914.371 746.376 927.884 762.942 954.638 795.724C958.708 800.716 962.436 806.623 966.209 811.101C976.203 822.959 985.937 835.986 995.412 850.182C995.508 850.319 995.549 850.487 995.528 850.654C995.508 850.822 995.427 850.979 995.301 851.096Z" fill="#494949"/>
<path d="M1437.48 753.193L1437.41 753.249C1436.58 753.878 1436.42 755.062 1437.05 755.891L1472.69 802.882C1473.32 803.712 1474.5 803.875 1475.33 803.245L1475.41 803.19C1476.24 802.56 1476.4 801.377 1475.77 800.547L1440.13 753.556C1439.5 752.726 1438.31 752.564 1437.48 753.193Z" fill="#494949"/>
<path d="M1437.96 809.583L1437.89 809.639C1437.46 809.963 1437.38 810.57 1437.71 810.993L1449.75 826.692C1450.07 827.115 1450.68 827.195 1451.1 826.871L1451.17 826.815C1451.6 826.49 1451.68 825.883 1451.35 825.46L1439.32 809.761C1438.99 809.338 1438.38 809.258 1437.96 809.583Z" fill="#494949"/>
<path d="M1705.79 1335.47C1703.69 1333.13 1701.21 1329.73 1698.36 1325.28C1691.72 1314.88 1681.11 1299.11 1674.7 1288.7C1657.07 1260 1639.78 1233.04 1622.82 1207.81C1617.53 1199.98 1613.63 1193.9 1611.11 1189.56C1601.93 1173.79 1598 1168.76 1589.56 1153.78C1586.91 1149.1 1582.71 1142.6 1576.95 1134.28C1573.84 1129.81 1564.71 1115.03 1549.55 1089.94C1538.62 1071.85 1529.58 1057.04 1522.43 1045.52C1497.86 1005.86 1474.38 966.283 1452 926.79C1451.97 926.733 1451.94 926.669 1451.93 926.602C1451.92 926.536 1451.93 926.468 1451.95 926.403C1451.96 926.338 1451.99 926.277 1452.03 926.223C1452.07 926.17 1452.13 926.125 1452.18 926.092L1452.67 925.793C1452.69 925.781 1452.71 925.772 1452.73 925.768C1452.75 925.764 1452.77 925.763 1452.79 925.767C1452.81 925.772 1452.82 925.78 1452.84 925.791C1452.86 925.803 1452.87 925.818 1452.88 925.835C1465.48 946.773 1477.54 966.204 1489.08 984.127C1492.88 990.017 1497.77 995.597 1501.1 1001.3C1512.71 1021.08 1527.53 1041.57 1539.14 1060.35C1542.83 1066.33 1549.65 1076.71 1559.59 1091.49C1582.28 1125.19 1604.74 1160.92 1626.98 1198.67C1633.12 1209.11 1639.69 1219.7 1646.67 1230.46C1655.61 1244.19 1661.65 1256.01 1671.83 1273.12C1684.39 1294.29 1696.2 1314.72 1707.25 1334.43C1707.39 1334.63 1707.44 1334.87 1707.4 1335.1C1707.35 1335.33 1707.22 1335.54 1707.03 1335.67C1706.84 1335.81 1706.6 1335.86 1706.37 1335.83C1706.14 1335.79 1705.93 1335.66 1705.79 1335.47Z" fill="#494949"/>
<path d="M1461.49 1006.69C1461.95 1007.93 1462.45 1008.89 1462.99 1009.56C1479.32 1029.69 1494.33 1049.85 1508.04 1070.05C1513.76 1078.46 1521.26 1087.48 1527.67 1097.22C1539.39 1115.07 1549.52 1130.25 1558.05 1142.75C1579.23 1173.78 1590.52 1192.29 1611.38 1225.62C1615.74 1232.58 1624.05 1244.54 1636.29 1261.49C1649.77 1280.16 1663.37 1300.82 1677.08 1323.49C1684.43 1335.64 1695.24 1351.54 1700.8 1360.75C1709.53 1375.15 1718.22 1389.2 1726.88 1402.9C1727.74 1404.28 1736.25 1418.48 1752.44 1445.51C1761.61 1460.83 1773.06 1479.81 1786.81 1502.45C1802.96 1529.04 1815.61 1550.84 1824.77 1567.84C1828.19 1574.2 1830.53 1578.66 1831.79 1581.23C1831.84 1581.34 1831.84 1581.46 1831.81 1581.57C1831.77 1581.68 1831.7 1581.78 1831.6 1581.84C1831.51 1581.9 1831.39 1581.92 1831.28 1581.9C1831.17 1581.88 1831.07 1581.82 1831.01 1581.73C1827.58 1577.35 1825.18 1574.06 1823.82 1571.86C1815.95 1559.11 1801.12 1538.52 1793.42 1526.54C1782.96 1510.26 1772.51 1494.96 1762.06 1480.62C1747.79 1461.03 1737.71 1446.67 1731.81 1437.53C1717.14 1414.76 1707.16 1401.29 1692.68 1379.19C1671.3 1346.59 1654.25 1321.02 1641.53 1302.49C1631.9 1288.45 1624.23 1276.75 1618.53 1267.38C1610.78 1254.66 1603.46 1242.67 1596.58 1231.41C1585.49 1213.25 1574.3 1198.68 1565.78 1182.62C1553.49 1159.55 1534.48 1134.86 1522.58 1113.07C1517.46 1103.7 1513.2 1096.37 1509.79 1091.08C1491.95 1063.38 1475.91 1034.66 1461.51 1011.47C1460.76 1010.28 1460.55 1008.7 1460.86 1006.74C1460.87 1006.67 1460.9 1006.6 1460.95 1006.55C1461.01 1006.49 1461.08 1006.46 1461.15 1006.46C1461.23 1006.45 1461.3 1006.47 1461.36 1006.51C1461.42 1006.55 1461.47 1006.61 1461.49 1006.69Z" fill="#494949"/>
<path d="M1854.93 1672.24C1851.81 1667.94 1847.89 1663.26 1845.52 1659.61C1829.05 1634.36 1810.31 1608.32 1789.28 1581.5C1784.56 1575.46 1779.47 1568.05 1774 1559.27C1768.95 1551.15 1760.02 1538.32 1747.22 1520.77C1742.26 1513.99 1728.98 1493.8 1707.38 1460.2C1702.68 1452.89 1697.4 1444.8 1691.56 1435.94C1683.87 1424.28 1672.28 1406.9 1656.8 1383.77C1642.23 1361.99 1630.76 1344.52 1622.39 1331.34C1614.92 1319.57 1593.91 1287.64 1559.38 1235.56C1553.91 1227.29 1548.38 1218.46 1542.81 1209.04C1532.93 1192.4 1520.16 1174.78 1509.66 1155.76C1499.86 1138.01 1488.44 1122.05 1477.74 1102.5C1472.47 1092.92 1466.94 1083.83 1461.14 1075.25C1461.07 1075.15 1461.03 1075.04 1461 1074.93C1460.98 1074.81 1460.98 1074.7 1461 1074.58C1461.03 1074.47 1461.07 1074.36 1461.14 1074.26C1461.21 1074.17 1461.3 1074.09 1461.4 1074.02L1461.91 1073.73C1462 1073.68 1462.1 1073.66 1462.2 1073.68C1462.3 1073.7 1462.39 1073.75 1462.46 1073.83C1480.86 1096.54 1492.94 1112.06 1498.7 1120.38C1501.61 1124.58 1506.08 1130.61 1512.11 1138.48C1517.76 1145.82 1522.99 1154.37 1529.58 1162.91C1539.36 1175.59 1548.03 1189.93 1556.96 1202.04C1569.52 1219.07 1584.51 1243.88 1598.52 1262.47C1606.9 1273.59 1612.29 1283.81 1621.88 1297.94C1638.27 1322.05 1657.14 1350.71 1678.49 1383.92C1681.76 1389.02 1686.44 1394.7 1689.73 1400.1C1702.95 1421.87 1715.55 1441.64 1727.51 1459.42C1730.96 1464.55 1742.73 1483.58 1762.81 1516.52C1767.4 1524.06 1775.37 1535.04 1778.87 1540.95C1799.29 1575.45 1819.3 1608.67 1838.89 1640.62C1844.75 1650.15 1850.24 1660.61 1855.37 1671.98C1855.4 1672.04 1855.41 1672.11 1855.4 1672.17C1855.38 1672.24 1855.34 1672.29 1855.28 1672.33C1855.22 1672.36 1855.15 1672.37 1855.09 1672.36C1855.02 1672.34 1854.96 1672.3 1854.93 1672.24Z" fill="#494949"/>
<path d="M1761.37 1581.48C1758.43 1579.21 1756.92 1578.03 1756.84 1577.93C1744.31 1562.18 1736.93 1554.16 1727.6 1540.64C1720.5 1530.33 1705.8 1509.92 1683.51 1479.42C1673.67 1465.96 1659.41 1445.01 1640.72 1416.58C1619.54 1384.35 1601.48 1357.67 1586.54 1336.54C1577.42 1323.63 1567.67 1308.86 1557.29 1292.23C1547.64 1276.81 1530.84 1253.3 1518.78 1232.54C1509.83 1217.15 1498.82 1199.2 1485.75 1178.71C1477.98 1166.55 1470.96 1153.41 1465.89 1142.71C1465.85 1142.61 1465.85 1142.51 1465.89 1142.42C1465.92 1142.32 1465.98 1142.24 1466.06 1142.19C1466.14 1142.14 1466.24 1142.11 1466.34 1142.12C1466.44 1142.13 1466.53 1142.18 1466.6 1142.24C1474.66 1151.54 1480.8 1159.15 1485.04 1165.06C1491.85 1174.56 1495.71 1179.88 1496.62 1181.03C1506.59 1193.74 1523.14 1216.44 1546.25 1249.13C1556.27 1263.31 1563.29 1274.81 1572.04 1286.93C1586.81 1307.42 1602.09 1328.47 1617.89 1350.08C1629.93 1366.57 1644.81 1392.92 1657.46 1411.48C1673.31 1434.71 1685.6 1453.46 1697.92 1475.17C1704.37 1486.55 1710.74 1497.04 1717.02 1506.64C1726.63 1521.32 1736.52 1541.6 1747.29 1558.38C1751.87 1565.51 1755.7 1572.08 1758.77 1578.09C1759.31 1579.15 1760.05 1580.09 1760.95 1580.86C1761.27 1581.16 1761.45 1581.32 1761.48 1581.36C1761.49 1581.37 1761.49 1581.39 1761.49 1581.41C1761.48 1581.42 1761.48 1581.44 1761.47 1581.45C1761.46 1581.47 1761.44 1581.48 1761.42 1581.48C1761.41 1581.49 1761.39 1581.49 1761.37 1581.48Z" fill="#494949"/>
<path d="M1560.54 1353.1C1560.49 1353.01 1560.43 1352.93 1560.36 1352.85C1535.74 1318.01 1516.65 1289.32 1503.08 1266.8C1489.52 1244.24 1476.98 1223.38 1465.47 1204.21C1465.37 1204.06 1465.32 1203.88 1465.35 1203.7C1465.38 1203.51 1465.48 1203.35 1465.62 1203.24C1465.77 1203.14 1465.96 1203.09 1466.14 1203.12C1466.32 1203.15 1466.48 1203.25 1466.59 1203.39C1487.76 1226.63 1505.43 1252.05 1523.63 1277.03C1538.61 1297.59 1553.75 1320.29 1571.67 1345.09C1571.72 1345.17 1571.78 1345.25 1571.85 1345.34C1596.47 1380.18 1615.56 1408.86 1629.13 1431.39C1642.69 1453.94 1655.23 1474.81 1666.74 1493.98C1666.84 1494.12 1666.89 1494.31 1666.86 1494.49C1666.83 1494.67 1666.73 1494.84 1666.58 1494.94C1666.44 1495.05 1666.25 1495.1 1666.07 1495.07C1665.89 1495.04 1665.72 1494.94 1665.62 1494.79C1644.45 1471.56 1626.78 1446.14 1608.58 1421.15C1593.6 1400.59 1578.46 1377.87 1560.54 1353.1Z" fill="#494949"/>
<path d="M1519.96 1332.07C1520.07 1332.22 1520.17 1332.37 1520.28 1332.52C1535.37 1353.82 1550.15 1375.3 1564.6 1396.98C1564.68 1397.1 1564.74 1397.24 1564.76 1397.39C1564.79 1397.54 1564.79 1397.69 1564.75 1397.83C1564.72 1397.98 1564.66 1398.12 1564.57 1398.24C1564.48 1398.36 1564.37 1398.46 1564.24 1398.54L1563.73 1398.83C1563.66 1398.87 1563.61 1398.92 1563.56 1398.98C1563.52 1399.04 1563.5 1399.11 1563.49 1399.19C1563.48 1399.26 1563.49 1399.34 1563.51 1399.41C1563.53 1399.49 1563.57 1399.55 1563.63 1399.61C1566.33 1402.41 1556.72 1390.29 1534.79 1363.24C1525.72 1352.04 1518.75 1343.14 1513.89 1336.52C1509.03 1329.92 1502.59 1320.62 1494.58 1308.63C1475.27 1279.67 1466.55 1266.89 1468.42 1270.31C1468.46 1270.38 1468.51 1270.43 1468.58 1270.48C1468.64 1270.53 1468.71 1270.56 1468.78 1270.57C1468.86 1270.59 1468.93 1270.58 1469.01 1270.56C1469.08 1270.54 1469.14 1270.5 1469.2 1270.45L1469.63 1270.03C1469.74 1269.93 1469.87 1269.86 1470.01 1269.81C1470.15 1269.77 1470.3 1269.75 1470.45 1269.76C1470.6 1269.77 1470.74 1269.81 1470.87 1269.88C1471 1269.95 1471.12 1270.05 1471.21 1270.16C1487.62 1290.4 1503.75 1310.89 1519.61 1331.62C1519.72 1331.77 1519.83 1331.92 1519.96 1332.07Z" fill="#494949"/>
</svg>
