<svg width="430" height="110" viewBox="0 0 430 110" fill="none" xmlns="http://www.w3.org/2000/svg">
<mask id="mask0_2266_73" style="mask-type:alpha" maskUnits="userSpaceOnUse" x="18" y="18" width="412" height="92">
<path d="M409.025 89.7893V87.0927C411.009 87.0927 412.434 86.9687 413.302 86.7208C414.232 86.4728 414.79 86.0079 414.976 85.326C415.224 84.5821 415.348 83.4973 415.348 82.0715V54.3619C415.348 52.7502 415.162 51.6963 414.79 51.2004C414.418 50.6425 413.705 50.3636 412.651 50.3636H409.397V47.574L420.741 45.7143H423.252V82.0715C423.252 83.5593 423.376 84.6751 423.624 85.419C423.872 86.1009 424.429 86.5658 425.297 86.8138C426.227 86.9997 427.684 87.0927 429.668 87.0927V89.7893H409.025ZM419.067 37.5316C417.518 37.5316 416.278 37.0357 415.348 36.0438C414.418 35.052 413.953 33.8742 413.953 32.5104C413.953 31.0226 414.418 29.7828 415.348 28.791C416.278 27.7991 417.518 27.3032 419.067 27.3032C420.121 27.3032 421.02 27.5512 421.764 28.0471C422.57 28.481 423.159 29.1009 423.531 29.9068C423.965 30.6507 424.182 31.5186 424.182 32.5104C424.182 33.8742 423.686 35.052 422.694 36.0438C421.764 37.0357 420.555 37.5316 419.067 37.5316Z" fill="#0C0C0C"/>
<path d="M384.249 89.7893V87.0927C386.171 87.0927 387.535 86.9997 388.341 86.8138C389.209 86.6278 389.767 86.1939 390.015 85.512C390.263 84.8301 390.387 83.7453 390.387 82.2575V59.6621C390.387 57.7404 390.108 56.0357 389.55 54.5479C389.054 53.0601 388.217 51.8823 387.039 51.0145C385.923 50.1466 384.404 49.7127 382.483 49.7127C380.685 49.7127 379.073 50.1156 377.648 50.9215C376.284 51.6654 375.044 52.6572 373.928 53.897C372.874 55.1368 371.882 56.5006 370.953 57.9883V53.618C372.75 51.0764 374.92 49.0618 377.462 47.574C380.003 46.0242 383.01 45.2494 386.481 45.2494C390.448 45.2494 393.393 46.3342 395.315 48.5039C397.236 50.6735 398.197 54.052 398.197 58.6392V82.0715C398.197 83.5593 398.29 84.6751 398.476 85.419C398.724 86.1009 399.313 86.5658 400.243 86.8138C401.173 86.9997 402.63 87.0927 404.613 87.0927V89.7893H384.249ZM331.341 89.7893V87.0927C333.387 87.0927 334.843 86.9687 335.711 86.7208C336.579 86.4728 337.106 86.0079 337.292 85.326C337.54 84.5821 337.664 83.4973 337.664 82.0715V54.3619C337.664 52.7502 337.478 51.6963 337.106 51.2004C336.734 50.6425 336.021 50.3636 334.967 50.3636H331.806V47.574L342.778 45.7143H345.289V52.4092H345.568V82.2575C345.568 83.7453 345.692 84.8301 345.94 85.512C346.188 86.1939 346.745 86.6278 347.613 86.8138C348.543 86.9997 349.907 87.0927 351.705 87.0927V89.7893H331.341ZM357.935 89.7893V87.0927C359.856 87.0927 361.22 86.9997 362.026 86.8138C362.894 86.6278 363.452 86.1939 363.7 85.512C363.948 84.8301 364.072 83.7453 364.072 82.2575V59.6621C364.072 57.7404 363.824 56.0357 363.328 54.5479C362.832 53.0601 361.995 51.8823 360.817 51.0145C359.639 50.1466 358.059 49.7127 356.075 49.7127C354.339 49.7127 352.758 50.0846 351.333 50.8285C349.969 51.5724 348.729 52.5642 347.613 53.804C346.559 54.9818 345.568 56.2836 344.638 57.7094V53.4321C346.002 51.6963 347.427 50.2396 348.915 49.0618C350.465 47.822 352.17 46.8921 354.029 46.2722C355.889 45.5903 357.904 45.2494 360.073 45.2494C362.739 45.2494 364.94 45.7143 366.675 46.6442C368.411 47.574 369.713 48.8448 370.581 50.4565C371.448 52.0683 371.882 53.897 371.882 55.9427V82.0715C371.882 83.4973 372.006 84.5821 372.254 85.326C372.502 86.0079 373.029 86.4728 373.835 86.7208C374.703 86.9687 376.098 87.0927 378.019 87.0927V89.7893H357.935Z" fill="#0C0C0C"/>
<path d="M320.347 90.7192C319.231 90.7192 318.208 90.5642 317.278 90.2542C316.41 89.9443 315.698 89.2624 315.14 88.2086C314.644 87.1547 314.396 85.512 314.396 83.2803V57.9883C314.396 55.0128 313.776 52.7192 312.536 51.1074C311.296 49.4337 309.096 48.5968 305.934 48.5968C304.384 48.5968 302.959 48.8138 301.657 49.2477C300.417 49.6197 299.394 50.0846 298.588 50.6425C297.844 51.2004 297.472 51.7273 297.472 52.2233C297.472 52.7192 297.689 53.1221 298.123 53.4321C298.619 53.742 299.084 54.145 299.518 54.6409C300.014 55.1368 300.262 55.9427 300.262 57.0585C300.262 58.3603 299.89 59.4141 299.146 60.22C298.402 60.9639 297.348 61.3358 295.985 61.3358C294.559 61.3358 293.412 60.9019 292.544 60.034C291.738 59.1662 291.335 57.9574 291.335 56.4076C291.335 54.5479 291.924 52.7812 293.102 51.1074C294.342 49.4337 296.233 48.0699 298.774 47.0161C301.316 45.9003 304.539 45.3424 308.445 45.3424C312.908 45.3424 316.317 46.2722 318.673 48.1319C321.029 49.9296 322.207 53.3081 322.207 58.2673V80.3048C322.207 82.7844 322.454 84.4581 322.95 85.326C323.508 86.1939 324.376 86.6278 325.554 86.6278C326.112 86.6278 326.577 86.5658 326.949 86.4418C327.321 86.3179 327.724 86.1629 328.158 85.9769L328.808 88.3015C328.127 88.7355 327.104 89.2314 325.74 89.7893C324.438 90.4092 322.64 90.7192 320.347 90.7192ZM300.448 90.8121C297.224 90.8121 294.497 90.0682 292.265 88.5805C290.034 87.0307 288.918 84.6751 288.918 81.5136C288.918 78.5381 289.972 75.8105 292.079 73.3309C294.187 70.7893 297.286 68.6507 301.378 66.9149C305.531 65.1172 310.614 63.8464 316.627 63.1025V65.8921C310.118 67.0699 305.252 68.7436 302.029 70.9133C298.867 73.0829 297.286 75.8725 297.286 79.282C297.286 81.4516 297.906 83.0944 299.146 84.2102C300.448 85.264 302.246 85.7909 304.539 85.7909C306.213 85.7909 307.763 85.481 309.189 84.8611C310.614 84.2412 311.916 83.4973 313.094 82.6294C314.334 81.6996 315.481 80.8007 316.534 79.9329V82.9084C314.923 84.3961 313.28 85.7289 311.606 86.9068C309.994 88.0846 308.29 89.0454 306.492 89.7893C304.694 90.4712 302.68 90.8121 300.448 90.8121Z" fill="#0C0C0C"/>
<path d="M255.777 109.502C252.306 109.502 249.113 109.099 246.2 108.293C243.348 107.487 241.055 106.217 239.319 104.481C237.645 102.807 236.808 100.638 236.808 97.972C236.808 95.6784 237.583 93.7257 239.133 92.1139C240.683 90.5022 243.348 89.1384 247.13 88.0226L253.174 88.6735C250.756 89.0454 248.896 89.6963 247.595 90.6262C246.293 91.618 245.394 92.7028 244.898 93.8807C244.464 95.0585 244.247 96.1743 244.247 97.2281C244.247 100.08 245.394 102.342 247.688 104.016C249.981 105.69 253.081 106.527 256.986 106.527C259.59 106.527 261.883 106.124 263.867 105.318C265.913 104.574 267.493 103.458 268.609 101.97C269.787 100.483 270.376 98.6539 270.376 96.4842C270.376 94.1286 269.508 92.3619 267.772 91.1841C266.037 90.0683 262.968 89.5103 258.567 89.5103H249.361C247.254 89.5103 245.394 89.1384 243.782 88.3945C242.232 87.6506 241.024 86.6898 240.156 85.512C239.288 84.3342 238.854 83.0634 238.854 81.6996C238.854 79.5919 239.877 77.6082 241.923 75.7485C243.968 73.8888 246.975 72.2461 250.942 70.8203L254.29 71.8432C253.918 71.9051 253.236 72.1221 252.244 72.494C251.314 72.866 250.322 73.3619 249.268 73.9818C248.214 74.6017 247.316 75.3146 246.572 76.1205C245.828 76.9263 245.456 77.8252 245.456 78.817C245.456 79.7469 246.014 80.6458 247.13 81.5136C248.307 82.3195 250.539 82.7224 253.825 82.7224H260.612C266.502 82.7224 270.779 83.7453 273.444 85.7909C276.11 87.7746 277.443 90.6882 277.443 94.5315C277.443 98.065 276.451 100.917 274.467 103.086C272.484 105.318 269.849 106.93 266.564 107.921C263.278 108.975 259.683 109.502 255.777 109.502ZM256.149 74.2608C253.298 74.2608 250.508 73.7958 247.781 72.866C245.115 71.9361 242.914 70.4484 241.179 68.4027C239.443 66.295 238.575 63.4745 238.575 59.941C238.575 57.2755 239.071 55.0128 240.063 53.1531C241.117 51.2934 242.511 49.7747 244.247 48.5968C245.983 47.419 247.905 46.5822 250.012 46.0862C252.12 45.5283 254.228 45.2494 256.335 45.2494C259.373 45.2494 262.193 45.7453 264.797 46.7371C267.462 47.729 269.601 49.3097 271.213 51.4794C272.887 53.587 273.723 56.3766 273.723 59.8481C273.723 63.3815 272.856 66.202 271.12 68.3097C269.446 70.4174 267.245 71.9361 264.518 72.866C261.852 73.7958 259.063 74.2608 256.149 74.2608ZM255.963 71.2852C259.559 71.2852 262.038 70.2624 263.402 68.2167C264.828 66.1091 265.541 63.1645 265.541 59.3831C265.541 57.2135 265.262 55.2918 264.704 53.618C264.146 51.9443 263.216 50.6425 261.914 49.7127C260.613 48.7828 258.784 48.3179 256.428 48.3179C252.957 48.3179 250.539 49.3717 249.175 51.4794C247.812 53.587 247.13 56.4386 247.13 60.034C247.13 63.2575 247.75 65.9541 248.989 68.1237C250.229 70.2314 252.554 71.2852 255.963 71.2852ZM280.325 55.5707C279.21 55.5707 278.311 55.2608 277.629 54.6409C276.947 53.959 276.606 53.2151 276.606 52.4092C276.606 51.7893 276.668 51.3244 276.792 51.0145C276.916 50.7045 276.978 50.3946 276.978 50.0846C276.978 49.7127 276.823 49.3717 276.513 49.0618C276.203 48.7518 275.738 48.5968 275.118 48.5968C274.56 48.5968 273.847 48.9378 272.98 49.6197C272.174 50.2396 271.306 51.3554 270.376 52.9671L268.516 51.2004C269.57 49.3407 270.841 47.884 272.329 46.8301C273.878 45.7763 275.552 45.2494 277.35 45.2494C279.396 45.2494 281.038 45.8073 282.278 46.9231C283.518 47.9769 284.138 49.4027 284.138 51.2004C284.138 52.5022 283.797 53.5561 283.115 54.3619C282.495 55.1678 281.565 55.5707 280.325 55.5707Z" fill="#0C0C0C"/>
<path d="M211.061 89.7893V87.0927C213.045 87.0927 214.47 86.9687 215.338 86.7208C216.268 86.4728 216.826 86.0079 217.012 85.326C217.26 84.5821 217.384 83.4973 217.384 82.0715V54.3619C217.384 52.7502 217.198 51.6963 216.826 51.2004C216.454 50.6425 215.741 50.3636 214.687 50.3636H211.433V47.574L222.777 45.7143H225.288V82.0715C225.288 83.5593 225.412 84.6751 225.66 85.419C225.908 86.1009 226.465 86.5658 227.333 86.8138C228.263 86.9997 229.72 87.0927 231.704 87.0927V89.7893H211.061ZM221.103 37.5316C219.553 37.5316 218.314 37.0357 217.384 36.0438C216.454 35.052 215.989 33.8742 215.989 32.5104C215.989 31.0226 216.454 29.7828 217.384 28.791C218.314 27.7991 219.553 27.3032 221.103 27.3032C222.157 27.3032 223.056 27.5512 223.8 28.0471C224.606 28.481 225.195 29.1009 225.567 29.9068C226 30.6507 226.217 31.5186 226.217 32.5104C226.217 33.8742 225.722 35.052 224.73 36.0438C223.8 37.0357 222.591 37.5316 221.103 37.5316Z" fill="#0C0C0C"/>
<path d="M176.328 89.7893V87.0927C178.374 87.0927 179.83 86.9687 180.698 86.7208C181.566 86.4728 182.093 86.0079 182.279 85.326C182.527 84.5821 182.651 83.4973 182.651 82.0715V54.3619C182.651 52.7502 182.465 51.6963 182.093 51.2004C181.721 50.6425 181.008 50.3636 179.954 50.3636H176.793V47.574L187.765 45.7143H190.276V54.4549H190.555V82.0715C190.555 83.5593 190.679 84.6751 190.927 85.419C191.237 86.1009 191.887 86.5658 192.879 86.8138C193.871 86.9997 195.452 87.0927 197.622 87.0927V89.7893H176.328ZM190.183 63.5675V55.0128C190.617 54.2069 191.144 53.2461 191.764 52.1303C192.383 51.0145 193.158 49.9296 194.088 48.8758C195.018 47.822 196.134 46.9541 197.436 46.2722C198.737 45.5283 200.225 45.1564 201.899 45.1564C204.131 45.1564 205.835 45.8073 207.013 47.1091C208.253 48.4109 208.873 50.2086 208.873 52.5022C208.873 54.2379 208.439 55.6637 207.571 56.7795C206.765 57.8954 205.432 58.4533 203.573 58.4533C201.961 58.4533 200.752 58.0193 199.946 57.1515C199.14 56.2836 198.737 55.2608 198.737 54.083C198.737 53.1531 198.923 52.4092 199.295 51.8513C199.667 51.2934 200.039 50.8285 200.411 50.4565C200.783 50.0846 200.969 49.7127 200.969 49.3407C200.969 49.0928 200.876 48.9068 200.69 48.7828C200.504 48.5968 200.194 48.5039 199.76 48.5039C198.83 48.5039 197.839 48.9068 196.785 49.7127C195.731 50.4565 194.708 51.5414 193.716 52.9671C192.786 54.3309 192.011 55.9117 191.392 57.7094C190.834 59.5071 190.555 61.4288 190.555 63.4745L190.183 63.5675Z" fill="#0C0C0C"/>
<path d="M144.742 90.9051C138.233 90.9051 132.902 89.5413 128.749 86.8138C124.595 84.0242 121.527 80.2428 119.543 75.4696C117.559 70.6343 116.568 65.2102 116.568 59.1972C116.568 54.7959 117.094 50.6735 118.148 46.8301C119.264 42.9247 120.938 39.5153 123.169 36.6017C125.463 33.6882 128.377 31.4256 131.91 29.8138C135.506 28.1401 139.783 27.3032 144.742 27.3032C149.701 27.3032 153.948 28.1401 157.481 29.8138C161.014 31.4256 163.897 33.6882 166.129 36.6017C168.422 39.5153 170.096 42.9247 171.15 46.8301C172.266 50.6735 172.824 54.7959 172.824 59.1972C172.824 65.2102 171.832 70.6343 169.848 75.4696C167.926 80.2428 164.889 84.0242 160.735 86.8138C156.582 89.5413 151.251 90.9051 144.742 90.9051ZM144.742 87.7436C147.656 87.7436 150.166 87.2167 152.274 86.1629C154.382 85.0471 156.117 83.5593 157.481 81.6996C158.845 79.8399 159.93 77.7012 160.735 75.2836C161.541 72.804 162.099 70.2004 162.409 67.4728C162.719 64.7453 162.874 61.9867 162.874 59.1972C162.874 55.4158 162.595 51.8203 162.037 48.4109C161.541 44.9394 160.643 41.8709 159.341 39.2053C158.039 36.4778 156.21 34.3391 153.855 32.7894C151.499 31.2396 148.461 30.4647 144.742 30.4647C141.023 30.4647 137.954 31.2396 135.536 32.7894C133.181 34.3391 131.352 36.4778 130.05 39.2053C128.749 41.8709 127.819 44.9394 127.261 48.4109C126.765 51.8203 126.517 55.4158 126.517 59.1972C126.517 61.9867 126.672 64.7453 126.982 67.4728C127.354 70.2004 127.912 72.804 128.656 75.2836C129.461 77.7012 130.546 79.8399 131.91 81.6996C133.336 83.5593 135.103 85.0471 137.21 86.1629C139.318 87.2167 141.828 87.7436 144.742 87.7436Z" fill="#0C0C0C"/>
<path d="M60.6495 63.1684L100.479 31.9722L59.7186 33.5708L60.6495 63.1684Z" fill="#FFB6EA"/>
<path d="M27.8138 54.9209L45.0597 40.812L39.4209 29.9125L33.782 19.013L31.2075 34.5027L27.8138 54.9209Z" fill="#FFB6EA"/>
<path d="M31.6961 18.6038L25.6892 21.7807L18.7258 25.4634L24.4128 26.7553L30.0998 28.0472L31.6961 18.6038Z" fill="#FFB6EA"/>
<path d="M29.4099 56.4052L59.2053 84.5827L57.574 33.5283L29.4099 56.4052Z" fill="#FFB6EA"/>
<path d="M60.9188 71.0813L61.3549 86.752L76.9162 101.522L60.9188 71.0813Z" fill="#FFB6EA"/>
<path d="M36.534 24.42L35.8803 48.329L45.0446 40.7998L36.534 24.42Z" fill="#FD7BCD"/>
<path d="M57.9003 44.2593L57.5632 33.5305L29.4172 56.4541L35.4714 61.9793L57.9003 44.2593Z" fill="#FD7BCD"/>
<path d="M36.928 50.2742L58.8595 74.3504L59.2066 84.5949L29.4172 56.4143L36.928 50.2742Z" fill="#FB44B8"/>
<path d="M25.6162 21.8142L24.3417 26.7353L18.6874 25.4602L25.6162 21.8142Z" fill="#FD7BCD"/>
<path d="M29.9093 42.3396L35.8966 48.3009L27.8002 54.9495L29.9093 42.3396Z" fill="#FFBFE7"/>
<path d="M60.2273 49.482L81.3723 32.7056L59.7046 33.5729L60.2273 49.482Z" fill="#FB44B8"/>
<path d="M64.5779 89.776L72.4332 92.9538L76.8841 101.483L64.5779 89.776Z" fill="#FFBFE7"/>
</mask>
<g mask="url(#mask0_2266_73)">
<rect x="-56" y="-30" width="570" height="173" fill="white"/>
</g>
</svg>
