<svg width="161" height="42" viewBox="0 0 161 42" fill="none" xmlns="http://www.w3.org/2000/svg">
<path d="M153.152 33.8447V32.8361C153.894 32.8361 154.427 32.7897 154.752 32.697C155.099 32.6043 155.308 32.4304 155.378 32.1753C155.47 31.8971 155.517 31.4914 155.517 30.9581V20.5945C155.517 19.9917 155.447 19.5976 155.308 19.4121C155.169 19.2034 154.902 19.0991 154.508 19.0991H153.291V18.0558L157.534 17.3603H158.473V30.9581C158.473 31.5146 158.519 31.9319 158.612 32.2101C158.705 32.4652 158.913 32.639 159.238 32.7318C159.586 32.8013 160.131 32.8361 160.872 32.8361V33.8447H153.152ZM156.908 14.2999C156.328 14.2999 155.865 14.1144 155.517 13.7434C155.169 13.3725 154.995 12.932 154.995 12.4219C154.995 11.8655 155.169 11.4018 155.517 11.0308C155.865 10.6598 156.328 10.4744 156.908 10.4744C157.302 10.4744 157.638 10.5671 157.916 10.7526C158.218 10.9149 158.438 11.1467 158.577 11.4481C158.739 11.7263 158.821 12.0509 158.821 12.4219C158.821 12.932 158.635 13.3725 158.264 13.7434C157.916 14.1144 157.464 14.2999 156.908 14.2999Z" fill="#0C0C0C"/>
<path d="M143.886 33.8447V32.8361C144.604 32.8361 145.114 32.8013 145.416 32.7318C145.74 32.6622 145.949 32.4999 146.042 32.2449C146.135 31.9899 146.181 31.5841 146.181 31.0277V22.5768C146.181 21.8581 146.077 21.2205 145.868 20.6641C145.683 20.1077 145.37 19.6671 144.929 19.3426C144.512 19.018 143.944 18.8557 143.225 18.8557C142.553 18.8557 141.95 19.0064 141.417 19.3078C140.906 19.586 140.443 19.957 140.025 20.4206C139.631 20.8843 139.26 21.3944 138.913 21.9508V20.3163C139.585 19.3657 140.396 18.6122 141.347 18.0558C142.298 17.4762 143.422 17.1864 144.72 17.1864C146.204 17.1864 147.305 17.5921 148.024 18.4036C148.743 19.215 149.102 20.4786 149.102 22.1943V30.9581C149.102 31.5146 149.137 31.9319 149.207 32.2101C149.299 32.4652 149.52 32.639 149.867 32.7318C150.215 32.8013 150.76 32.8361 151.502 32.8361V33.8447H143.886ZM124.097 33.8447V32.8361C124.863 32.8361 125.407 32.7897 125.732 32.697C126.057 32.6043 126.254 32.4304 126.323 32.1753C126.416 31.8971 126.462 31.4914 126.462 30.9581V20.5945C126.462 19.9917 126.393 19.5976 126.254 19.4121C126.115 19.2034 125.848 19.0991 125.454 19.0991H124.271V18.0558L128.375 17.3603H129.314V19.8642H129.418V31.0277C129.418 31.5841 129.465 31.9899 129.557 32.2449C129.65 32.4999 129.859 32.6622 130.183 32.7318C130.531 32.8013 131.041 32.8361 131.714 32.8361V33.8447H124.097ZM134.044 33.8447V32.8361C134.762 32.8361 135.273 32.8013 135.574 32.7318C135.899 32.6622 136.107 32.4999 136.2 32.2449C136.293 31.9899 136.339 31.5841 136.339 31.0277V22.5768C136.339 21.8581 136.246 21.2205 136.061 20.6641C135.875 20.1077 135.562 19.6671 135.122 19.3426C134.681 19.018 134.09 18.8557 133.348 18.8557C132.699 18.8557 132.108 18.9948 131.575 19.273C131.064 19.5512 130.601 19.9222 130.183 20.3859C129.789 20.8264 129.418 21.3133 129.071 21.8465V20.2468C129.581 19.5976 130.114 19.0527 130.67 18.6122C131.25 18.1485 131.888 17.8008 132.583 17.5689C133.279 17.3139 134.032 17.1864 134.844 17.1864C135.841 17.1864 136.664 17.3603 137.313 17.708C137.962 18.0558 138.449 18.5311 138.773 19.1339C139.098 19.7367 139.26 20.4207 139.26 21.1858V30.9581C139.26 31.4914 139.307 31.8971 139.399 32.1753C139.492 32.4304 139.689 32.6043 139.991 32.697C140.315 32.7897 140.837 32.8361 141.556 32.8361V33.8447H134.044Z" fill="#0C0C0C"/>
<path d="M119.986 34.1924C119.568 34.1924 119.186 34.1345 118.838 34.0185C118.513 33.9026 118.247 33.6476 118.038 33.2534C117.853 32.8593 117.76 32.2449 117.76 31.4103V21.9508C117.76 20.838 117.528 19.9801 117.064 19.3773C116.601 18.7513 115.778 18.4383 114.595 18.4383C114.016 18.4383 113.482 18.5195 112.995 18.6818C112.532 18.8209 112.149 18.9948 111.848 19.2034C111.57 19.4121 111.43 19.6092 111.43 19.7947C111.43 19.9801 111.512 20.1308 111.674 20.2468C111.859 20.3627 112.033 20.5134 112.195 20.6989C112.381 20.8843 112.474 21.1857 112.474 21.6031C112.474 22.09 112.335 22.4841 112.056 22.7855C111.778 23.0637 111.384 23.2028 110.874 23.2028C110.341 23.2028 109.912 23.0405 109.587 22.7159C109.286 22.3914 109.135 21.9393 109.135 21.3596C109.135 20.6641 109.355 20.0033 109.796 19.3773C110.26 18.7513 110.967 18.2413 111.917 17.8471C112.868 17.4298 114.073 17.2211 115.534 17.2211C117.203 17.2211 118.479 17.5689 119.36 18.2645C120.241 18.9368 120.681 20.2004 120.681 22.0552V30.2974C120.681 31.2248 120.774 31.8508 120.959 32.1753C121.168 32.4999 121.493 32.6622 121.933 32.6622C122.142 32.6622 122.316 32.639 122.455 32.5927C122.594 32.5463 122.745 32.4883 122.907 32.4188L123.15 33.2882C122.895 33.4505 122.513 33.636 122.003 33.8447C121.516 34.0765 120.843 34.1924 119.986 34.1924ZM112.543 34.2272C111.338 34.2272 110.318 33.949 109.483 33.3925C108.648 32.8129 108.231 31.9319 108.231 30.7495C108.231 29.6366 108.625 28.6165 109.413 27.6891C110.202 26.7385 111.361 25.9386 112.891 25.2895C114.444 24.6171 116.346 24.1418 118.595 23.8636V24.9069C116.16 25.3474 114.34 25.9734 113.134 26.7849C111.952 27.5963 111.361 28.6397 111.361 29.9148C111.361 30.7263 111.593 31.3407 112.056 31.758C112.543 32.1522 113.216 32.3492 114.073 32.3492C114.699 32.3492 115.279 32.2333 115.812 32.0015C116.346 31.7696 116.832 31.4914 117.273 31.1668C117.737 30.819 118.166 30.4829 118.56 30.1583V31.2711C117.957 31.8276 117.343 32.326 116.717 32.7666C116.114 33.2071 115.476 33.5664 114.804 33.8447C114.131 34.0997 113.378 34.2272 112.543 34.2272Z" fill="#0C0C0C"/>
<path d="M95.8361 41.2174C94.5377 41.2174 93.3437 41.0667 92.254 40.7653C91.1875 40.4639 90.3297 39.9886 89.6805 39.3394C89.0545 38.7135 88.7415 37.902 88.7415 36.9051C88.7415 36.0472 89.0313 35.3169 89.611 34.7141C90.1906 34.1113 91.1875 33.6012 92.6018 33.1839L94.8623 33.4273C93.9581 33.5664 93.2626 33.8099 92.7757 34.1576C92.2888 34.5286 91.9526 34.9343 91.7672 35.3749C91.6049 35.8154 91.5237 36.2327 91.5237 36.6268C91.5237 37.6933 91.9526 38.5396 92.8105 39.1656C93.6683 39.7916 94.8275 40.1046 96.2882 40.1046C97.2619 40.1046 98.1198 39.9539 98.8617 39.6525C99.6268 39.3742 100.218 38.9569 100.635 38.4005C101.076 37.844 101.296 37.1601 101.296 36.3486C101.296 35.4676 100.972 34.8068 100.322 34.3663C99.6732 33.949 98.5255 33.7403 96.8794 33.7403H93.4364C92.6482 33.7403 91.9526 33.6012 91.3498 33.323C90.7702 33.0448 90.3181 32.6854 89.9935 32.2449C89.6689 31.8044 89.5066 31.3291 89.5066 30.819C89.5066 30.0308 89.8892 29.2888 90.6543 28.5933C91.4194 27.8977 92.5438 27.2834 94.0277 26.7501L95.2796 27.1327C95.1405 27.1558 94.8855 27.237 94.5145 27.3761C94.1668 27.5152 93.7958 27.7007 93.4017 27.9325C93.0075 28.1644 92.6713 28.431 92.3931 28.7324C92.1149 29.0338 91.9758 29.37 91.9758 29.7409C91.9758 30.0887 92.1845 30.4249 92.6018 30.7495C93.0423 31.0509 93.877 31.2016 95.1058 31.2016H97.6445C99.847 31.2016 101.447 31.5841 102.444 32.3492C103.441 33.0912 103.939 34.1808 103.939 35.6183C103.939 36.9398 103.568 38.0063 102.826 38.8178C102.084 39.6525 101.099 40.2553 99.8702 40.6262C98.6414 41.0204 97.2967 41.2174 95.8361 41.2174ZM95.9752 28.0369C94.9087 28.0369 93.8654 27.863 92.8452 27.5152C91.8483 27.1674 91.0252 26.611 90.3761 25.8459C89.7269 25.0576 89.4023 24.0027 89.4023 22.6812C89.4023 21.6842 89.5878 20.838 89.9587 20.1424C90.3529 19.4469 90.8745 18.8789 91.5237 18.4383C92.1729 17.9978 92.8916 17.6848 93.6799 17.4994C94.4682 17.2907 95.2565 17.1864 96.0447 17.1864C97.1808 17.1864 98.2357 17.3718 99.2095 17.7428C100.206 18.1138 101.006 18.705 101.609 19.5164C102.235 20.3047 102.548 21.348 102.548 22.6464C102.548 23.9679 102.223 25.0228 101.574 25.8111C100.948 26.5994 100.125 27.1674 99.1051 27.5152C98.1082 27.863 97.0649 28.0369 95.9752 28.0369ZM95.9056 26.924C97.2503 26.924 98.1777 26.5414 98.6878 25.7763C99.2211 24.9881 99.4877 23.8868 99.4877 22.4725C99.4877 21.661 99.3834 20.9423 99.1747 20.3163C98.966 19.6903 98.6182 19.2034 98.1314 18.8557C97.6445 18.5079 96.9605 18.334 96.0795 18.334C94.7812 18.334 93.877 18.7282 93.3669 19.5164C92.8568 20.3047 92.6018 21.3712 92.6018 22.7159C92.6018 23.9216 92.8336 24.9301 93.2973 25.7416C93.761 26.5298 94.6305 26.924 95.9056 26.924ZM105.017 21.0466C104.6 21.0466 104.264 20.9307 104.009 20.6989C103.754 20.4438 103.626 20.1656 103.626 19.8642C103.626 19.6324 103.649 19.4585 103.696 19.3426C103.742 19.2266 103.765 19.1107 103.765 18.9948C103.765 18.8557 103.707 18.7282 103.591 18.6122C103.475 18.4963 103.302 18.4383 103.07 18.4383C102.861 18.4383 102.594 18.5659 102.27 18.8209C101.968 19.0527 101.644 19.4701 101.296 20.0729L100.601 19.4121C100.995 18.7166 101.47 18.1717 102.026 17.7776C102.606 17.3834 103.232 17.1864 103.904 17.1864C104.669 17.1864 105.284 17.395 105.748 17.8124C106.211 18.2065 106.443 18.7397 106.443 19.4121C106.443 19.899 106.316 20.2931 106.061 20.5945C105.829 20.8959 105.481 21.0466 105.017 21.0466Z" fill="#0C0C0C"/>
<path d="M79.1118 33.8447V32.8361C79.8537 32.8361 80.3869 32.7897 80.7115 32.697C81.0593 32.6043 81.268 32.4304 81.3375 32.1753C81.4302 31.8971 81.4766 31.4914 81.4766 30.9581V20.5945C81.4766 19.9917 81.4071 19.5976 81.2679 19.4121C81.1288 19.2034 80.8622 19.0991 80.4681 19.0991H79.2509V18.0558L83.4937 17.3603H84.4327V30.9581C84.4327 31.5146 84.4791 31.9319 84.5718 32.2101C84.6645 32.4652 84.8732 32.639 85.1978 32.7318C85.5456 32.8013 86.0904 32.8361 86.8323 32.8361V33.8447H79.1118ZM82.8677 14.2999C82.2881 14.2999 81.8244 14.1144 81.4766 13.7434C81.1288 13.3725 80.955 12.932 80.955 12.4219C80.955 11.8655 81.1288 11.4018 81.4766 11.0308C81.8244 10.6598 82.2881 10.4744 82.8677 10.4744C83.2618 10.4744 83.598 10.5671 83.8763 10.7526C84.1777 10.9149 84.3979 11.1467 84.537 11.4481C84.6993 11.7263 84.7805 12.0509 84.7805 12.4219C84.7805 12.932 84.595 13.3725 84.224 13.7434C83.8762 14.1144 83.4241 14.2999 82.8677 14.2999Z" fill="#0C0C0C"/>
<path d="M66.1214 33.8447V32.8361C66.8865 32.8361 67.4313 32.7897 67.7559 32.697C68.0805 32.6043 68.2776 32.4304 68.3471 32.1753C68.4399 31.8971 68.4862 31.4914 68.4862 30.9581V20.5945C68.4862 19.9917 68.4167 19.5976 68.2776 19.4121C68.1385 19.2034 67.8719 19.0991 67.4777 19.0991H66.2953V18.0558L70.399 17.3603H71.338V20.6293H71.4423V30.9581C71.4423 31.5146 71.4887 31.9319 71.5814 32.2101C71.6973 32.4652 71.9408 32.639 72.3117 32.7318C72.6827 32.8013 73.2739 32.8361 74.0854 32.8361V33.8447H66.1214ZM71.3032 24.0375V20.838C71.4655 20.5366 71.6626 20.1772 71.8944 19.7599C72.1263 19.3426 72.4161 18.9368 72.7638 18.5427C73.1116 18.1485 73.5289 17.8239 74.0158 17.5689C74.5027 17.2907 75.0591 17.1516 75.6851 17.1516C76.5198 17.1516 77.1574 17.395 77.5979 17.8819C78.0616 18.3688 78.2934 19.0412 78.2934 19.899C78.2934 20.5482 78.1311 21.0814 77.8065 21.4987C77.5051 21.9161 77.0067 22.1247 76.3111 22.1247C75.7083 22.1247 75.2562 21.9624 74.9548 21.6379C74.6534 21.3133 74.5027 20.9307 74.5027 20.4902C74.5027 20.1424 74.5723 19.8642 74.7114 19.6556C74.8505 19.4469 74.9896 19.273 75.1287 19.1339C75.2678 18.9948 75.3374 18.8557 75.3374 18.7166C75.3374 18.6238 75.3026 18.5543 75.233 18.5079C75.1635 18.4383 75.0475 18.4036 74.8852 18.4036C74.5375 18.4036 74.1665 18.5543 73.7724 18.8557C73.3782 19.1339 72.9957 19.5396 72.6247 20.0729C72.277 20.5829 71.9872 21.1742 71.7553 21.8465C71.5466 22.5189 71.4423 23.2376 71.4423 24.0027L71.3032 24.0375Z" fill="#0C0C0C"/>
<path d="M54.308 34.262C51.8736 34.262 49.8797 33.7519 48.3263 32.7318C46.7729 31.6885 45.6253 30.2742 44.8834 28.489C44.1415 26.6805 43.7705 24.6519 43.7705 22.4029C43.7705 20.7568 43.9676 19.215 44.3617 17.7776C44.7791 16.3169 45.405 15.0418 46.2397 13.9521C47.0975 12.8624 48.1872 12.0162 49.5088 11.4133C50.8535 10.7874 52.4532 10.4744 54.308 10.4744C56.1628 10.4744 57.7509 10.7874 59.0725 11.4133C60.394 12.0162 61.4721 12.8624 62.3068 13.9521C63.1646 15.0418 63.7906 16.3169 64.1847 17.7776C64.6021 19.215 64.8107 20.7568 64.8107 22.4029C64.8107 24.6519 64.4398 26.6805 63.6979 28.489C62.9791 30.2742 61.8431 31.6885 60.2897 32.7318C58.7363 33.7519 56.7424 34.262 54.308 34.262ZM54.308 33.0796C55.3977 33.0796 56.3367 32.8825 57.125 32.4883C57.9132 32.071 58.5624 31.5146 59.0725 30.819C59.5825 30.1235 59.9883 29.3236 60.2897 28.4194C60.5911 27.492 60.7998 26.5183 60.9157 25.4981C61.0316 24.478 61.0896 23.4463 61.0896 22.4029C61.0896 20.9887 60.9852 19.644 60.7766 18.3688C60.5911 17.0704 60.2549 15.9228 59.768 14.9259C59.2812 13.9057 58.5972 13.1058 57.7162 12.5262C56.8351 11.9466 55.6991 11.6568 54.308 11.6568C52.9169 11.6568 51.7693 11.9466 50.8651 12.5262C49.984 13.1058 49.3001 13.9057 48.8132 14.9259C48.3263 15.9228 47.9786 17.0704 47.7699 18.3688C47.5844 19.644 47.4917 20.9887 47.4917 22.4029C47.4917 23.4463 47.5496 24.478 47.6656 25.4981C47.8047 26.5183 48.0133 27.492 48.2915 28.4194C48.593 29.3236 48.9987 30.1235 49.5088 30.819C50.042 31.5146 50.7028 32.071 51.4911 32.4883C52.2793 32.8825 53.2183 33.0796 54.308 33.0796Z" fill="#0C0C0C"/>
<path d="M22.711 23.9691L37.9653 12.773L22.7091 12.8939L22.711 23.9691Z" fill="#FFB6EA"/>
<path d="M10.5327 20.502L17.1446 15.4294L15.1641 11.289L13.1836 7.14857L12.0401 12.9089L10.5327 20.502Z" fill="#FFB6EA"/>
<path d="M12.4086 6.97121L10.126 8.08855L7.47982 9.38383L9.59065 9.93328L11.7015 10.4827L12.4086 6.97121Z" fill="#FFB6EA"/>
<path d="M11.112 21.0756L21.9207 31.9575L21.9079 12.8529L11.112 21.0756Z" fill="#FFB6EA"/>
<path d="M22.7192 26.9303L22.699 32.7935L28.3435 38.4968L22.7192 26.9303Z" fill="#FFB6EA"/>
<path d="M14.1491 9.20182L13.6252 18.132L17.1391 15.4245L14.1491 9.20182Z" fill="#FD7BCD"/>
<path d="M21.9045 16.8681L21.9039 12.8534L11.1142 21.0937L13.3128 23.2299L21.9045 16.8681Z" fill="#FD7BCD"/>
<path d="M13.994 18.8714L21.911 28.1282L21.921 31.9619L11.1145 21.0789L13.994 18.8714Z" fill="#FB44B8"/>
<path d="M10.0982 8.09989L9.56424 9.9246L7.46541 9.38184L10.0982 8.09989Z" fill="#FD7BCD"/>
<path d="M11.463 15.8233L13.6315 18.1218L10.5271 20.5125L11.463 15.8233Z" fill="#FFBFE7"/>
<path d="M22.7131 18.8477L30.8138 12.8235L22.7038 12.8943L22.7131 18.8477Z" fill="#FB44B8"/>
<path d="M23.8684 33.9616L26.7677 35.2414L28.3318 38.4818L23.8684 33.9616Z" fill="#FFBFE7"/>
</svg>
