<svg width="600" height="133" viewBox="0 0 600 133" fill="none" xmlns="http://www.w3.org/2000/svg">
<path d="M172.082 104.431C162.267 104.431 154.229 102.374 147.966 98.2614C141.704 94.0552 137.077 88.3534 134.086 81.156C131.095 73.8652 129.599 65.6864 129.599 56.6196C129.599 49.9831 130.394 43.7672 131.983 37.972C133.665 32.0832 136.189 26.9423 139.554 22.5491C143.012 18.1559 147.405 14.7442 152.733 12.3139C158.155 9.79017 164.604 8.5283 172.082 8.5283C179.56 8.5283 185.963 9.79017 191.29 12.3139C196.618 14.7442 200.965 18.1559 204.33 22.5491C207.788 26.9423 210.312 32.0832 211.901 37.972C213.584 43.7672 214.425 49.9831 214.425 56.6196C214.425 65.6864 212.929 73.8652 209.938 81.156C207.041 88.3534 202.46 94.0552 196.198 98.2614C189.935 102.374 181.897 104.431 172.082 104.431ZM172.082 99.6635C176.475 99.6635 180.261 98.869 183.439 97.2799C186.617 95.5974 189.234 93.3541 191.29 90.55C193.347 87.7458 194.983 84.521 196.198 80.8756C197.413 77.1367 198.254 73.2109 198.722 69.0981C199.189 64.9854 199.423 60.8259 199.423 56.6196C199.423 50.9178 199.002 45.4965 198.161 40.3555C197.413 35.1211 196.058 30.4942 194.095 26.4749C192.132 22.3622 189.374 19.1374 185.822 16.8006C182.27 14.4638 177.69 13.2954 172.082 13.2954C166.474 13.2954 161.847 14.4638 158.201 16.8006C154.649 19.1374 151.892 22.3622 149.929 26.4749C147.966 30.4942 146.564 35.1211 145.723 40.3555C144.975 45.4965 144.601 50.9178 144.601 56.6196C144.601 60.8259 144.835 64.9854 145.302 69.0981C145.863 73.2109 146.704 77.1367 147.826 80.8756C149.041 84.521 150.677 87.7458 152.733 90.55C154.883 93.3541 157.547 95.5974 160.725 97.2799C163.903 98.869 167.689 99.6635 172.082 99.6635ZM218.307 102.748V98.682C221.391 98.682 223.588 98.4951 224.897 98.1212C226.205 97.7473 227 97.0463 227.28 96.0181C227.654 94.8964 227.841 93.2606 227.841 91.1108V49.3288C227.841 46.8985 227.561 45.3095 227 44.5617C226.439 43.7205 225.364 43.2999 223.775 43.2999H219.008V39.0936L235.552 36.2895H239.338V49.469H239.759V91.1108C239.759 93.3541 239.946 95.0366 240.319 96.1583C240.787 97.1865 241.768 97.8875 243.264 98.2614C244.759 98.5418 247.143 98.682 250.414 98.682V102.748H218.307ZM239.198 63.2094V50.3103C239.852 49.0951 240.647 47.6463 241.581 45.9638C242.516 44.2813 243.684 42.6456 245.087 41.0565C246.489 39.4675 248.171 38.1589 250.134 37.1307C252.097 36.0091 254.34 35.4482 256.864 35.4482C260.229 35.4482 262.799 36.4297 264.575 38.3926C266.445 40.3555 267.38 43.0662 267.38 46.5247C267.38 49.1419 266.725 51.2917 265.417 52.9742C264.202 54.6567 262.192 55.498 259.388 55.498C256.957 55.498 255.135 54.8437 253.92 53.5351C252.704 52.2264 252.097 50.6842 252.097 48.9082C252.097 47.5061 252.377 46.3844 252.938 45.5432C253.499 44.702 254.06 44.0009 254.621 43.4401C255.182 42.8793 255.462 42.3184 255.462 41.7576C255.462 41.3837 255.322 41.1033 255.041 40.9163C254.761 40.6359 254.294 40.4957 253.639 40.4957C252.237 40.4957 250.742 41.1033 249.153 42.3184C247.564 43.4401 246.021 45.0758 244.526 47.2257C243.124 49.2821 241.955 51.6656 241.02 54.3763C240.179 57.087 239.759 59.9846 239.759 63.0692L239.198 63.2094ZM269.277 102.748V98.682C272.268 98.682 274.418 98.4951 275.726 98.1212C277.128 97.7473 277.97 97.0463 278.25 96.0181C278.624 94.8964 278.811 93.2606 278.811 91.1108V49.3288C278.811 46.8985 278.531 45.3095 277.97 44.5617C277.409 43.7205 276.334 43.2999 274.745 43.2999H269.838V39.0936L286.943 36.2895H290.729V91.1108C290.729 93.3541 290.916 95.0366 291.289 96.1583C291.663 97.1865 292.505 97.8875 293.813 98.2614C295.215 98.5418 297.412 98.682 300.403 98.682V102.748H269.277ZM284.419 23.9512C282.082 23.9512 280.213 23.2034 278.811 21.7079C277.409 20.2123 276.708 18.4363 276.708 16.3799C276.708 14.1366 277.409 12.2672 278.811 10.7716C280.213 9.27608 282.082 8.5283 284.419 8.5283C286.008 8.5283 287.364 8.90219 288.485 9.64997C289.7 10.3043 290.588 11.239 291.149 12.4541C291.804 13.5758 292.131 14.8844 292.131 16.3799C292.131 18.4363 291.383 20.2123 289.887 21.7079C288.485 23.2034 286.663 23.9512 284.419 23.9512ZM335.3 132.472C330.066 132.472 325.252 131.865 320.859 130.649C316.559 129.434 313.101 127.518 310.484 124.901C307.96 122.377 306.698 119.106 306.698 115.086C306.698 111.628 307.866 108.684 310.203 106.253C312.54 103.823 316.559 101.767 322.261 100.084L331.375 101.066C327.729 101.626 324.925 102.608 322.962 104.01C320.999 105.505 319.644 107.141 318.896 108.917C318.242 110.693 317.915 112.376 317.915 113.965C317.915 118.264 319.644 121.676 323.102 124.2C326.561 126.724 331.234 127.985 337.123 127.985C341.049 127.985 344.507 127.378 347.499 126.163C350.583 125.041 352.967 123.359 354.649 121.115C356.425 118.872 357.313 116.115 357.313 112.843C357.313 109.291 356.005 106.627 353.387 104.851C350.77 103.169 346.143 102.327 339.507 102.327H325.626C322.448 102.327 319.644 101.767 317.214 100.645C314.877 99.5233 313.054 98.0744 311.746 96.2985C310.437 94.5225 309.783 92.6063 309.783 90.55C309.783 87.3719 311.325 84.3808 314.409 81.5766C317.494 78.7725 322.027 76.2955 328.01 74.1456L333.057 75.6879C332.496 75.7814 331.468 76.1085 329.973 76.6694C328.571 77.2302 327.075 77.978 325.486 78.9127C323.897 79.8474 322.542 80.9223 321.42 82.1375C320.298 83.3526 319.737 84.708 319.737 86.2035C319.737 87.6056 320.579 88.9609 322.261 90.2695C324.037 91.4847 327.402 92.0922 332.356 92.0922H342.591C351.471 92.0922 357.921 93.6345 361.94 96.7191C365.959 99.7102 367.969 104.103 367.969 109.899C367.969 115.227 366.473 119.526 363.482 122.798C360.491 126.163 356.519 128.593 351.565 130.089C346.611 131.678 341.189 132.472 335.3 132.472ZM335.861 79.3333C331.562 79.3333 327.355 78.6323 323.243 77.2302C319.223 75.8281 315.905 73.5848 313.288 70.5002C310.671 67.3222 309.362 63.0692 309.362 57.7413C309.362 53.722 310.11 50.3103 311.605 47.5061C313.194 44.702 315.297 42.4119 317.915 40.6359C320.532 38.86 323.43 37.5981 326.608 36.8503C329.786 36.0091 332.964 35.5884 336.142 35.5884C340.722 35.5884 344.975 36.3362 348.901 37.8318C352.92 39.3273 356.145 41.7109 358.575 44.9824C361.099 48.1604 362.361 52.3667 362.361 57.6011C362.361 62.929 361.052 67.182 358.435 70.36C355.911 73.5381 352.593 75.8281 348.48 77.2302C344.461 78.6323 340.254 79.3333 335.861 79.3333ZM335.581 74.8467C341.002 74.8467 344.741 73.3044 346.798 70.2198C348.947 67.0418 350.022 62.6018 350.022 56.9C350.022 53.6285 349.602 50.7309 348.76 48.2072C347.919 45.6834 346.517 43.7205 344.554 42.3184C342.591 40.9163 339.834 40.2153 336.282 40.2153C331.048 40.2153 327.402 41.8043 325.346 44.9824C323.289 48.1604 322.261 52.4601 322.261 57.8815C322.261 62.742 323.196 66.8081 325.065 70.0796C326.935 73.2576 330.44 74.8467 335.581 74.8467ZM372.315 51.1515C370.633 51.1515 369.278 50.6842 368.249 49.7494C367.221 48.7212 366.707 47.5996 366.707 46.3845C366.707 45.4497 366.801 44.7487 366.987 44.2813C367.174 43.814 367.268 43.3466 367.268 42.8793C367.268 42.3184 367.034 41.8043 366.567 41.337C366.099 40.8696 365.398 40.6359 364.464 40.6359C363.622 40.6359 362.548 41.15 361.239 42.1782C360.024 43.1129 358.715 44.7954 357.313 47.2257L354.509 44.5617C356.098 41.7576 358.014 39.561 360.257 37.972C362.594 36.3829 365.118 35.5884 367.829 35.5884C370.913 35.5884 373.39 36.4297 375.26 38.1122C377.129 39.7012 378.064 41.8511 378.064 44.5617C378.064 46.5247 377.55 48.1137 376.522 49.3288C375.587 50.544 374.185 51.1515 372.315 51.1515ZM431.26 104.15C429.577 104.15 428.035 103.916 426.633 103.449C425.324 102.982 424.249 101.954 423.408 100.365C422.66 98.7755 422.286 96.2985 422.286 92.9335V54.7969C422.286 50.3103 421.352 46.8518 419.482 44.4215C417.613 41.8978 414.295 40.6359 409.527 40.6359C407.191 40.6359 405.041 40.9631 403.078 41.6174C401.208 42.1782 399.666 42.8793 398.451 43.7205C397.329 44.5617 396.769 45.3563 396.769 46.104C396.769 46.8518 397.096 47.4594 397.75 47.9267C398.498 48.3941 399.199 49.0017 399.853 49.7494C400.601 50.4972 400.975 51.7124 400.975 53.3948C400.975 55.3578 400.414 56.9468 399.292 58.1619C398.171 59.2836 396.582 59.8444 394.525 59.8444C392.375 59.8444 390.646 59.1901 389.338 57.8815C388.122 56.5729 387.515 54.7502 387.515 52.4134C387.515 49.6092 388.403 46.9453 390.179 44.4215C392.048 41.8978 394.899 39.8414 398.731 38.2524C402.564 36.5699 407.424 35.7286 413.313 35.7286C420.043 35.7286 425.184 37.1307 428.736 39.9349C432.288 42.6456 434.064 47.7398 434.064 55.2176V88.4468C434.064 92.1857 434.438 94.7095 435.186 96.0181C436.027 97.3267 437.335 97.981 439.111 97.981C439.953 97.981 440.654 97.8875 441.214 97.7006C441.775 97.5136 442.383 97.2799 443.037 96.9995L444.019 100.505C442.99 101.159 441.448 101.907 439.392 102.748C437.429 103.683 434.718 104.15 431.26 104.15ZM401.255 104.29C396.395 104.29 392.282 103.169 388.917 100.925C385.552 98.5885 383.869 95.0366 383.869 90.2695C383.869 85.7829 385.458 81.6701 388.636 77.9312C391.815 74.0989 396.488 70.8741 402.657 68.2569C408.92 65.5462 416.585 63.63 425.651 62.5084V66.7146C415.837 68.4906 408.499 71.0143 403.639 74.2858C398.872 77.5574 396.488 81.7636 396.488 86.9045C396.488 90.1761 397.423 92.6531 399.292 94.3356C401.255 95.9246 403.966 96.7191 407.424 96.7191C409.948 96.7191 412.285 96.2517 414.435 95.317C416.585 94.3823 418.547 93.2606 420.323 91.952C422.193 90.55 423.922 89.1946 425.511 87.886V92.3727C423.081 94.616 420.604 96.6256 418.08 98.4016C415.65 100.178 413.079 101.626 410.369 102.748C407.658 103.776 404.62 104.29 401.255 104.29ZM526.213 102.748V98.682C529.111 98.682 531.167 98.5418 532.382 98.2614C533.691 97.981 534.532 97.3267 534.906 96.2985C535.28 95.2703 535.467 93.6345 535.467 91.3912V57.3207C535.467 54.423 535.046 51.8526 534.205 49.6092C533.457 47.3659 532.196 45.5899 530.42 44.2813C528.737 42.9727 526.447 42.3184 523.549 42.3184C520.839 42.3184 518.408 42.926 516.259 44.1411C514.202 45.2628 512.333 46.7583 510.65 48.6278C509.061 50.4972 507.566 52.5536 506.164 54.7969V48.2072C508.874 44.3748 512.146 41.337 515.978 39.0936C519.81 36.7568 524.344 35.5884 529.578 35.5884C535.561 35.5884 540 37.2242 542.898 40.4957C545.796 43.7672 547.245 48.8615 547.245 55.7784V91.1108C547.245 93.3541 547.385 95.0366 547.665 96.1583C548.039 97.1865 548.927 97.8875 550.329 98.2614C551.731 98.5418 553.928 98.682 556.919 98.682V102.748H526.213ZM446.435 102.748V98.682C449.52 98.682 451.716 98.4951 453.025 98.1212C454.333 97.7473 455.128 97.0463 455.408 96.0181C455.782 94.8964 455.969 93.2606 455.969 91.1108V49.3288C455.969 46.8985 455.689 45.3095 455.128 44.5617C454.567 43.7205 453.492 43.2999 451.903 43.2999H447.136V39.0936L463.681 36.2895H467.466V46.3845H467.887V91.3912C467.887 93.6345 468.074 95.2703 468.448 96.2985C468.822 97.3267 469.663 97.981 470.971 98.2614C472.373 98.5418 474.43 98.682 477.141 98.682V102.748H446.435ZM486.534 102.748V98.682C489.432 98.682 491.488 98.5418 492.704 98.2614C494.012 97.981 494.853 97.3267 495.227 96.2985C495.601 95.2703 495.788 93.6345 495.788 91.3912V57.3207C495.788 54.423 495.414 51.8526 494.667 49.6092C493.919 47.3659 492.657 45.5899 490.881 44.2813C489.105 42.9727 486.721 42.3184 483.73 42.3184C481.113 42.3184 478.73 42.8792 476.58 44.0009C474.523 45.1226 472.654 46.6181 470.971 48.4876C469.382 50.2635 467.887 52.2264 466.485 54.3763V47.9267C468.541 45.3095 470.691 43.1129 472.934 41.337C475.271 39.4675 477.842 38.0654 480.646 37.1307C483.45 36.1025 486.488 35.5884 489.759 35.5884C493.779 35.5884 497.097 36.2895 499.714 37.6916C502.331 39.0936 504.294 41.0098 505.603 43.4401C506.911 45.8704 507.566 48.6278 507.566 51.7124V91.1108C507.566 93.2606 507.753 94.8964 508.126 96.0181C508.5 97.0463 509.295 97.7473 510.51 98.1212C511.819 98.4951 513.922 98.682 516.819 98.682V102.748H486.534ZM562.169 102.748V98.682C565.16 98.682 567.31 98.4951 568.619 98.1212C570.021 97.7473 570.862 97.0463 571.142 96.0181C571.516 94.8964 571.703 93.2606 571.703 91.1108V49.3288C571.703 46.8985 571.423 45.3095 570.862 44.5617C570.301 43.7205 569.226 43.2999 567.637 43.2999H562.73V39.0936L579.835 36.2895H583.621V91.1108C583.621 93.3541 583.808 95.0366 584.182 96.1583C584.556 97.1865 585.397 97.8875 586.705 98.2614C588.107 98.5418 590.304 98.682 593.295 98.682V102.748H562.169ZM577.311 23.9512C574.975 23.9512 573.105 23.2034 571.703 21.7079C570.301 20.2123 569.6 18.4363 569.6 16.3799C569.6 14.1366 570.301 12.2672 571.703 10.7716C573.105 9.27608 574.975 8.5283 577.311 8.5283C578.9 8.5283 580.256 8.90219 581.377 9.64997C582.593 10.3043 583.481 11.239 584.041 12.4541C584.696 13.5758 585.023 14.8844 585.023 16.3799C585.023 18.4363 584.275 20.2123 582.78 21.7079C581.377 23.2034 579.555 23.9512 577.311 23.9512Z" fill="white"/>
<path d="M54.389 60.1492L106.164 19.8551L53.3005 21.7646L54.389 60.1492Z" fill="#FFB6EA"/>
<path d="M11.8493 49.3258L34.2696 31.0991L27.0011 16.9425L19.7326 2.78587L16.332 22.8619L11.8493 49.3258Z" fill="#FFB6EA"/>
<path d="M17.0237 2.24785L9.22165 6.34332L0.176994 11.0911L7.54641 12.7892L14.9159 14.4873L17.0237 2.24785Z" fill="#FFB6EA"/>
<path d="M13.911 51.2534L52.4353 87.9121L50.5247 21.7005L13.911 51.2534Z" fill="#FFB6EA"/>
<path d="M54.7148 70.4121L55.2176 90.7349L75.3375 109.951L54.7148 70.4121Z" fill="#FFB6EA"/>
<path d="M23.2773 9.80469L22.3337 40.8064L34.2478 31.0796L23.2773 9.80469Z" fill="#FD7BCD"/>
<path d="M50.8952 35.6149L50.5012 21.7008L13.9105 51.3142L21.7392 58.5034L50.8952 35.6149Z" fill="#FD7BCD"/>
<path d="M23.6816 43.3307L52.0249 74.6399L52.4338 87.9258L13.9172 51.263L23.6816 43.3307Z" fill="#FB44B8"/>
<path d="M9.13116 6.38296L7.45874 12.7592L0.13158 11.0832L9.13116 6.38296Z" fill="#FD7BCD"/>
<path d="M14.608 33.0164L22.348 40.7708L11.8224 49.3599L14.608 33.0164Z" fill="#FFBFE7"/>
<path d="M53.902 42.3995L81.3896 20.7293L53.2881 21.7671L53.902 42.3995Z" fill="#FB44B8"/>
<path d="M59.3867 94.6699L69.5607 98.8219L75.2979 109.9L59.3867 94.6699Z" fill="#FFBFE7"/>
</svg>
