<svg width="41" height="47" viewBox="0 0 41 47" fill="none" xmlns="http://www.w3.org/2000/svg">
<path d="M19.0818 12.5951C19.087 12.5998 19.0934 12.6028 19.1002 12.6039C19.1071 12.605 19.1141 12.604 19.1205 12.6012C19.1268 12.5984 19.1323 12.5938 19.1361 12.588C19.1399 12.5822 19.1419 12.5754 19.142 12.5685V0.527921C19.142 0.519253 19.1454 0.51094 19.1516 0.504811C19.1577 0.498682 19.166 0.495239 19.1747 0.495239H21.6843C21.6945 0.495239 21.7044 0.499317 21.7116 0.506575C21.7189 0.513833 21.723 0.523677 21.723 0.533941V12.6183C21.7229 12.6253 21.7248 12.632 21.7286 12.6378C21.7323 12.6435 21.7377 12.6481 21.7441 12.6508C21.7505 12.6536 21.7576 12.6544 21.7646 12.6532C21.7715 12.652 21.778 12.6489 21.7832 12.6442L34.9598 0.50728C34.9634 0.503858 34.9679 0.501582 34.9728 0.500744C34.9777 0.499906 34.9827 0.500542 34.9873 0.502573C34.9918 0.504603 34.9956 0.507936 34.9982 0.512144C35.0008 0.516352 35.0021 0.521246 35.002 0.526201V14.3315C35.002 14.3391 35.005 14.3463 35.0103 14.3516C35.0156 14.3569 35.0228 14.3599 35.0304 14.3599H40.434C40.4406 14.3599 40.4469 14.3626 40.4516 14.3675C40.4563 14.3723 40.4589 14.3789 40.4589 14.3857V34.3739C40.4589 34.3768 40.4584 34.3797 40.4573 34.3825C40.4562 34.3852 40.4546 34.3876 40.4526 34.3897C40.4506 34.3918 40.4482 34.3934 40.4456 34.3946C40.443 34.3957 40.4402 34.3963 40.4374 34.3963H35.0467C35.0389 34.3963 35.0315 34.3993 35.026 34.4048C35.0205 34.4103 35.0174 34.4177 35.0174 34.4255V46.6965C35.0176 46.7024 35.016 46.7081 35.0129 46.713C35.0098 46.718 35.0053 46.7219 35.0001 46.7244C34.9948 46.7268 34.9889 46.7277 34.9831 46.7269C34.9774 46.7261 34.972 46.7236 34.9676 46.7198L21.7883 35.1454C21.7826 35.1405 21.7757 35.1373 21.7682 35.1362C21.7608 35.1351 21.7532 35.1362 21.7464 35.1392C21.7395 35.1423 21.7337 35.1472 21.7295 35.1535C21.7254 35.1598 21.7231 35.1671 21.723 35.1746V46.8513C21.723 46.8648 21.7176 46.8777 21.7081 46.8872C21.6986 46.8967 21.6857 46.9021 21.6722 46.9021H19.1945C19.1803 46.9021 19.1667 46.8965 19.1567 46.8865C19.1467 46.8765 19.1411 46.8629 19.1411 46.8488V35.3414C19.1411 35.3358 19.1395 35.3302 19.1364 35.3255C19.1333 35.3207 19.1288 35.317 19.1236 35.3147C19.1184 35.3124 19.1127 35.3117 19.1071 35.3126C19.1015 35.3136 19.0963 35.3161 19.0921 35.3199L5.97479 46.872C5.97095 46.8752 5.96626 46.8773 5.96128 46.878C5.95629 46.8787 5.95121 46.878 5.94662 46.8759C5.94204 46.8739 5.93813 46.8705 5.93535 46.8663C5.93257 46.8621 5.93104 46.8572 5.93093 46.8522V34.447C5.93093 34.4335 5.92558 34.4206 5.91607 34.4111C5.90655 34.4016 5.89365 34.3963 5.88019 34.3963H0.528165C0.521388 34.3963 0.514678 34.3949 0.508417 34.3923C0.502156 34.3897 0.496468 34.3859 0.491676 34.3811C0.486885 34.3764 0.483084 34.3707 0.48049 34.3644C0.477897 34.3581 0.476562 34.3514 0.476562 34.3447V14.3926C0.476562 14.3839 0.480006 14.3756 0.486135 14.3695C0.492263 14.3634 0.500576 14.3599 0.509244 14.3599H5.86901C5.88224 14.3599 5.89492 14.3546 5.90428 14.3451C5.91363 14.3356 5.91889 14.3226 5.91889 14.3092V0.529641C5.91879 0.524518 5.92022 0.519481 5.92299 0.515173C5.92577 0.510864 5.92976 0.50748 5.93447 0.50545C5.93917 0.50342 5.94437 0.502838 5.94941 0.503776C5.95445 0.504715 5.95909 0.507132 5.96275 0.51072L19.0818 12.5951ZM8.49729 14.3315C8.49729 14.3391 8.50028 14.3463 8.5056 14.3516C8.51092 14.3569 8.51814 14.3599 8.52567 14.3599H17.1458C17.1515 14.36 17.1571 14.3583 17.1619 14.3552C17.1666 14.352 17.1703 14.3475 17.1725 14.3422C17.1746 14.3369 17.1751 14.3311 17.1739 14.3255C17.1726 14.3199 17.1698 14.3148 17.1656 14.3109L8.54459 6.37017C8.54054 6.36654 8.53553 6.36416 8.53016 6.36329C8.5248 6.36243 8.51929 6.36313 8.51431 6.3653C8.50933 6.36748 8.50508 6.37104 8.50206 6.37556C8.49904 6.38008 8.49738 6.38537 8.49729 6.39081V14.3315ZM32.3986 14.3599C32.4062 14.3599 32.4134 14.3569 32.4187 14.3516C32.424 14.3463 32.427 14.3391 32.427 14.3315V6.38651C32.4269 6.38107 32.4253 6.37578 32.4222 6.37126C32.4192 6.36674 32.415 6.36318 32.41 6.361C32.405 6.35883 32.3995 6.35813 32.3941 6.35899C32.3888 6.35986 32.3838 6.36224 32.3797 6.36587L23.7535 14.3109C23.7494 14.3148 23.7465 14.3199 23.7453 14.3255C23.744 14.3311 23.7445 14.3369 23.7467 14.3422C23.7488 14.3475 23.7525 14.352 23.7572 14.3552C23.762 14.3583 23.7676 14.36 23.7733 14.3599H32.3986ZM17.1329 16.928C17.1325 16.9228 17.1301 16.918 17.1263 16.9145C17.1225 16.911 17.1175 16.9091 17.1123 16.9091H3.10742C3.09465 16.9091 3.0824 16.9142 3.07337 16.9232C3.06433 16.9322 3.05926 16.9445 3.05926 16.9572V31.8058C3.05926 31.8165 3.06352 31.8268 3.0711 31.8344C3.07868 31.842 3.08896 31.8462 3.09968 31.8462H5.87589C5.89003 31.8462 5.90359 31.8406 5.91359 31.8306C5.92359 31.8206 5.92921 31.8071 5.92921 31.7929V27.1797C5.92922 27.1656 5.93213 27.1517 5.93776 27.1388C5.94338 27.1259 5.9516 27.1143 5.96189 27.1048C13.3903 20.361 17.1071 16.9868 17.1123 16.9822C17.1278 16.9673 17.1347 16.9492 17.1329 16.928ZM37.8754 16.9409C37.8754 16.9325 37.872 16.9244 37.866 16.9184C37.8601 16.9124 37.852 16.9091 37.8435 16.9091H23.9298C23.9235 16.9091 23.9173 16.9111 23.912 16.9147C23.9068 16.9183 23.9028 16.9234 23.9004 16.9293C23.8981 16.9353 23.8976 16.9417 23.899 16.9479C23.9005 16.9541 23.9037 16.9598 23.9083 16.9641L35.0071 27.0188C35.0104 27.0218 35.0129 27.0254 35.0147 27.0294C35.0165 27.0334 35.0174 27.0377 35.0174 27.0421V31.8144C35.0174 31.8229 35.0208 31.831 35.0268 31.8369C35.0327 31.8429 35.0408 31.8462 35.0493 31.8462H37.8435C37.852 31.8462 37.8601 31.8429 37.866 31.8369C37.872 31.831 37.8754 31.8229 37.8754 31.8144V16.9409ZM32.4348 28.2659C32.4347 28.2605 32.4335 28.2552 32.4313 28.2504C32.4291 28.2455 32.4259 28.2411 32.4219 28.2375L21.8563 18.6653C21.8507 18.6603 21.8439 18.6571 21.8365 18.6559C21.8292 18.6547 21.8217 18.6557 21.8149 18.6587C21.8081 18.6617 21.8023 18.6666 21.7982 18.6728C21.7941 18.679 21.7919 18.6862 21.7918 18.6937V31.7241C21.7918 31.7295 21.793 31.7348 21.7952 31.7397C21.7975 31.7446 21.8007 31.7489 21.8047 31.7525L32.3703 41.0315C32.3758 41.0364 32.3826 41.0397 32.39 41.0408C32.3973 41.042 32.4048 41.041 32.4116 41.038C32.4184 41.035 32.4242 41.0302 32.4283 41.024C32.4324 41.0178 32.4347 41.0105 32.4348 41.0031V28.2659ZM8.50933 41.1579C8.50935 41.164 8.51111 41.1699 8.5144 41.175C8.51768 41.1801 8.52236 41.1841 8.52787 41.1867C8.53339 41.1892 8.53951 41.1901 8.54552 41.1893C8.55153 41.1884 8.55717 41.1859 8.56179 41.182L19.1308 31.8729C19.1343 31.8699 19.1371 31.8662 19.139 31.8621C19.141 31.8579 19.142 31.8534 19.142 31.8488V18.6833C19.1421 18.6771 19.1404 18.671 19.1371 18.6657C19.1337 18.6605 19.1289 18.6563 19.1233 18.6537C19.1176 18.6512 19.1113 18.6503 19.1051 18.6513C19.099 18.6523 19.0933 18.6551 19.0887 18.6593L8.51965 28.2556C8.51642 28.2585 8.51384 28.2621 8.51207 28.2661C8.51029 28.2701 8.50936 28.2744 8.50933 28.2788V41.1579Z" fill="white"/>
</svg>
