<svg width="516" height="421" viewBox="0 0 516 421" fill="none" xmlns="http://www.w3.org/2000/svg">
<g clip-path="url(#clip0_407_3873)">
<mask id="path-3-inside-1_407_3873" fill="white">
<path d="M6 11C6 8.23857 8.23858 6 11 6H533V415H11C8.23859 415 6 412.761 6 410V11Z"/>
</mask>
<path d="M6 11C6 8.23857 8.23858 6 11 6H533V415H11C8.23859 415 6 412.761 6 410V11Z" fill="white"/>
<path d="M3 11C3 6.58172 6.58172 3 11 3H533V9H11C9.89543 9 9 9.89543 9 11H3ZM533 418H11C6.58172 418 3 414.418 3 410H9C9 411.105 9.89543 412 11 412H533V418ZM11 418C6.58172 418 3 414.418 3 410V11C3 6.58172 6.58172 3 11 3V9C9.89543 9 9 9.89543 9 11V410C9 411.105 9.89543 412 11 412V418ZM533 6V415V6Z" fill="#E5E5E5" fill-opacity="0.6" mask="url(#path-3-inside-1_407_3873)"/>
<g clip-path="url(#clip1_407_3873)">
<rect width="865.318" height="506.614" transform="translate(6 6)" fill="white"/>
<rect x="6" y="6" width="865.318" height="506.614" fill="#F3F3F3"/>
<rect x="5.71875" y="6.00977" width="865.1" height="44.1031" fill="url(#paint0_linear_407_3873)"/>
<rect x="49.8242" y="50.1133" width="462.235" height="44.1031" transform="rotate(90 49.8242 50.1133)" fill="url(#paint1_linear_407_3873)"/>
<rect x="171.42" y="23.1857" width="20.4887" height="10.4598" rx="0.283267" fill="#E6E6E6" stroke="#CECECE" stroke-width="0.355749"/>
<path d="M181.592 29.6707V28.6163H180.538V28.203H181.592V27.1487H182.006V28.203H183.06V28.6163H182.006V29.6707H181.592ZM185.123 29.9727V26.2109H185.578V28.0812L187.269 26.2109H187.846L186.373 27.8427L187.947 29.9727H187.39L186.066 28.1818L185.578 28.717V29.9727H185.123Z" fill="#A7A7A7"/>
<path d="M84.3025 30.0355C83.1975 30.0355 82.4901 29.3685 82.4092 28.3983L83.0156 28.3579C83.1099 29.0721 83.5479 29.4696 84.316 29.4696C84.983 29.4696 85.3738 29.2068 85.3738 28.715C85.3738 28.2703 85.1514 28.0008 84.006 27.7178C82.9011 27.4416 82.5103 27.1114 82.5103 26.3973C82.5103 25.5955 83.1167 25.0363 84.1004 25.0363C85.1514 25.0363 85.7713 25.6831 85.8791 26.559L85.2727 26.5994C85.1918 26.02 84.8011 25.6022 84.0869 25.6022C83.494 25.6022 83.1167 25.9122 83.1167 26.3703C83.1167 26.8217 83.3592 26.9834 84.3699 27.2327C85.5691 27.5292 85.9801 27.9873 85.9801 28.6746C85.9801 29.51 85.2794 30.0355 84.3025 30.0355ZM88.3345 30.0086C87.3239 30.0086 86.6973 29.2742 86.6973 28.1423C86.6973 27.0104 87.3239 26.276 88.3075 26.276C89.2373 26.276 89.8841 26.9497 89.8841 28.149V28.3175H87.2902C87.3306 29.0855 87.7146 29.4696 88.3345 29.4696C88.7994 29.4696 89.1026 29.2338 89.2238 28.8699L89.8302 28.9171C89.6416 29.5572 89.0891 30.0086 88.3345 30.0086ZM89.2643 27.8189C89.2104 27.1317 88.8331 26.815 88.3075 26.815C87.7551 26.815 87.3845 27.1586 87.2902 27.8189H89.2643ZM91.7261 30.0086C90.9849 30.0086 90.52 29.6515 90.52 29.0384C90.52 28.432 90.8636 28.0951 91.6452 27.9469L92.9119 27.7111C92.9119 27.1114 92.6289 26.815 92.0629 26.815C91.5644 26.815 91.2881 27.0441 91.1803 27.4551L90.5807 27.4079C90.7154 26.7341 91.2544 26.276 92.0629 26.276C92.9792 26.276 93.4778 26.8285 93.4778 27.7313V29.2068C93.4778 29.3685 93.5317 29.4292 93.6665 29.4292H93.808V29.9277C93.7675 29.9345 93.6799 29.9412 93.5924 29.9412C93.1612 29.9412 92.9658 29.7728 92.9186 29.3753C92.7434 29.7458 92.2516 30.0086 91.7261 30.0086ZM91.78 29.51C92.4941 29.51 92.9119 29.0519 92.9119 28.4589V28.2029L91.753 28.4185C91.2679 28.5061 91.1129 28.688 91.1129 28.9845C91.1129 29.3214 91.3622 29.51 91.78 29.51ZM94.552 29.9277V26.3568H95.0506L95.0708 27.0171C95.1988 26.5657 95.4818 26.3568 95.9197 26.3568H96.2701V26.8958H95.9264C95.3874 26.8958 95.1179 27.1856 95.1179 27.7717V29.9277H94.552ZM98.3355 30.0086C97.3384 30.0086 96.6983 29.2742 96.6983 28.1423C96.6983 27.0104 97.3384 26.276 98.3355 26.276C99.1575 26.276 99.7302 26.7207 99.8515 27.5157L99.2586 27.5561C99.1777 27.0845 98.8206 26.815 98.3355 26.815C97.6753 26.815 97.2912 27.3136 97.2912 28.1423C97.2912 28.971 97.6753 29.4696 98.3355 29.4696C98.8206 29.4696 99.1777 29.2001 99.2586 28.6611L99.8515 28.7015C99.7302 29.4965 99.1575 30.0086 98.3355 30.0086ZM100.507 29.9277V25.1441H101.073V26.916C101.254 26.4781 101.659 26.276 102.151 26.276C102.919 26.276 103.343 26.8352 103.343 27.6302V29.9277H102.777V27.7919C102.777 27.1047 102.528 26.7746 102.029 26.7746C101.45 26.7746 101.073 27.1384 101.073 27.7987V29.9277H100.507ZM106.456 26.0334C106.456 25.5079 106.753 25.1441 107.399 25.1441H107.965V25.6427H107.44C107.157 25.6427 107.022 25.8044 107.022 26.0739V26.3568H107.918V26.8554H107.022V29.9277H106.456V26.8554H105.971V26.3568H106.456V26.0334ZM110.001 30.0086C109.011 30.0086 108.364 29.2809 108.364 28.1423C108.364 27.0036 109.011 26.276 110.001 26.276C110.985 26.276 111.632 27.0036 111.632 28.1423C111.632 29.2809 110.985 30.0086 110.001 30.0086ZM110.001 29.4696C110.655 29.4696 111.039 28.971 111.039 28.1423C111.039 27.3136 110.655 26.815 110.001 26.815C109.341 26.815 108.957 27.3136 108.957 28.1423C108.957 28.971 109.341 29.4696 110.001 29.4696ZM112.455 29.9277V26.3568H112.954L112.974 27.0171C113.102 26.5657 113.385 26.3568 113.823 26.3568H114.173V26.8958H113.83C113.291 26.8958 113.021 27.1856 113.021 27.7717V29.9277H112.455ZM118.127 30.0086C117.137 30.0086 116.49 29.2809 116.49 28.1423C116.49 27.0036 117.137 26.276 118.127 26.276C119.111 26.276 119.758 27.0036 119.758 28.1423C119.758 29.2809 119.111 30.0086 118.127 30.0086ZM118.127 29.4696C118.781 29.4696 119.165 28.971 119.165 28.1423C119.165 27.3136 118.781 26.815 118.127 26.815C117.467 26.815 117.083 27.3136 117.083 28.1423C117.083 28.971 117.467 29.4696 118.127 29.4696ZM120.581 29.9277V26.3568H121.08L121.1 27.0171C121.228 26.5657 121.511 26.3568 121.949 26.3568H122.299V26.8958H121.955C121.416 26.8958 121.147 27.1856 121.147 27.7717V29.9277H120.581ZM124.265 30.9384V30.4398H124.555C124.791 30.4398 124.946 30.3455 124.946 30.049V26.3568H125.512V30.076C125.512 30.7093 125.256 30.9384 124.609 30.9384H124.265ZM124.932 25.7976V25.1373H125.525V25.7976H124.932ZM127.629 30.0086C126.915 30.0086 126.457 29.5033 126.457 28.6543V26.3568H127.023V28.4994C127.023 29.1933 127.265 29.51 127.777 29.51C128.343 29.51 128.687 29.126 128.687 28.4859V26.3568H129.253V29.9277H128.714V29.3483C128.518 29.7728 128.141 30.0086 127.629 30.0086ZM130.332 29.9277V26.3568H130.851L130.864 26.9834C131.039 26.5455 131.41 26.276 131.868 26.276C132.407 26.276 132.785 26.5455 132.939 27.0239C133.094 26.5455 133.458 26.276 133.984 26.276C134.745 26.276 135.163 26.7678 135.163 27.6302V29.9277H134.597V27.7515C134.597 27.1047 134.341 26.7746 133.849 26.7746C133.35 26.7746 133.027 27.1519 133.027 27.7919V29.9277H132.461V27.7919C132.461 27.1586 132.252 26.7746 131.727 26.7746C131.228 26.7746 130.898 27.1586 130.898 27.7919V29.9277H130.332ZM136.109 30.9384V26.3568H136.635L136.641 26.9026C136.857 26.4916 137.254 26.276 137.739 26.276C138.804 26.276 139.282 27.1586 139.282 28.1423C139.282 29.126 138.804 30.0086 137.739 30.0086C137.275 30.0086 136.864 29.7997 136.675 29.4561V30.9384H136.109ZM137.686 29.4696C138.305 29.4696 138.689 28.9777 138.689 28.1423C138.689 27.3068 138.305 26.815 137.686 26.815C137.066 26.815 136.675 27.2664 136.675 28.1423C136.675 29.0182 137.059 29.4696 137.686 29.4696ZM143.127 29.9277C142.48 29.9277 142.177 29.6448 142.177 29.0114V26.8554H141.652V26.3568H142.177V25.5214H142.743V26.3568H143.693V26.8554H142.743V28.998C142.743 29.3214 142.885 29.4292 143.181 29.4292H143.693V29.9277H143.127ZM145.794 30.0086C144.804 30.0086 144.157 29.2809 144.157 28.1423C144.157 27.0036 144.804 26.276 145.794 26.276C146.778 26.276 147.425 27.0036 147.425 28.1423C147.425 29.2809 146.778 30.0086 145.794 30.0086ZM145.794 29.4696C146.448 29.4696 146.832 28.971 146.832 28.1423C146.832 27.3136 146.448 26.815 145.794 26.815C145.134 26.815 144.75 27.3136 144.75 28.1423C144.75 28.971 145.134 29.4696 145.794 29.4696Z" fill="#A7A7A7"/>
<path d="M77.5718 31.2457L76.1417 29.8156M76.9128 27.9505C76.9128 29.4064 75.7326 30.5866 74.2767 30.5866C72.8208 30.5866 71.6406 29.4064 71.6406 27.9505C71.6406 26.4947 72.8208 25.3145 74.2767 25.3145C75.7326 25.3145 76.9128 26.4947 76.9128 27.9505Z" stroke="#A7A7A7" stroke-width="0.659022" stroke-linecap="round" stroke-linejoin="round"/>
<path d="M177.532 27.3321V29.6919C177.532 29.8086 177.566 29.9226 177.631 30.0196C177.696 30.1166 177.788 30.1923 177.896 30.2369C178.004 30.2816 178.122 30.2932 178.237 30.2705C178.351 30.2477 178.456 30.1915 178.539 30.109C178.621 30.0265 178.677 29.9214 178.7 29.807C178.723 29.6925 178.711 29.5739 178.667 29.4661C178.622 29.3583 178.546 29.2662 178.449 29.2014C178.352 29.1365 178.238 29.1019 178.122 29.1019H175.762C175.645 29.1019 175.531 29.1365 175.434 29.2014C175.337 29.2662 175.261 29.3583 175.217 29.4661C175.172 29.5739 175.16 29.6925 175.183 29.807C175.206 29.9214 175.262 30.0265 175.345 30.109C175.427 30.1915 175.532 30.2477 175.647 30.2705C175.761 30.2932 175.88 30.2816 175.988 30.2369C176.095 30.1923 176.188 30.1166 176.252 30.0196C176.317 29.9226 176.352 29.8086 176.352 29.6919V27.3321C176.352 27.2154 176.317 27.1014 176.252 27.0044C176.188 26.9074 176.095 26.8317 175.988 26.7871C175.88 26.7424 175.761 26.7308 175.647 26.7535C175.532 26.7763 175.427 26.8325 175.345 26.915C175.262 26.9975 175.206 27.1026 175.183 27.217C175.16 27.3315 175.172 27.4501 175.217 27.5579C175.261 27.6657 175.337 27.7578 175.434 27.8226C175.531 27.8875 175.645 27.9221 175.762 27.9221H178.122C178.238 27.9221 178.352 27.8875 178.449 27.8226C178.546 27.7578 178.622 27.6657 178.667 27.5579C178.711 27.4501 178.723 27.3315 178.7 27.217C178.677 27.1026 178.621 26.9975 178.539 26.915C178.456 26.8325 178.351 26.7763 178.237 26.7535C178.122 26.7308 178.004 26.7424 177.896 26.7871C177.788 26.8317 177.696 26.9074 177.631 27.0044C177.566 27.1014 177.532 27.2154 177.532 27.3321Z" stroke="#A7A7A7" stroke-width="0.393292" stroke-linecap="round" stroke-linejoin="round"/>
<rect x="65.3536" y="19.0294" width="131.308" height="18.3285" rx="0.748399" stroke="#E6E6E6" stroke-width="0.347769"/>
<path d="M17.8815 34.9758C17.8789 34.9754 17.8764 34.9742 17.8745 34.9723C17.8726 34.9704 17.8714 34.968 17.8709 34.9653C17.8705 34.9627 17.8709 34.9599 17.8721 34.9575C17.8733 34.9551 17.8752 34.9532 17.8776 34.9519C18.5213 34.6042 19.1723 34.3551 19.8963 34.0797C21.3495 33.5276 22.7837 32.9366 24.1989 32.3069C24.7505 32.0609 25.3068 31.7847 25.806 31.4759C26.346 31.1421 26.892 30.6951 26.9842 30.029C27.0327 29.6817 26.9338 29.3121 26.7792 28.9938C26.4509 28.3171 25.949 27.711 25.399 27.2048C24.375 26.2613 23.3254 25.643 22.022 24.8399C21.2587 24.3693 20.5345 23.8783 19.8494 23.3667C18.8603 22.628 17.9876 21.7764 17.6097 20.5901C17.5983 20.5536 17.593 20.5203 17.5938 20.4904C17.5939 20.4871 17.5948 20.4838 17.5965 20.4809C17.5982 20.478 17.6005 20.4756 17.6033 20.4738C17.6062 20.472 17.6094 20.471 17.6127 20.4707C17.6161 20.4705 17.6194 20.4711 17.6224 20.4725C19.0046 21.1016 20.374 21.5105 21.956 21.9468C23.511 22.376 25.1225 22.7567 26.7124 23.1509C27.0372 23.2315 27.4197 23.342 27.8597 23.4824C28.788 23.7786 29.6386 24.2034 30.4114 24.7568C30.9158 25.1179 31.4049 25.536 31.8785 26.011C32.1721 26.3056 32.4966 26.6212 32.8522 26.958C32.8617 26.967 32.8734 26.9734 32.8862 26.9764C32.899 26.9794 32.9123 26.9789 32.9249 26.9751C32.9808 26.9578 33.0249 26.9377 33.0572 26.9147C33.4342 26.6481 33.7692 26.417 34.0622 26.2212C34.6986 25.796 35.3467 25.4542 36.0067 25.1959C36.8654 24.8597 37.725 24.7055 38.5977 24.8355C38.8602 24.8747 39.1641 24.9419 39.5093 25.037C40.2421 25.2391 40.974 25.4921 41.7049 25.796C41.7079 25.7973 41.7103 25.7995 41.7119 25.8023C41.7136 25.8051 41.7142 25.8084 41.7138 25.8116C41.7134 25.8147 41.7119 25.8177 41.7097 25.8199C41.7074 25.8221 41.7045 25.8235 41.7013 25.8238C40.9354 25.9144 40.1752 26.0709 39.4207 26.2931C39.1214 26.3814 38.7503 26.524 38.4789 26.6786C37.7632 27.0859 37.245 27.6693 36.811 28.3632C36.3401 29.1158 35.8533 29.9837 35.3462 30.6422C33.9569 32.4452 31.5666 33.3632 29.3273 33.6346C28.5428 33.7297 27.7751 33.7795 27.024 33.784C26.7243 33.786 26.4128 33.821 26.1513 33.8233C25.9958 33.8247 25.8563 33.8326 25.7329 33.8472C25.5282 33.8718 25.4054 33.8635 25.1761 33.8873C23.919 34.0174 22.8153 34.1917 21.865 34.4103C20.4944 34.725 19.3126 34.9897 18.0131 34.9881C17.972 34.9881 17.9282 34.984 17.8815 34.9758Z" fill="#191919"/>
<rect x="65.3711" y="67.0664" width="781.982" height="279.676" fill="url(#paint2_linear_407_3873)"/>
<line x1="82.793" y1="315.722" x2="829.035" y2="315.722" stroke="#AEAEAE" stroke-width="1.16147"/>
<path d="M89.1455 105.132C84.879 105.157 82.1324 102.598 81.7982 98.8533L84.1386 98.6835C84.519 101.439 86.219 102.964 89.1846 102.946C91.7601 102.931 93.263 101.908 93.2518 100.009C93.2417 98.2918 92.3771 97.2563 87.9482 96.1896C83.6756 95.1481 82.1592 93.8822 82.143 91.1247C82.1248 88.0289 84.4535 85.856 88.2516 85.8336C92.3099 85.8098 94.7179 88.2931 95.154 91.6726L92.8136 91.8424C92.4883 89.607 90.97 88.003 88.2124 88.0192C85.9231 88.0326 84.4733 89.2379 84.4837 91.0069C84.494 92.7498 85.4342 93.3687 89.342 94.3083C93.9794 95.4257 95.5766 97.1854 95.5922 99.8389C95.6112 103.065 92.9176 105.11 89.1455 105.132ZM97.547 104.666L97.466 90.8786L99.6512 90.8657L99.7322 104.653L97.547 104.666ZM97.4012 88.7196L97.3863 86.1702L99.6756 86.1567L99.6905 88.7062L97.4012 88.7196ZM106.863 104.612C104.365 104.626 103.188 103.541 103.174 101.095L103.125 92.7705L101.096 92.7824L101.085 90.8573L103.114 90.8454L103.095 87.6195L105.28 87.6067L105.299 90.8325L108.967 90.811L108.978 92.7361L105.31 92.7576L105.359 101.03C105.366 102.279 105.915 102.692 107.06 102.685L109.037 102.674L109.048 104.599L106.863 104.612ZM116.123 104.869C112.221 104.892 109.785 102.071 109.759 97.7004C109.733 93.33 112.136 90.4802 115.934 90.4578C119.524 90.4368 122.037 93.0236 122.064 97.6542L122.068 98.3045L112.052 98.3634C112.226 101.328 113.717 102.802 116.111 102.788C117.906 102.778 119.071 101.86 119.531 100.453L121.873 100.621C121.159 103.097 119.037 104.852 116.123 104.869ZM119.663 96.3935C119.44 93.7412 117.976 92.5271 115.946 92.539C113.813 92.5516 112.39 93.8867 112.041 96.4383L119.663 96.3935ZM137.335 104.849C132.393 104.878 129.015 101.256 128.98 95.2721C128.945 89.2887 132.279 85.5749 137.222 85.5459C141.697 85.5196 144.078 87.9251 144.881 91.7967L142.515 91.9667C141.979 89.3422 140.305 87.7131 137.235 87.7311C133.697 87.7519 131.294 90.5757 131.321 95.2584C131.349 99.941 133.785 102.684 137.323 102.664C140.548 102.645 142.255 100.84 142.706 97.9491L145.074 98.0913C144.422 102.102 141.758 104.823 137.335 104.849ZM147.295 104.374L147.214 90.5862L149.139 90.5749L149.232 93.1239C149.716 91.378 150.804 90.5652 152.495 90.5552L153.848 90.5473L153.86 92.6284L152.533 92.6362C150.452 92.6485 149.418 93.7732 149.431 96.0365L149.48 104.361L147.295 104.374ZM159.2 104.616C156.339 104.633 154.535 103.265 154.521 100.898C154.508 98.5562 155.827 97.2477 158.841 96.6576L163.727 95.7184C163.713 93.403 162.614 92.2648 160.428 92.2777C158.503 92.289 157.442 93.1797 157.035 94.7691L154.719 94.6006C155.224 91.9961 157.294 90.2148 160.416 90.1965C163.954 90.1757 165.892 92.2976 165.912 95.7836L165.946 101.481C165.949 102.105 166.159 102.338 166.679 102.335L167.226 102.332L167.237 104.257C167.081 104.284 166.743 104.312 166.405 104.314C164.74 104.324 163.981 103.678 163.79 102.144C163.122 103.579 161.229 104.604 159.2 104.616ZM159.397 102.69C162.154 102.674 163.757 100.895 163.744 98.606L163.738 97.6174L159.268 98.4762C157.397 98.8254 156.803 99.5313 156.81 100.676C156.817 101.977 157.784 102.699 159.397 102.69ZM171.293 104.233L166.946 90.4703L169.339 90.4562L172.632 101.936L175.843 90.418L178.184 90.4043L181.529 101.884L184.714 90.3659L187.107 90.3518L182.922 104.165L180.164 104.181L177.033 93.715L174.025 104.217L171.293 104.233ZM191.541 104.114C189.928 104.124 188.805 103.35 188.794 101.529L188.727 85.6595L190.912 85.6467L191.005 101.334C191.008 101.906 191.296 102.19 191.868 102.187L193.065 102.18L193.076 104.105L191.541 104.114ZM200.009 104.376C196.315 104.398 194.248 102.459 194.024 99.7549L196.312 99.5853C196.582 101.249 197.655 102.309 199.996 102.295C201.869 102.284 203.089 101.705 203.081 100.352C203.074 99.2594 202.525 98.7944 199.557 98.2915C195.598 97.6123 194.342 96.397 194.33 94.2117C194.315 91.7664 196.178 89.9864 199.508 89.9668C202.864 89.9471 204.645 91.9658 205.075 94.3567L202.786 94.5263C202.466 93.0713 201.367 92.0371 199.494 92.0481C197.517 92.0597 196.611 92.9236 196.618 94.0942C196.626 95.447 197.514 95.9621 199.962 96.364C204.18 97.0676 205.357 98.1534 205.37 100.339C205.385 102.888 203.052 104.359 200.009 104.376Z" fill="#191919"/>
<path d="M81.9554 119.041V114.29H82.5308V118.479H84.9062V119.041H81.9554ZM86.7333 119.121C85.9973 119.121 85.5356 118.767 85.5356 118.158C85.5356 117.556 85.8769 117.221 86.653 117.074L87.911 116.84C87.911 116.244 87.6299 115.95 87.0679 115.95C86.5727 115.95 86.2984 116.177 86.1914 116.585L85.5959 116.539C85.7297 115.869 86.265 115.414 87.0679 115.414C87.9779 115.414 88.473 115.963 88.473 116.86V118.325C88.473 118.486 88.5265 118.546 88.6603 118.546H88.8009V119.041C88.7607 119.048 88.6737 119.054 88.5867 119.054C88.1585 119.054 87.9645 118.887 87.9176 118.492C87.7437 118.86 87.2552 119.121 86.7333 119.121ZM86.7869 118.626C87.4961 118.626 87.911 118.171 87.911 117.582V117.328L86.7601 117.542C86.2783 117.629 86.1244 117.81 86.1244 118.104C86.1244 118.439 86.372 118.626 86.7869 118.626ZM90.8185 119.121C89.8684 119.121 89.3398 118.619 89.2863 117.924L89.8751 117.883C89.942 118.312 90.2163 118.586 90.8185 118.586C91.3003 118.586 91.6147 118.439 91.6147 118.091C91.6147 117.81 91.4742 117.689 90.7115 117.556C89.6944 117.375 89.3733 117.06 89.3733 116.498C89.3733 115.869 89.855 115.414 90.7115 115.414C91.5746 115.414 92.0296 115.936 92.1366 116.552L91.5478 116.592C91.4675 116.217 91.1865 115.95 90.7048 115.95C90.1962 115.95 89.9621 116.171 89.9621 116.472C89.9621 116.82 90.1896 116.953 90.8185 117.06C91.9025 117.248 92.2036 117.529 92.2036 118.091C92.2036 118.747 91.6014 119.121 90.8185 119.121ZM94.1506 119.041C93.5083 119.041 93.2072 118.76 93.2072 118.131V115.99H92.6853V115.495H93.2072V114.665H93.7693V115.495H94.7127V115.99H93.7693V118.118C93.7693 118.439 93.9098 118.546 94.2042 118.546H94.7127V119.041H94.1506ZM97.0313 119.041C97.0313 118.037 97.4261 117.375 98.8513 116.619C99.507 116.271 99.768 116.057 99.768 115.575C99.768 115.087 99.4468 114.745 98.8178 114.745C98.1487 114.745 97.7607 115.107 97.6603 115.749L97.0581 115.709C97.1652 114.779 97.7874 114.183 98.8178 114.183C99.7947 114.183 100.37 114.745 100.37 115.562C100.37 116.284 100.049 116.646 99.0654 117.168C98.209 117.623 97.7673 118.118 97.7406 118.479H100.37V119.041H97.0313ZM103.353 119.041V118.011H100.937V117.489L103.313 114.29H103.928V117.449H104.517V118.011H103.928V119.041H103.353ZM101.633 117.449H103.353V115.174L101.633 117.449ZM107.058 119.041V114.29H107.62V116.05C107.801 115.615 108.202 115.414 108.691 115.414C109.453 115.414 109.875 115.97 109.875 116.759V119.041H109.313V116.92C109.313 116.237 109.065 115.91 108.57 115.91C107.995 115.91 107.62 116.271 107.62 116.927V119.041H107.058ZM112.253 119.121C111.269 119.121 110.627 118.399 110.627 117.268C110.627 116.137 111.269 115.414 112.253 115.414C113.23 115.414 113.872 116.137 113.872 117.268C113.872 118.399 113.23 119.121 112.253 119.121ZM112.253 118.586C112.902 118.586 113.283 118.091 113.283 117.268C113.283 116.445 112.902 115.95 112.253 115.95C111.597 115.95 111.216 116.445 111.216 117.268C111.216 118.091 111.597 118.586 112.253 118.586ZM115.821 119.121C115.112 119.121 114.657 118.619 114.657 117.776V115.495H115.219V117.623C115.219 118.312 115.46 118.626 115.969 118.626C116.531 118.626 116.872 118.245 116.872 117.609V115.495H117.434V119.041H116.899V118.466C116.705 118.887 116.33 119.121 115.821 119.121ZM118.506 119.041V115.495H119.001L119.021 116.15C119.148 115.702 119.429 115.495 119.864 115.495H120.212V116.03H119.871C119.336 116.03 119.068 116.318 119.068 116.9V119.041H118.506ZM122.17 119.121C121.219 119.121 120.691 118.619 120.637 117.924L121.226 117.883C121.293 118.312 121.567 118.586 122.17 118.586C122.651 118.586 122.966 118.439 122.966 118.091C122.966 117.81 122.825 117.689 122.063 117.556C121.046 117.375 120.724 117.06 120.724 116.498C120.724 115.869 121.206 115.414 122.063 115.414C122.926 115.414 123.381 115.936 123.488 116.552L122.899 116.592C122.819 116.217 122.538 115.95 122.056 115.95C121.547 115.95 121.313 116.171 121.313 116.472C121.313 116.82 121.541 116.953 122.17 117.06C123.254 117.248 123.555 117.529 123.555 118.091C123.555 118.747 122.952 119.121 122.17 119.121Z" fill="#484848"/>
<path d="M126.352 116.529L127.901 118.079L129.451 116.529" stroke="#474747" stroke-width="0.516596" stroke-linecap="round" stroke-linejoin="round"/>
<line x1="82.5052" y1="316.316" x2="82.5052" y2="141.791" stroke="#AEAEAE" stroke-width="1.16147"/>
<line x1="83.0859" y1="255.182" x2="828.747" y2="255.182" stroke="#E0E0E0" stroke-width="0.968355" stroke-dasharray="3.87 3.87"/>
<line x1="83.0859" y1="195.947" x2="828.747" y2="195.947" stroke="#E0E0E0" stroke-width="0.968355" stroke-dasharray="3.87 3.87"/>
<line x1="83.0859" y1="142.227" x2="828.747" y2="142.227" stroke="#E0E0E0" stroke-width="0.968355" stroke-dasharray="3.87 3.87"/>
<g style="mix-blend-mode:multiply">
<path d="M829.035 316.303L82.793 314.769V255.067L206.365 275.157L329.197 243.692L450.549 256.157L572.086 220.214L630.913 229.169L683.809 236.622L829.035 141.793V316.303Z" fill="url(#paint3_linear_407_3873)" style="mix-blend-mode:screen"/>
</g>
<path d="M83.0859 255.009L206.927 275.071L328.594 243.477L450.261 255.84L571.927 220.125L683.437 236.398L828.747 142.229" stroke="#9D9D9D" stroke-width="1.21044" stroke-linecap="square" stroke-linejoin="round"/>
<path d="M65.3711 361.369H449.552V744.91H65.3711L65.3711 361.369Z" fill="url(#paint4_linear_407_3873)"/>
<path d="M88.7011 397.689L94.3903 381.911H96.9682L102.657 397.689H100.568L98.9905 393.2H92.3679L90.7901 397.689H88.7011ZM93.0124 391.334H98.346L95.6792 383.578L93.0124 391.334ZM106.999 397.689C104.865 397.689 103.865 396.756 103.865 394.667L103.865 387.556H102.132L102.132 385.911H103.865L103.865 383.155H105.732L105.732 385.911H110.577L110.577 383.155H112.443L112.443 385.911H115.577L115.577 387.556H112.443L112.443 394.623C112.443 395.689 112.91 396.045 113.888 396.045H115.577L115.577 397.689H113.71C111.577 397.689 110.577 396.756 110.577 394.667L110.577 387.556H105.732L105.732 394.623C105.732 395.689 106.199 396.045 107.177 396.045H108.866L108.866 397.689H106.999ZM117.403 397.689L117.403 385.911H119.047L119.114 388.089C119.536 386.6 120.469 385.911 121.914 385.911H123.07L123.07 387.689H121.936C120.158 387.689 119.269 388.645 119.269 390.578L119.269 397.689H117.403ZM124.674 397.689L124.674 385.911H126.541L126.541 397.689H124.674ZM124.629 384.067L124.629 381.889H126.585L126.585 384.067H124.629ZM134.047 397.956C132.402 397.956 131.069 397.201 130.402 395.912L130.335 397.689H128.646L128.646 381.911H130.513L130.513 387.556C131.091 386.578 132.402 385.644 134.047 385.644C137.158 385.644 139.113 388.022 139.113 391.8C139.113 395.578 137.158 397.956 134.047 397.956ZM133.935 396.178C135.913 396.178 137.158 394.489 137.158 391.8C137.158 389.067 135.913 387.422 133.98 387.422C131.802 387.422 130.513 389.067 130.513 391.8C130.513 394.489 131.802 396.178 133.935 396.178ZM144.689 397.956C142.333 397.956 140.822 396.289 140.822 393.489L140.822 385.911H142.689L142.689 392.978C142.689 395.267 143.489 396.312 145.178 396.312C147.045 396.312 148.178 395.045 148.178 392.934L148.178 385.911H150.045L150.045 397.689H148.267L148.267 395.778C147.623 397.178 146.378 397.956 144.689 397.956ZM156.615 397.689C154.482 397.689 153.482 396.756 153.482 394.667L153.482 387.556H151.748L151.748 385.911H153.482L153.482 383.155H155.348L155.348 385.911H158.482L158.482 387.556H155.348L155.348 394.623C155.348 395.689 155.815 396.045 156.793 396.045H158.482L158.482 397.689H156.615ZM160.183 397.689L160.183 385.911H162.049L162.049 397.689H160.183ZM160.138 384.067L160.138 381.889H162.094L162.094 384.067H160.138ZM169.386 397.956C166.119 397.956 163.986 395.556 163.986 391.8C163.986 388.044 166.119 385.644 169.386 385.644C172.631 385.644 174.764 388.044 174.764 391.8C174.764 395.556 172.631 397.956 169.386 397.956ZM169.386 396.178C171.542 396.178 172.809 394.534 172.809 391.8C172.809 389.067 171.542 387.422 169.386 387.422C167.208 387.422 165.942 389.067 165.942 391.8C165.942 394.534 167.208 396.178 169.386 396.178ZM176.591 397.689L176.591 385.911H178.303L178.347 388.022C178.969 386.4 180.347 385.644 181.97 385.644C184.659 385.644 185.948 387.622 185.948 390.111L185.948 397.689H184.081L184.081 390.645C184.081 388.467 183.347 387.289 181.57 387.289C179.747 387.289 178.458 388.467 178.458 390.645L178.458 397.689H176.591ZM198.683 397.956C197.038 397.956 195.705 397.201 195.038 395.912L194.971 397.689H193.282L193.282 381.911H195.149L195.149 387.556C195.727 386.578 197.038 385.644 198.683 385.644C201.794 385.644 203.75 388.022 203.75 391.8C203.75 395.578 201.794 397.956 198.683 397.956ZM198.572 396.178C200.55 396.178 201.794 394.489 201.794 391.8C201.794 389.067 200.55 387.422 198.616 387.422C196.438 387.422 195.149 389.067 195.149 391.8C195.149 394.489 196.438 396.178 198.572 396.178ZM205.622 401.023L205.622 399.378H206.978C207.8 399.378 208.134 399.134 208.356 398.578L208.778 397.467H208.134L203.822 385.911H205.867L209.378 395.734L212.734 385.911H214.778L210 399.178C209.556 400.445 208.734 401.023 207.156 401.023H205.622ZM226.604 398.045C222.959 398.045 220.626 395.845 220.359 392.645L222.359 392.511C222.67 394.867 224.115 396.178 226.648 396.178C228.848 396.178 230.137 395.312 230.137 393.689C230.137 392.222 229.404 391.334 225.626 390.4C221.981 389.489 220.692 388.4 220.692 386.044C220.692 383.4 222.692 381.555 225.937 381.555C229.404 381.555 231.448 383.689 231.804 386.578L229.804 386.711C229.537 384.8 228.248 383.422 225.893 383.422C223.937 383.422 222.692 384.444 222.692 385.955C222.692 387.444 223.492 387.978 226.826 388.8C230.782 389.778 232.137 391.289 232.137 393.556C232.137 396.312 229.826 398.045 226.604 398.045ZM239.014 397.956C235.747 397.956 233.614 395.556 233.614 391.8C233.614 388.044 235.747 385.644 239.014 385.644C242.259 385.644 244.392 388.044 244.392 391.8C244.392 395.556 242.259 397.956 239.014 397.956ZM239.014 396.178C241.17 396.178 242.436 394.534 242.436 391.8C242.436 389.067 241.17 387.422 239.014 387.422C236.836 387.422 235.569 389.067 235.569 391.8C235.569 394.534 236.836 396.178 239.014 396.178ZM249.978 397.956C247.622 397.956 246.111 396.289 246.111 393.489L246.111 385.911H247.978L247.978 392.978C247.978 395.267 248.778 396.312 250.467 396.312C252.333 396.312 253.467 395.045 253.467 392.934L253.467 385.911H255.333L255.333 397.689H253.556L253.556 395.778C252.911 397.178 251.667 397.956 249.978 397.956ZM258.005 397.689L258.005 385.911H259.649L259.716 388.089C260.138 386.6 261.071 385.911 262.516 385.911H263.672L263.672 387.689H262.538C260.76 387.689 259.871 388.645 259.871 390.578L259.871 397.689H258.005ZM269.596 397.956C266.306 397.956 264.195 395.534 264.195 391.8C264.195 388.067 266.306 385.644 269.596 385.644C272.307 385.644 274.196 387.111 274.596 389.733L272.64 389.867C272.373 388.311 271.196 387.422 269.596 387.422C267.418 387.422 266.151 389.067 266.151 391.8C266.151 394.534 267.418 396.178 269.596 396.178C271.196 396.178 272.373 395.289 272.64 393.511L274.596 393.645C274.196 396.267 272.307 397.956 269.596 397.956ZM280.86 397.956C277.527 397.956 275.46 395.534 275.46 391.8C275.46 388.067 277.527 385.644 280.771 385.644C283.838 385.644 285.971 387.867 285.971 391.822L285.971 392.378H277.415C277.549 394.912 278.815 396.178 280.86 396.178C282.393 396.178 283.393 395.4 283.794 394.2L285.794 394.356C285.171 396.467 283.349 397.956 280.86 397.956ZM283.927 390.734C283.749 388.467 282.505 387.422 280.771 387.422C278.949 387.422 277.727 388.556 277.415 390.734H283.927Z" fill="#171717"/>
<path d="M463.148 361.369H847.329V744.91H463.148V361.369Z" fill="url(#paint5_linear_407_3873)"/>
<path d="M491.479 397.689L491.479 383.778H486.567L486.567 381.911H498.301L498.301 383.778H493.39L493.39 397.689H491.479ZM502.853 397.956C499.586 397.956 497.453 395.556 497.453 391.8C497.453 388.044 499.586 385.644 502.853 385.644C506.098 385.644 508.231 388.044 508.231 391.8C508.231 395.556 506.098 397.956 502.853 397.956ZM502.853 396.178C505.009 396.178 506.275 394.534 506.275 391.8C506.275 389.067 505.009 387.422 502.853 387.422C500.675 387.422 499.408 389.067 499.408 391.8C499.408 394.534 500.675 396.178 502.853 396.178ZM510.058 401.023L510.058 385.911H511.792L511.814 387.711C512.525 386.356 513.836 385.644 515.436 385.644C518.947 385.644 520.525 388.556 520.525 391.8C520.525 395.045 518.947 397.956 515.436 397.956C513.903 397.956 512.547 397.267 511.925 396.134L511.925 401.023H510.058ZM515.258 396.178C517.303 396.178 518.57 394.556 518.57 391.8C518.57 389.045 517.303 387.422 515.258 387.422C513.214 387.422 511.925 388.911 511.925 391.8C511.925 394.689 513.192 396.178 515.258 396.178ZM533.518 398.045C529.296 398.045 526.429 394.934 526.429 389.822C526.429 384.711 529.296 381.555 533.518 381.555C537.341 381.555 539.363 383.622 540.03 386.933L538.008 387.067C537.563 384.822 536.141 383.422 533.518 383.422C530.496 383.422 528.429 385.822 528.429 389.822C528.429 393.823 530.496 396.178 533.518 396.178C536.274 396.178 537.741 394.645 538.141 392.178L540.163 392.311C539.585 395.734 537.296 398.045 533.518 398.045ZM542.029 397.689L542.029 385.911H543.673L543.74 388.089C544.162 386.6 545.095 385.911 546.54 385.911H547.696L547.696 387.689H546.562C544.784 387.689 543.895 388.645 543.895 390.578L543.895 397.689H542.029ZM552.197 397.956C549.753 397.956 548.219 396.778 548.219 394.756C548.219 392.756 549.353 391.645 551.93 391.156L556.108 390.378C556.108 388.4 555.175 387.422 553.308 387.422C551.664 387.422 550.753 388.178 550.397 389.533L548.419 389.378C548.864 387.156 550.642 385.644 553.308 385.644C556.331 385.644 557.975 387.467 557.975 390.445L557.975 395.312C557.975 395.845 558.153 396.045 558.598 396.045H559.064L559.064 397.689C558.931 397.712 558.642 397.734 558.353 397.734C556.931 397.734 556.286 397.178 556.131 395.867C555.553 397.089 553.931 397.956 552.197 397.956ZM552.375 396.312C554.731 396.312 556.108 394.8 556.108 392.845L556.108 392L552.286 392.711C550.686 393 550.175 393.6 550.175 394.578C550.175 395.689 550.997 396.312 552.375 396.312ZM562.529 397.689L558.885 385.911H560.929L563.685 395.734L566.485 385.911H568.485L571.285 395.734L574.063 385.911H576.108L572.463 397.689H570.107L567.485 388.733L564.863 397.689H562.529ZM579.827 397.689C578.449 397.689 577.493 397.023 577.493 395.467L577.515 381.911H579.382L579.382 395.312C579.382 395.8 579.627 396.045 580.115 396.045H581.138L581.138 397.689H579.827ZM587.058 397.956C583.903 397.956 582.147 396.289 581.969 393.978L583.925 393.845C584.147 395.267 585.058 396.178 587.058 396.178C588.658 396.178 589.703 395.689 589.703 394.534C589.703 393.6 589.236 393.2 586.703 392.756C583.325 392.156 582.258 391.111 582.258 389.245C582.258 387.156 583.858 385.644 586.703 385.644C589.57 385.644 591.081 387.378 591.436 389.422L589.481 389.556C589.214 388.311 588.281 387.422 586.681 387.422C584.992 387.422 584.214 388.156 584.214 389.156C584.214 390.311 584.969 390.756 587.058 391.111C590.659 391.734 591.659 392.667 591.659 394.534C591.659 396.712 589.659 397.956 587.058 397.956ZM603.665 397.956C602.021 397.956 600.687 397.201 600.021 395.912L599.954 397.689H598.265L598.265 381.911H600.132L600.132 387.556C600.71 386.578 602.021 385.644 603.665 385.644C606.777 385.644 608.732 388.022 608.732 391.8C608.732 395.578 606.777 397.956 603.665 397.956ZM603.554 396.178C605.532 396.178 606.777 394.489 606.777 391.8C606.777 389.067 605.532 387.422 603.599 387.422C601.421 387.422 600.132 389.067 600.132 391.8C600.132 394.489 601.421 396.178 603.554 396.178ZM610.605 401.023L610.605 399.378H611.961C612.783 399.378 613.116 399.134 613.338 398.578L613.761 397.467H613.116L608.805 385.911H610.849L614.361 395.734L617.716 385.911H619.761L614.983 399.178C614.538 400.445 613.716 401.023 612.138 401.023H610.605ZM626.075 397.689L626.075 381.911H631.742C635.253 381.911 637.32 383.689 637.32 386.689C637.32 389.733 635.253 391.556 631.742 391.556H627.986L627.986 397.689H626.075ZM631.742 389.689C634.12 389.689 635.32 388.667 635.32 386.689C635.32 384.755 634.12 383.778 631.742 383.778H627.986L627.986 389.689H631.742ZM642.075 397.956C639.631 397.956 638.097 396.778 638.097 394.756C638.097 392.756 639.231 391.645 641.809 391.156L645.987 390.378C645.987 388.4 645.053 387.422 643.186 387.422C641.542 387.422 640.631 388.178 640.275 389.533L638.297 389.378C638.742 387.156 640.52 385.644 643.186 385.644C646.209 385.644 647.853 387.467 647.853 390.445L647.853 395.312C647.853 395.845 648.031 396.045 648.476 396.045H648.942L648.942 397.689C648.809 397.712 648.52 397.734 648.231 397.734C646.809 397.734 646.164 397.178 646.009 395.867C645.431 397.089 643.809 397.956 642.075 397.956ZM642.253 396.312C644.609 396.312 645.987 394.8 645.987 392.845L645.987 392L642.164 392.711C640.564 393 640.053 393.6 640.053 394.578C640.053 395.689 640.875 396.312 642.253 396.312ZM654.932 401.29C652.399 401.29 650.488 399.934 649.999 397.867L651.955 397.734C652.31 398.845 653.11 399.512 654.932 399.512C657.066 399.512 658.244 398.667 658.244 396.934L658.244 395.023C657.666 396.267 656.333 397.067 654.799 397.067C651.799 397.067 649.666 394.712 649.666 391.356C649.666 388 651.755 385.644 654.71 385.644C656.355 385.644 657.799 386.467 658.333 387.778L658.333 385.911H660.111L660.111 396.889C660.111 399.645 658.177 401.29 654.932 401.29ZM654.888 395.289C656.91 395.289 658.222 393.778 658.244 391.356C658.288 388.933 656.933 387.422 654.888 387.422C652.821 387.422 651.621 388.933 651.621 391.356C651.621 393.778 652.866 395.289 654.888 395.289ZM667.112 397.956C663.778 397.956 661.711 395.534 661.711 391.8C661.711 388.067 663.778 385.644 667.023 385.644C670.09 385.644 672.223 387.867 672.223 391.822L672.223 392.378H663.667C663.8 394.912 665.067 396.178 667.112 396.178C668.645 396.178 669.645 395.4 670.045 394.2L672.045 394.356C671.423 396.467 669.601 397.956 667.112 397.956ZM670.178 390.734C670.001 388.467 668.756 387.422 667.023 387.422C665.2 387.422 663.978 388.556 663.667 390.734H670.178Z" fill="#171717"/>
<rect x="17.875" y="94.207" width="20.0691" height="19.7075" fill="#F4F4F4"/>
<path d="M32.0126 104.395H30.9609C30.7756 104.395 30.5952 104.455 30.4474 104.567C30.2996 104.679 30.1925 104.836 30.1425 105.014L29.1459 108.559C29.1395 108.581 29.1261 108.601 29.1078 108.614C29.0894 108.628 29.0671 108.636 29.0441 108.636C29.0212 108.636 28.9989 108.628 28.9805 108.614C28.9622 108.601 28.9488 108.581 28.9424 108.559L26.6015 100.231C26.5951 100.209 26.5817 100.189 26.5633 100.176C26.545 100.162 26.5227 100.154 26.4997 100.154C26.4768 100.154 26.4545 100.162 26.4361 100.176C26.4178 100.189 26.4044 100.209 26.398 100.231L25.4014 103.776C25.3515 103.954 25.2451 104.11 25.0981 104.222C24.9512 104.334 24.7718 104.394 24.5872 104.395H23.5312" stroke="#9B9B9B" stroke-width="0.688356" stroke-linecap="round" stroke-linejoin="round"/>
<path d="M25.6516 130.119V129.414C25.6516 129.189 25.7409 128.974 25.9 128.815C26.0591 128.655 26.2748 128.566 26.4997 128.566H29.0441C29.2691 128.566 29.4848 128.655 29.6439 128.815C29.8029 128.974 29.8923 129.189 29.8923 129.414V130.119M32.0126 126.446C32.0126 128.788 30.114 130.686 27.7719 130.686C25.4299 130.686 23.5312 128.788 23.5312 126.446C23.5312 124.104 25.4299 122.205 27.7719 122.205C30.114 122.205 32.0126 124.104 32.0126 126.446ZM29.0441 125.598C29.0441 126.3 28.4746 126.87 27.7719 126.87C27.0693 126.87 26.4997 126.3 26.4997 125.598C26.4997 124.895 27.0693 124.325 27.7719 124.325C28.4746 124.325 29.0441 124.895 29.0441 125.598Z" stroke="#9B9B9B" stroke-width="0.848137" stroke-linecap="round" stroke-linejoin="round"/>
<path d="M26.3584 73.0137H24.0024C23.7422 73.0137 23.5312 73.2246 23.5312 73.4849V76.7832C23.5312 77.0434 23.7422 77.2544 24.0024 77.2544H26.3584C26.6186 77.2544 26.8296 77.0434 26.8296 76.7832V73.4849C26.8296 73.2246 26.6186 73.0137 26.3584 73.0137Z" stroke="#9B9B9B" stroke-width="0.848137" stroke-linecap="round" stroke-linejoin="round"/>
<path d="M31.5414 73.0137H29.1855C28.9253 73.0137 28.7143 73.2246 28.7143 73.4849V74.8984C28.7143 75.1587 28.9253 75.3696 29.1855 75.3696H31.5414C31.8017 75.3696 32.0126 75.1587 32.0126 74.8984V73.4849C32.0126 73.2246 31.8017 73.0137 31.5414 73.0137Z" stroke="#9B9B9B" stroke-width="0.848137" stroke-linecap="round" stroke-linejoin="round"/>
<path d="M31.5414 77.2544H29.1855C28.9253 77.2544 28.7143 77.4653 28.7143 77.7255V81.0239C28.7143 81.2841 28.9253 81.495 29.1855 81.495H31.5414C31.8017 81.495 32.0126 81.2841 32.0126 81.0239V77.7255C32.0126 77.4653 31.8017 77.2544 31.5414 77.2544Z" stroke="#9B9B9B" stroke-width="0.848137" stroke-linecap="round" stroke-linejoin="round"/>
<path d="M26.3584 79.1391H24.0024C23.7422 79.1391 23.5312 79.3501 23.5312 79.6103V81.0239C23.5312 81.2841 23.7422 81.495 24.0024 81.495H26.3584C26.6186 81.495 26.8296 81.2841 26.8296 81.0239V79.6103C26.8296 79.3501 26.6186 79.1391 26.3584 79.1391Z" stroke="#9B9B9B" stroke-width="0.848137" stroke-linecap="round" stroke-linejoin="round"/>
<path d="M23.5312 146.141V145.198C23.5312 144.948 23.6305 144.709 23.8073 144.532C23.984 144.355 24.2237 144.256 24.4736 144.256H25.416M30.1279 144.256H31.0702C31.3202 144.256 31.5599 144.355 31.7366 144.532C31.9133 144.709 32.0126 144.948 32.0126 145.198V146.141M32.0126 150.852V151.795C32.0126 152.045 31.9133 152.284 31.7366 152.461C31.5599 152.638 31.3202 152.737 31.0702 152.737H30.1279M25.416 152.737H24.4736C24.2237 152.737 23.984 152.638 23.8073 152.461C23.6305 152.284 23.5312 152.045 23.5312 151.795V150.852M29.1855 148.497C29.1855 149.277 28.5526 149.91 27.7719 149.91C26.9912 149.91 26.3584 149.277 26.3584 148.497C26.3584 147.716 26.9912 147.083 27.7719 147.083C28.5526 147.083 29.1855 147.716 29.1855 148.497Z" stroke="#9B9B9B" stroke-width="0.848137" stroke-linecap="round" stroke-linejoin="round"/>
</g>
</g>
<rect x="3" y="3" width="533" height="415" rx="5" stroke="#E9E9E9" stroke-width="6"/>
<defs>
<linearGradient id="paint0_linear_407_3873" x1="438.269" y1="50.1129" x2="438.269" y2="6.00977" gradientUnits="userSpaceOnUse">
<stop stop-color="#FEFEFE"/>
<stop offset="1" stop-color="#FEFEFE"/>
</linearGradient>
<linearGradient id="paint1_linear_407_3873" x1="280.942" y1="94.2164" x2="280.942" y2="50.1133" gradientUnits="userSpaceOnUse">
<stop stop-color="#FEFEFE"/>
<stop offset="1" stop-color="#FEFEFE"/>
</linearGradient>
<linearGradient id="paint2_linear_407_3873" x1="456.362" y1="346.743" x2="456.362" y2="67.0664" gradientUnits="userSpaceOnUse">
<stop stop-color="#FEFEFE"/>
<stop offset="1" stop-color="#FEFEFE"/>
</linearGradient>
<linearGradient id="paint3_linear_407_3873" x1="406.621" y1="340.434" x2="407.765" y2="65.0968" gradientUnits="userSpaceOnUse">
<stop offset="0.0812" stop-color="white"/>
<stop offset="0.2488" stop-color="#F5F5F5"/>
<stop offset="0.3974" stop-color="#D9D9D9"/>
<stop offset="0.5389" stop-color="#C5C5C5"/>
<stop offset="0.6759" stop-color="#A5A5A5"/>
<stop offset="0.8098" stop-color="#8C8C8C"/>
</linearGradient>
<linearGradient id="paint4_linear_407_3873" x1="260.327" y1="744.91" x2="260.325" y2="361.369" gradientUnits="userSpaceOnUse">
<stop stop-color="white" stop-opacity="0.8"/>
<stop offset="1" stop-color="white" stop-opacity="0.9"/>
</linearGradient>
<linearGradient id="paint5_linear_407_3873" x1="658.104" y1="744.91" x2="658.102" y2="361.369" gradientUnits="userSpaceOnUse">
<stop stop-color="white" stop-opacity="0.8"/>
<stop offset="1" stop-color="white" stop-opacity="0.9"/>
</linearGradient>
<clipPath id="clip0_407_3873">
<rect x="6" y="6" width="527" height="409" rx="2" fill="white"/>
</clipPath>
<clipPath id="clip1_407_3873">
<rect width="865.318" height="506.614" fill="white" transform="translate(6 6)"/>
</clipPath>
</defs>
</svg>
