<svg width="142" height="86" viewBox="0 0 142 86" fill="none" xmlns="http://www.w3.org/2000/svg">
<path d="M1.69128 85.243C1.67571 85.2407 1.66128 85.2334 1.65006 85.2224C1.63884 85.2113 1.6314 85.197 1.62881 85.1815C1.62622 85.1659 1.62861 85.1499 1.63563 85.1358C1.64266 85.1217 1.65396 85.1102 1.66793 85.1029C5.45126 83.0595 9.27664 81.5952 13.5317 79.9767C22.0715 76.7321 30.4999 73.2594 38.817 69.5586C42.0585 68.113 45.3281 66.4899 48.2613 64.6753C51.4351 62.7135 54.644 60.0862 55.1858 56.1721C55.4707 54.131 54.8892 51.9591 53.9807 50.0884C52.0517 46.1112 49.1021 42.5498 45.8699 39.5745C39.8516 34.0302 33.6838 30.3964 26.0237 25.6765C21.5382 22.9114 17.2824 20.0257 13.2561 17.0192C7.44335 12.6778 2.31483 7.67301 0.0938747 0.70186C0.0269268 0.487004 -0.00421389 0.291615 0.000456898 0.115682C0.00102101 0.0960689 0.00642174 0.0768928 0.0161792 0.0598699C0.0259366 0.042847 0.0397478 0.0285045 0.0563864 0.0181054C0.0730251 0.00770622 0.0919761 0.00157761 0.111553 0.000266374C0.131131 -0.00104487 0.150729 0.00249896 0.168605 0.0105863C8.2911 3.70751 16.3389 6.11063 25.6361 8.67489C34.7744 11.1971 44.2445 13.4344 53.5884 15.7511C55.4972 16.2244 57.7446 16.8737 60.3306 17.6988C65.7861 19.4395 70.7846 21.936 75.3262 25.1884C78.2906 27.3105 81.1647 29.7674 83.9485 32.5589C85.6735 34.2902 87.5808 36.1453 89.6702 38.1242C89.7261 38.1774 89.7951 38.2147 89.8702 38.2324C89.9454 38.25 90.0238 38.2473 90.0976 38.2246C90.4261 38.1234 90.6853 38.0051 90.8752 37.8696C93.0908 36.3034 95.0595 34.9449 96.7814 33.7944C100.521 31.2955 104.33 29.2871 108.209 27.7691C113.255 25.7933 118.307 24.8872 123.435 25.6509C124.978 25.8813 126.764 26.276 128.793 26.8349C133.099 28.0228 137.4 29.5097 141.696 31.2955C141.713 31.3031 141.728 31.3162 141.737 31.3327C141.747 31.3493 141.75 31.3684 141.748 31.3871C141.746 31.4057 141.737 31.4229 141.724 31.4359C141.711 31.4489 141.693 31.457 141.675 31.459C137.174 31.9914 132.706 32.9108 128.272 34.2171C126.513 34.7355 124.332 35.5739 122.737 36.4824C118.531 38.8762 115.486 42.3045 112.935 46.3821C110.168 50.8054 107.307 55.9059 104.327 59.7756C96.1626 70.3713 82.1152 75.766 68.9553 77.3611C64.3452 77.92 59.8332 78.2127 55.4193 78.2392C53.6584 78.2509 51.8275 78.4564 50.2908 78.4704C49.3769 78.4782 48.5572 78.5249 47.8316 78.6105C46.6289 78.7553 45.9073 78.7063 44.5597 78.8464C37.1721 79.6109 30.686 80.6353 25.1013 81.9198C17.0465 83.7694 10.101 85.3248 2.4643 85.3154C2.22297 85.3154 1.9653 85.2913 1.69128 85.243Z" fill="white"/>
</svg>
