<svg width="742" height="259" viewBox="0 0 742 259" fill="none" xmlns="http://www.w3.org/2000/svg">
<path d="M2.96635 203.509C2.93903 203.504 2.91373 203.492 2.89405 203.472C2.87437 203.453 2.86133 203.428 2.85678 203.401C2.85224 203.373 2.85643 203.345 2.86875 203.321C2.88108 203.296 2.9009 203.276 2.92539 203.263C9.56102 199.679 16.2704 197.11 23.7334 194.272C38.7114 188.581 53.494 182.49 68.0815 175.999C73.7668 173.464 79.5013 170.617 84.646 167.434C90.2125 163.994 95.8405 159.386 96.7908 152.521C97.2905 148.941 96.2706 145.131 94.6772 141.85C91.2939 134.875 86.1206 128.628 80.4516 123.41C69.896 113.686 59.0783 107.312 45.6433 99.0343C37.7761 94.1846 30.3117 89.1232 23.2501 83.8502C13.055 76.2356 4.06001 67.4578 0.164648 55.231C0.0472272 54.8542 -0.00739077 54.5115 0.000801358 54.2029C0.00179076 54.1685 0.0112632 54.1349 0.0283768 54.105C0.0454904 54.0751 0.069714 54.05 0.0988967 54.0318C0.128079 54.0135 0.161318 54.0028 0.195654 54.0005C0.229991 53.9982 0.264364 54.0044 0.295719 54.0186C14.5418 60.5026 28.6569 64.7175 44.9633 69.215C60.9912 73.6387 77.6008 77.5627 93.9891 81.626C97.337 82.4562 101.279 83.5949 105.814 85.0422C115.383 88.0951 124.15 92.4738 132.115 98.1782C137.315 101.9 142.355 106.209 147.238 111.105C150.264 114.142 153.609 117.396 157.273 120.866C157.371 120.96 157.492 121.025 157.624 121.056C157.756 121.087 157.894 121.082 158.023 121.042C158.599 120.865 159.054 120.657 159.387 120.42C163.273 117.673 166.726 115.29 169.746 113.272C176.305 108.889 182.986 105.367 189.788 102.704C198.639 99.2391 207.499 97.6499 216.494 98.9893C219.2 99.3934 222.332 100.086 225.891 101.066C233.444 103.149 240.987 105.757 248.521 108.889C248.552 108.903 248.577 108.926 248.594 108.955C248.611 108.984 248.617 109.017 248.613 109.05C248.609 109.083 248.594 109.113 248.571 109.136C248.547 109.159 248.517 109.173 248.484 109.176C240.59 110.11 232.754 111.723 224.977 114.014C221.893 114.923 218.067 116.393 215.269 117.987C207.892 122.185 202.551 128.198 198.078 135.35C193.224 143.108 188.207 152.054 182.98 158.841C168.66 177.425 144.023 186.887 120.941 189.684C112.856 190.665 104.942 191.178 97.2004 191.224C94.112 191.245 90.9007 191.605 88.2055 191.63C86.6025 191.644 85.1648 191.726 83.8923 191.876C81.7828 192.13 80.5171 192.044 78.1537 192.289C65.1965 193.63 53.8204 195.427 44.0253 197.68C29.898 200.924 17.7163 203.652 4.32215 203.636C3.89889 203.636 3.44696 203.593 2.96635 203.509Z" fill="white"/>
<path d="M347.065 113.787C379.729 119.196 416.97 123.982 416.97 156.853C416.97 193.054 392.836 202 350.186 202C278.409 202 278.617 162.263 278.617 148.323C285.067 148.323 293.181 148.323 311.073 148.323C311.073 170.168 330.422 173.705 349.354 173.705C373.28 173.705 383.266 168.088 383.266 156.853C383.266 147.075 373.28 145.203 344.777 141.042C301.087 134.592 281.53 125.646 281.53 99.0157C281.53 78.4188 296.718 54.7012 344.361 54.7012C400.95 54.7012 412.185 86.3247 412.185 108.378C412.185 108.378 390.132 108.378 378.897 108.378C378.897 98.3915 374.528 83.412 344.361 83.412C319.811 83.412 314.194 92.1501 314.194 99.2237C314.194 106.922 322.724 109.834 347.065 113.787ZM502.064 85.4925C551.371 85.4925 556.573 126.894 556.573 143.954C556.573 159.558 551.163 202.416 502.064 202.416C480.219 202.416 466.903 196.175 458.998 185.98H457.541V246.523H425.918V85.4925H457.541V102.553H459.206C467.111 92.3581 480.427 85.4925 502.064 85.4925ZM492.91 175.162C523.077 175.162 526.405 152.276 526.405 143.954C526.405 134.8 523.077 112.747 492.91 112.747C465.447 112.747 459.83 128.143 459.83 143.954C459.83 161.638 465.447 175.162 492.91 175.162ZM598.335 202H566.92V52.4127H598.335V202ZM642.017 202H610.602V86.1166H642.017V202ZM642.017 77.7947H610.602V49.5H642.017V77.7947ZM698.464 112.331V153.733V156.229C698.464 173.081 705.953 170.793 736.329 169.128V199.92C736.329 199.92 730.087 202 698.464 202C666.632 202 666.632 175.994 666.632 159.142V112.331H651.237V85.7005H666.632V51.9966H698.464V85.7005H736.329V112.331H698.464Z" fill="white"/>
</svg>
