<svg width="105" height="63" viewBox="0 0 105 63" fill="none" xmlns="http://www.w3.org/2000/svg">
<path d="M2.04355 62.9158C2.03214 62.9141 2.02157 62.9088 2.01335 62.9007C2.00513 62.8926 1.99968 62.8821 1.99778 62.8707C1.99589 62.8593 1.99764 62.8476 2.00278 62.8373C2.00793 62.8269 2.01621 62.8185 2.02644 62.8132C4.79772 61.3163 7.59979 60.2437 10.7166 59.0582C16.972 56.6816 23.1457 54.1378 29.238 51.427C31.6124 50.3681 34.0073 49.1791 36.1559 47.85C38.4807 46.413 40.8312 44.4885 41.2281 41.6214C41.4368 40.1263 41.0108 38.5354 40.3454 37.1652C38.9323 34.2519 36.7718 31.6431 34.4042 29.4637C29.9958 25.4026 25.478 22.7408 19.867 19.2836C16.5814 17.2581 13.4639 15.1443 10.5148 12.9421C6.25691 9.76199 2.50029 6.09603 0.87345 0.989696C0.824411 0.832315 0.801601 0.689193 0.805022 0.560322C0.805435 0.545956 0.809391 0.53191 0.816539 0.51944C0.823686 0.506971 0.833803 0.496465 0.84599 0.488848C0.858178 0.481231 0.87206 0.476742 0.8864 0.475781C0.90074 0.474821 0.915096 0.477416 0.92819 0.48334C6.87789 3.19132 12.7728 4.9516 19.583 6.82991C26.2768 8.67743 33.2136 10.3162 40.058 12.0132C41.4561 12.3599 43.1024 12.8355 44.9967 13.4399C48.9928 14.7149 52.6542 16.5436 55.9808 18.926C58.1522 20.4805 60.2575 22.2801 62.2966 24.3249C63.5602 25.5931 64.9573 26.9519 66.4877 28.4014C66.5287 28.4404 66.5793 28.4677 66.6343 28.4806C66.6893 28.4936 66.7468 28.4916 66.8008 28.475C67.0414 28.4008 67.2313 28.3142 67.3705 28.2149C68.9933 27.0677 70.4354 26.0726 71.6967 25.2298C74.4361 23.3994 77.2262 21.9282 80.067 20.8163C83.7638 19.3691 87.4639 18.7054 91.2206 19.2647C92.3507 19.4335 93.6588 19.7226 95.1448 20.132C98.2993 21.0022 101.45 22.0913 104.596 23.3994C104.609 23.405 104.62 23.4146 104.627 23.4267C104.633 23.4388 104.636 23.4528 104.635 23.4665C104.633 23.4802 104.627 23.4928 104.617 23.5023C104.607 23.5118 104.594 23.5177 104.581 23.5192C101.284 23.9092 98.0113 24.5826 94.7633 25.5395C93.4752 25.9192 91.8774 26.5334 90.7091 27.1988C87.6282 28.9522 85.3975 31.4635 83.5294 34.4503C81.5023 37.6903 79.4067 41.4264 77.2239 44.261C71.2434 52.0223 60.9537 55.9739 51.3141 57.1423C47.9373 57.5517 44.6323 57.7661 41.3991 57.7855C40.1093 57.7941 38.7681 57.9446 37.6425 57.9549C36.9731 57.9606 36.3726 57.9948 35.8412 58.0575C34.9602 58.1636 34.4316 58.1276 33.4445 58.2303C28.0331 58.7902 23.282 59.5407 19.1913 60.4815C13.2912 61.8364 8.20365 62.9757 2.60978 62.9688C2.43301 62.9688 2.24426 62.9512 2.04355 62.9158Z" fill="#212121"/>
</svg>
