<svg width="582" height="363" viewBox="0 0 582 363" fill="none" xmlns="http://www.w3.org/2000/svg">
<path d="M298.819 212.465C297.938 212.338 297.068 212.37 296.21 212.56C295.925 212.627 295.669 212.788 295.485 213.018C271.981 243.346 245.111 269.006 214.875 289.999C186.735 309.54 156.217 325.096 123.32 336.666C83.7252 350.586 42.6847 359.254 0.198696 362.669C0.172986 362.671 0.14731 362.667 0.123217 362.658C0.0991238 362.65 0.0771259 362.636 0.0585464 362.619C0.0399668 362.602 0.0251871 362.582 0.0151252 362.559C0.00506335 362.537 -7.7283e-05 362.512 5.56777e-06 362.488V215.108C-0.000607109 214.974 0.0493638 214.844 0.140287 214.743C0.231211 214.643 0.356656 214.579 0.492429 214.564C21.1336 212.589 41.3112 208.344 61.0251 201.83C89.8531 192.31 116.495 177.797 137.859 156.183C137.917 156.127 137.956 156.055 137.972 155.977C137.988 155.899 137.98 155.818 137.949 155.744C137.919 155.671 137.866 155.608 137.799 155.564C137.733 155.521 137.654 155.498 137.574 155.5H0.345556C0.253909 155.5 0.16602 155.464 0.101216 155.399C0.0364119 155.334 5.56777e-06 155.246 5.56777e-06 155.155V0.276574C5.56777e-06 0.203256 0.0291254 0.13293 0.0809688 0.0810862C0.132812 0.0292428 0.203139 0.000122995 0.276456 0.000122995H154.956C155.1 0.000122995 155.239 0.0574519 155.341 0.159519C155.443 0.261585 155.5 0.400033 155.5 0.544377V127.415C155.5 127.557 155.556 127.693 155.657 127.794C155.757 127.894 155.894 127.951 156.036 127.951H158.446C158.62 127.951 158.79 127.902 158.936 127.81C159.083 127.718 159.2 127.588 159.275 127.432L222.417 0.259279C222.456 0.181391 222.516 0.115883 222.59 0.0700925C222.665 0.0243022 222.752 6.04957e-05 222.84 0.000122995H339.862C339.94 0.000122995 340.015 0.0310645 340.07 0.0861481C340.125 0.141232 340.156 0.215942 340.156 0.293842V126.741C340.156 126.837 340.194 126.93 340.262 126.998C340.331 127.066 340.423 127.104 340.519 127.104H343.404C343.532 127.104 343.656 127.07 343.765 127.004C343.873 126.939 343.96 126.845 344.018 126.733L409.336 0.267926C409.381 0.186666 409.446 0.118926 409.523 0.0718062C409.601 0.024686 409.688 -7.52897e-05 409.777 0.000122995H581.337C581.372 -0.0011099 581.407 0.00694389 581.437 0.0234813C581.468 0.0400188 581.494 0.0644633 581.513 0.0942945C581.531 0.124126 581.541 0.158293 581.542 0.193343C581.543 0.228393 581.535 0.263061 581.518 0.293842L396.274 362.436C396.212 362.556 396.117 362.656 396.001 362.726C395.886 362.796 395.753 362.833 395.618 362.833H222.071C222.036 362.833 222.001 362.824 221.971 362.806C221.94 362.788 221.914 362.763 221.896 362.733C221.878 362.703 221.868 362.668 221.867 362.633C221.866 362.597 221.874 362.563 221.89 362.531L299.113 213.027C299.141 212.971 299.155 212.91 299.155 212.848C299.155 212.786 299.14 212.725 299.111 212.67C299.082 212.615 299.041 212.568 298.99 212.532C298.939 212.496 298.881 212.473 298.819 212.465Z" fill="white"/>
</svg>
